<svg id="svg" version="1.1" xmlns="http://www.w3.org/2000/svg" xmlns:xlink="http://www.w3.org/1999/xlink" width="400" height="400" viewBox="0, 0, 400,400"><g id="svgg"><path id="path0" d="M168.945 106.873 C 167.012 106.940,159.453 107.185,152.148 107.417 C 114.100 108.626,97.618 110.587,89.472 114.876 C 76.092 121.921,71.472 132.570,68.980 162.109 C 67.922 174.651,67.773 179.304,67.773 199.805 C 67.773 220.306,67.922 224.958,68.980 237.500 C 72.098 274.464,79.803 285.554,104.779 289.027 C 137.206 293.537,231.578 294.270,281.836 290.403 C 319.726 287.488,327.510 279.116,331.020 237.500 C 332.078 224.958,332.227 220.306,332.227 199.805 C 332.227 179.304,332.078 174.651,331.020 162.109 C 328.826 136.103,325.294 125.876,315.916 118.379 C 308.807 112.695,301.287 110.683,281.641 109.205 C 277.236 108.873,272.402 108.505,270.898 108.386 C 257.223 107.304,186.665 106.257,168.945 106.873 M176.180 162.242 C 177.787 163.174,185.254 167.424,192.773 171.686 C 200.293 175.948,209.873 181.386,214.063 183.771 C 218.252 186.155,226.198 190.651,231.720 193.760 C 237.243 196.870,241.761 199.590,241.762 199.805 C 241.762 200.020,237.420 202.643,232.112 205.634 C 226.804 208.625,217.451 213.916,211.328 217.393 C 205.205 220.869,195.625 226.307,190.039 229.477 C 184.453 232.647,178.383 236.100,176.549 237.151 C 174.715 238.202,173.089 239.063,172.936 239.063 C 172.782 239.063,172.656 221.396,172.656 199.805 C 172.656 178.213,172.792 160.547,172.957 160.547 C 173.123 160.547,174.573 161.310,176.180 162.242 " stroke="none" fill="#fcfbfb" fill-rule="evenodd"></path><path id="path1" d="M180.273 1.202 C 175.694 1.572,169.850 2.378,163.477 3.518 C 162.188 3.748,160.430 4.036,159.570 4.157 C 158.711 4.278,157.841 4.535,157.637 4.728 C 157.433 4.920,156.608 5.078,155.804 5.078 C 155.001 5.078,154.234 5.254,154.102 5.469 C 153.969 5.684,153.266 5.859,152.539 5.859 C 151.812 5.859,151.121 6.016,151.003 6.207 C 150.885 6.398,150.128 6.667,149.320 6.804 C 145.777 7.407,145.293 7.527,145.091 7.856 C 144.972 8.047,144.369 8.203,143.750 8.203 C 143.131 8.203,142.516 8.379,142.383 8.594 C 142.250 8.809,141.798 8.984,141.378 8.984 C 140.958 8.984,140.309 9.142,139.936 9.335 C 139.563 9.528,137.939 10.087,136.328 10.577 C 134.717 11.068,133.231 11.613,133.027 11.789 C 132.823 11.965,132.337 12.109,131.948 12.109 C 131.558 12.109,130.934 12.265,130.561 12.454 C 129.926 12.777,129.148 13.107,126.758 14.063 C 126.221 14.277,125.298 14.652,124.707 14.896 C 124.116 15.140,123.281 15.469,122.852 15.628 C 121.585 16.096,118.784 17.372,115.234 19.096 C 113.408 19.984,111.694 20.708,111.426 20.706 C 111.157 20.705,110.938 20.879,110.938 21.094 C 110.938 21.309,110.621 21.484,110.234 21.484 C 109.848 21.484,109.364 21.651,109.160 21.854 C 108.956 22.057,107.471 22.907,105.859 23.743 C 102.171 25.657,100.090 26.842,98.768 27.780 C 98.198 28.185,97.614 28.516,97.471 28.516 C 97.328 28.516,96.445 29.043,95.508 29.687 C 94.571 30.332,93.699 30.859,93.569 30.859 C 93.239 30.859,83.487 37.543,80.435 39.861 C 76.167 43.102,70.123 48.062,66.432 51.352 C 63.093 54.327,51.997 65.553,49.805 68.173 C 48.731 69.457,47.583 70.771,47.255 71.094 C 46.926 71.416,46.052 72.471,45.312 73.438 C 44.571 74.404,43.869 75.283,43.750 75.391 C 43.631 75.498,42.928 76.377,42.187 77.344 C 41.447 78.311,40.739 79.189,40.614 79.297 C 40.490 79.404,39.607 80.635,38.651 82.031 C 37.696 83.428,36.811 84.658,36.685 84.766 C 36.150 85.221,30.859 93.369,30.859 93.737 C 30.859 93.959,30.684 94.141,30.469 94.141 C 30.254 94.141,30.078 94.371,30.078 94.653 C 30.078 94.935,29.771 95.507,29.395 95.925 C 28.796 96.590,28.315 97.401,26.396 100.977 C 26.165 101.406,25.889 101.846,25.781 101.953 C 25.291 102.443,20.007 112.844,18.042 117.188 C 15.507 122.788,15.234 123.451,15.234 124.019 C 15.234 124.344,15.059 124.609,14.844 124.609 C 14.629 124.609,14.453 124.951,14.453 125.368 C 14.453 125.785,14.277 126.234,14.063 126.367 C 13.848 126.500,13.672 127.038,13.672 127.562 C 13.672 128.087,13.496 128.516,13.281 128.516 C 13.066 128.516,12.891 128.945,12.891 129.469 C 12.891 129.994,12.750 130.510,12.577 130.616 C 12.405 130.723,12.019 131.711,11.719 132.813 C 11.419 133.914,11.032 134.902,10.860 135.009 C 10.688 135.115,10.547 135.621,10.547 136.133 C 10.547 136.645,10.371 137.172,10.156 137.305 C 9.941 137.437,9.766 137.890,9.766 138.310 C 9.766 138.730,9.607 139.378,9.413 139.751 C 9.219 140.124,8.848 141.221,8.587 142.188 C 8.327 143.154,7.972 144.297,7.797 144.727 C 7.623 145.156,7.372 146.035,7.239 146.680 C 7.105 147.324,6.828 148.511,6.623 149.316 C 5.686 152.994,5.407 154.182,5.223 155.273 C 5.114 155.918,4.872 156.797,4.685 157.227 C 4.498 157.656,4.242 158.711,4.115 159.570 C 3.989 160.430,3.707 162.100,3.490 163.281 C 1.290 175.224,0.835 181.536,0.841 200.000 C 0.848 219.193,1.189 223.893,3.518 236.914 C 3.748 238.203,4.036 239.961,4.157 240.820 C 4.278 241.680,4.535 242.550,4.728 242.754 C 4.920 242.958,5.078 243.783,5.078 244.586 C 5.078 245.390,5.254 246.156,5.469 246.289 C 5.684 246.422,5.859 247.125,5.859 247.852 C 5.859 248.578,6.016 249.269,6.207 249.387 C 6.398 249.505,6.649 250.175,6.765 250.875 C 7.105 252.931,7.459 254.438,7.797 255.273 C 7.972 255.703,8.327 256.846,8.587 257.813 C 8.848 258.779,9.219 259.876,9.413 260.249 C 9.607 260.622,9.766 261.369,9.766 261.909 C 9.766 262.449,9.941 262.891,10.156 262.891 C 10.371 262.891,10.547 263.418,10.547 264.063 C 10.547 264.707,10.723 265.234,10.938 265.234 C 11.152 265.234,11.328 265.639,11.328 266.133 C 11.328 266.627,11.468 267.198,11.639 267.402 C 11.810 267.606,12.173 268.477,12.446 269.336 C 12.719 270.195,13.106 271.294,13.307 271.777 C 13.508 272.261,13.824 273.052,14.010 273.535 C 14.574 275.001,15.306 276.719,15.671 277.436 C 15.860 277.809,16.016 278.380,16.016 278.706 C 16.016 279.031,16.191 279.297,16.406 279.297 C 16.621 279.297,16.797 279.528,16.797 279.809 C 16.797 280.319,17.705 282.426,19.159 285.291 C 19.579 286.117,19.922 287.040,19.922 287.342 C 19.922 287.644,20.098 287.891,20.313 287.891 C 20.527 287.891,20.703 288.242,20.703 288.672 C 20.703 289.102,20.879 289.453,21.094 289.453 C 21.309 289.453,21.484 289.790,21.484 290.202 C 21.484 290.614,21.616 291.009,21.777 291.081 C 22.038 291.197,24.071 294.840,25.171 297.165 C 25.399 297.647,25.718 298.042,25.879 298.044 C 26.040 298.046,26.172 298.384,26.172 298.796 C 26.172 299.207,26.304 299.603,26.465 299.674 C 26.832 299.837,28.100 301.918,28.390 302.832 C 28.509 303.208,28.762 303.516,28.952 303.516 C 29.142 303.516,29.297 303.701,29.297 303.928 C 29.297 304.154,30.000 305.375,30.859 306.641 C 31.719 307.906,32.422 309.127,32.422 309.354 C 32.422 309.580,32.568 309.766,32.746 309.766 C 32.925 309.766,33.320 310.249,33.625 310.840 C 33.929 311.431,34.280 312.002,34.404 312.109 C 34.528 312.217,35.394 313.447,36.328 314.844 C 37.263 316.240,38.137 317.471,38.271 317.578 C 38.405 317.686,38.937 318.389,39.453 319.141 C 39.970 319.893,40.497 320.596,40.625 320.703 C 40.753 320.811,41.281 321.514,41.797 322.266 C 42.314 323.018,43.018 323.896,43.363 324.219 C 43.707 324.541,44.243 325.175,44.553 325.628 C 45.258 326.657,48.078 330.033,50.387 332.611 C 52.730 335.228,64.923 347.429,67.389 349.623 C 70.048 351.990,73.372 354.761,74.372 355.446 C 74.825 355.756,75.283 356.124,75.391 356.265 C 76.386 357.566,94.047 369.922,94.912 369.922 C 95.132 369.922,95.313 370.098,95.313 370.313 C 95.313 370.527,95.505 370.703,95.740 370.703 C 95.976 370.703,96.635 371.034,97.205 371.439 C 99.854 373.317,112.024 379.690,118.262 382.465 C 119.175 382.871,120.757 383.577,121.777 384.034 C 122.798 384.491,124.028 385.018,124.512 385.206 C 124.995 385.393,125.786 385.705,126.270 385.898 C 126.753 386.091,127.764 386.461,128.516 386.719 C 130.169 387.287,131.602 387.863,132.514 388.327 C 132.887 388.517,133.536 388.672,133.956 388.672 C 134.376 388.672,134.828 388.848,134.961 389.062 C 135.094 389.277,135.621 389.453,136.133 389.453 C 136.645 389.453,137.172 389.629,137.305 389.844 C 137.437 390.059,137.890 390.234,138.310 390.234 C 138.730 390.234,139.378 390.393,139.751 390.587 C 140.124 390.781,141.221 391.152,142.188 391.413 C 143.154 391.673,144.297 392.028,144.727 392.203 C 145.562 392.541,147.069 392.895,149.125 393.235 C 149.825 393.351,150.495 393.602,150.613 393.793 C 150.731 393.984,151.422 394.141,152.148 394.141 C 152.875 394.141,153.578 394.316,153.711 394.531 C 153.844 394.746,154.610 394.922,155.414 394.922 C 156.217 394.922,157.042 395.080,157.246 395.272 C 157.450 395.465,158.320 395.722,159.180 395.843 C 160.039 395.964,161.797 396.252,163.086 396.482 C 170.063 397.730,174.116 398.302,179.297 398.769 C 181.338 398.954,183.503 399.306,184.107 399.552 C 185.646 400.179,214.354 400.179,215.893 399.552 C 216.497 399.306,218.662 398.954,220.703 398.769 C 225.776 398.312,233.041 397.300,237.109 396.485 C 238.291 396.248,239.961 395.957,240.820 395.839 C 241.680 395.720,242.550 395.465,242.754 395.272 C 242.958 395.080,243.783 394.922,244.586 394.922 C 245.390 394.922,246.145 394.765,246.264 394.573 C 246.382 394.380,247.140 394.123,247.947 394.002 C 251.374 393.484,252.363 393.254,252.566 392.926 C 252.684 392.734,253.287 392.578,253.906 392.578 C 254.525 392.578,255.141 392.402,255.273 392.187 C 255.406 391.973,256.021 391.797,256.641 391.797 C 257.260 391.797,257.875 391.621,258.008 391.406 C 258.141 391.191,258.668 391.016,259.180 391.016 C 259.691 391.016,260.219 390.840,260.352 390.625 C 260.484 390.410,261.012 390.234,261.523 390.234 C 262.035 390.234,262.563 390.059,262.695 389.844 C 262.828 389.629,263.355 389.453,263.867 389.453 C 264.379 389.453,264.906 389.277,265.039 389.063 C 265.172 388.848,265.674 388.672,266.156 388.672 C 266.637 388.672,267.198 388.532,267.402 388.361 C 267.606 388.190,268.477 387.827,269.336 387.554 C 270.195 387.281,271.250 386.917,271.680 386.745 C 272.109 386.573,272.900 386.257,273.438 386.042 C 275.918 385.050,276.484 384.812,278.223 384.034 C 279.243 383.577,280.825 382.871,281.738 382.465 C 285.000 381.014,295.543 375.731,297.461 374.586 C 298.535 373.944,299.678 373.306,300.000 373.168 C 300.322 373.029,301.321 372.418,302.219 371.809 C 303.117 371.201,303.956 370.703,304.084 370.703 C 304.384 370.703,315.542 363.242,317.910 361.457 C 318.909 360.704,320.240 359.708,320.868 359.243 C 322.301 358.182,328.253 353.437,328.516 353.146 C 328.623 353.027,329.854 351.974,331.250 350.805 C 334.535 348.056,348.053 334.538,350.805 331.251 C 351.974 329.854,353.195 328.448,353.520 328.126 C 353.845 327.803,354.589 326.895,355.174 326.108 C 355.759 325.321,356.466 324.442,356.745 324.155 C 357.024 323.868,357.677 323.018,358.197 322.266 C 358.717 321.514,359.247 320.811,359.375 320.703 C 359.503 320.596,360.033 319.893,360.553 319.141 C 361.073 318.389,361.717 317.547,361.985 317.271 C 362.253 316.995,362.780 316.248,363.156 315.611 C 363.533 314.974,363.978 314.453,364.147 314.453 C 364.315 314.453,364.453 314.233,364.454 313.965 C 364.454 313.696,364.888 312.972,365.419 312.355 C 365.950 311.737,366.489 310.903,366.617 310.499 C 366.745 310.096,367.013 309.766,367.214 309.766 C 367.414 309.766,367.578 309.535,367.578 309.253 C 367.578 308.972,367.886 308.391,368.262 307.964 C 368.903 307.234,369.198 306.772,370.410 304.590 C 370.679 304.106,370.986 303.623,371.094 303.516 C 371.201 303.408,371.509 302.925,371.777 302.441 C 372.046 301.958,372.485 301.167,372.754 300.684 C 373.022 300.200,373.330 299.717,373.438 299.609 C 373.545 299.502,374.028 298.667,374.512 297.754 C 374.995 296.841,375.786 295.347,376.270 294.434 C 376.753 293.521,377.280 292.715,377.441 292.643 C 377.603 292.572,377.734 292.176,377.734 291.764 C 377.734 291.353,377.910 291.016,378.125 291.016 C 378.340 291.016,378.516 290.664,378.516 290.234 C 378.516 289.805,378.691 289.453,378.906 289.453 C 379.121 289.453,379.297 289.102,379.297 288.672 C 379.297 288.242,379.473 287.891,379.688 287.891 C 379.902 287.891,380.078 287.539,380.078 287.109 C 380.078 286.680,380.254 286.328,380.469 286.328 C 380.684 286.328,380.859 286.081,380.859 285.779 C 380.859 285.477,381.190 284.554,381.594 283.728 C 382.494 281.891,383.947 278.663,384.470 277.344 C 384.683 276.807,385.012 276.062,385.202 275.689 C 385.392 275.316,385.547 274.745,385.547 274.419 C 385.547 274.094,385.723 273.828,385.938 273.828 C 386.152 273.828,386.328 273.474,386.328 273.042 C 386.328 272.609,386.504 271.906,386.719 271.479 C 386.934 271.052,387.285 270.354,387.500 269.927 C 387.715 269.500,387.891 268.797,387.891 268.365 C 387.891 267.932,388.066 267.578,388.281 267.578 C 388.496 267.578,388.672 267.051,388.672 266.406 C 388.672 265.762,388.848 265.234,389.063 265.234 C 389.277 265.234,389.453 264.805,389.453 264.281 C 389.453 263.756,389.629 263.219,389.844 263.086 C 390.059 262.953,390.234 262.328,390.234 261.696 C 390.234 261.064,390.410 260.547,390.625 260.547 C 390.840 260.547,391.016 260.105,391.016 259.565 C 391.016 259.025,391.170 258.278,391.358 257.905 C 391.928 256.776,392.578 254.488,392.578 253.609 C 392.578 253.153,392.754 252.672,392.969 252.539 C 393.184 252.406,393.359 251.791,393.359 251.172 C 393.359 250.553,393.535 249.937,393.750 249.805 C 393.965 249.672,394.141 248.871,394.141 248.024 C 394.141 247.177,394.299 246.484,394.492 246.484 C 394.685 246.484,394.938 245.737,395.055 244.824 C 395.253 243.274,395.528 241.783,396.515 236.914 C 398.685 226.210,399.164 219.541,399.167 200.000 C 399.170 182.594,398.826 176.599,397.299 167.383 C 396.937 165.195,396.757 164.250,395.683 158.887 C 395.458 157.759,395.175 156.176,395.056 155.369 C 394.937 154.562,394.682 153.804,394.490 153.685 C 394.298 153.567,394.141 152.875,394.141 152.148 C 394.141 151.422,393.965 150.719,393.750 150.586 C 393.535 150.453,393.359 149.750,393.359 149.023 C 393.359 148.297,393.184 147.594,392.969 147.461 C 392.754 147.328,392.578 146.713,392.578 146.094 C 392.578 145.475,392.402 144.859,392.188 144.727 C 391.973 144.594,391.797 143.979,391.797 143.359 C 391.797 142.740,391.621 142.125,391.406 141.992 C 391.191 141.859,391.016 141.234,391.016 140.602 C 391.016 139.970,390.840 139.453,390.625 139.453 C 390.410 139.453,390.234 138.926,390.234 138.281 C 390.234 137.637,390.059 137.109,389.844 137.109 C 389.629 137.109,389.453 136.582,389.453 135.938 C 389.453 135.293,389.277 134.766,389.063 134.766 C 388.848 134.766,388.672 134.361,388.672 133.867 C 388.672 133.373,388.532 132.802,388.361 132.598 C 388.190 132.394,387.827 131.523,387.554 130.664 C 387.281 129.805,386.894 128.706,386.693 128.223 C 386.492 127.739,386.152 126.904,385.938 126.367 C 384.982 123.977,384.652 123.199,384.329 122.564 C 384.140 122.191,383.984 121.620,383.984 121.294 C 383.984 120.969,383.809 120.703,383.594 120.703 C 383.379 120.703,383.203 120.472,383.203 120.191 C 383.203 119.681,382.295 117.574,380.841 114.709 C 380.421 113.883,380.078 112.960,380.078 112.658 C 380.078 112.356,379.902 112.109,379.688 112.109 C 379.473 112.109,379.297 111.758,379.297 111.328 C 379.297 110.898,379.121 110.547,378.906 110.547 C 378.691 110.547,378.516 110.210,378.516 109.798 C 378.516 109.386,378.384 108.991,378.223 108.919 C 377.962 108.803,375.929 105.160,374.829 102.835 C 374.601 102.353,374.282 101.958,374.121 101.956 C 373.960 101.954,373.828 101.616,373.828 101.204 C 373.828 100.793,373.696 100.397,373.535 100.326 C 373.168 100.163,371.900 98.082,371.610 97.168 C 371.491 96.792,371.238 96.484,371.048 96.484 C 370.858 96.484,370.703 96.302,370.703 96.079 C 370.703 95.856,369.648 94.105,368.359 92.187 C 367.070 90.270,366.016 88.534,366.016 88.329 C 366.016 88.124,365.872 87.897,365.696 87.826 C 365.520 87.754,364.610 86.553,363.674 85.156 C 362.738 83.760,361.863 82.529,361.729 82.422 C 361.595 82.314,361.063 81.611,360.547 80.859 C 360.030 80.107,359.503 79.404,359.375 79.297 C 359.247 79.189,358.719 78.486,358.203 77.734 C 357.686 76.982,356.990 76.104,356.655 75.781 C 356.320 75.459,355.553 74.532,354.949 73.722 C 354.346 72.911,353.469 71.853,353.001 71.372 C 352.532 70.890,351.445 69.622,350.586 68.555 C 349.727 67.487,345.947 63.525,342.188 59.748 C 335.879 53.412,333.685 51.337,330.061 48.273 C 329.318 47.646,328.089 46.591,327.328 45.930 C 326.567 45.268,325.350 44.287,324.623 43.750 C 323.896 43.213,322.409 42.059,321.318 41.186 C 320.228 40.313,318.457 39.006,317.383 38.282 C 316.309 37.558,315.342 36.851,315.234 36.711 C 314.951 36.341,306.710 30.859,306.437 30.859 C 306.311 30.859,305.206 30.186,303.982 29.364 C 302.759 28.542,301.494 27.755,301.172 27.615 C 300.850 27.476,299.707 26.834,298.633 26.189 C 297.559 25.545,295.713 24.538,294.531 23.953 C 293.350 23.367,292.295 22.789,292.188 22.667 C 291.835 22.267,279.972 16.709,277.051 15.576 C 276.567 15.388,275.732 15.059,275.195 14.844 C 274.658 14.629,273.779 14.277,273.242 14.063 C 270.852 13.107,270.074 12.777,269.439 12.454 C 269.066 12.265,268.492 12.109,268.164 12.109 C 267.836 12.109,267.218 11.934,266.792 11.719 C 266.365 11.504,265.666 11.152,265.240 10.938 C 264.813 10.723,264.195 10.547,263.867 10.547 C 263.539 10.547,262.965 10.388,262.592 10.194 C 262.219 10.000,261.123 9.632,260.156 9.375 C 259.189 9.118,258.093 8.750,257.720 8.556 C 257.347 8.362,256.610 8.203,256.083 8.203 C 255.556 8.203,255.016 8.027,254.883 7.813 C 254.750 7.598,254.135 7.422,253.516 7.422 C 252.896 7.422,252.281 7.246,252.148 7.031 C 252.016 6.816,251.313 6.641,250.586 6.641 C 249.859 6.641,249.156 6.465,249.023 6.250 C 248.891 6.035,248.188 5.859,247.461 5.859 C 246.734 5.859,246.031 5.684,245.898 5.469 C 245.766 5.254,244.999 5.078,244.196 5.078 C 243.392 5.078,242.567 4.920,242.363 4.728 C 242.159 4.535,241.289 4.278,240.430 4.157 C 239.570 4.036,237.812 3.748,236.523 3.518 C 229.385 2.241,225.773 1.755,219.336 1.204 C 214.390 0.780,185.511 0.779,180.273 1.202 M244.727 106.815 C 245.801 106.891,250.107 107.066,254.297 107.206 C 277.304 107.972,298.917 110.128,305.490 112.313 C 315.163 115.530,323.338 123.578,326.792 133.286 C 333.869 153.176,334.880 226.982,328.515 258.984 C 325.567 273.802,317.934 283.185,305.490 287.288 C 281.054 295.345,118.946 295.345,94.510 287.288 C 84.866 284.108,76.664 276.036,73.208 266.323 C 66.131 246.434,65.120 172.628,71.485 140.625 C 75.044 122.735,84.805 113.288,102.539 110.570 C 114.759 108.698,136.397 107.263,159.570 106.790 C 166.445 106.650,172.158 106.449,172.266 106.344 C 172.476 106.139,241.479 106.587,244.727 106.815 M173.047 199.805 L 173.047 238.729 175.098 237.571 C 180.536 234.501,195.623 225.948,203.320 221.573 C 208.047 218.885,213.936 215.545,216.406 214.150 C 218.877 212.754,222.480 210.700,224.414 209.585 C 226.348 208.470,231.017 205.816,234.791 203.686 L 241.652 199.813 235.182 196.154 C 231.623 194.141,226.953 191.484,224.805 190.249 C 222.656 189.013,218.877 186.860,216.406 185.463 C 213.936 184.066,208.047 180.724,203.320 178.037 C 195.623 173.661,180.536 165.108,175.098 162.038 L 173.047 160.880 173.047 199.805 " stroke="none" fill="#fc0404" fill-rule="evenodd"></path><path id="path2" d="M196.582 106.541 C 198.462 106.612,201.538 106.612,203.418 106.541 C 205.298 106.469,203.760 106.411,200.000 106.411 C 196.240 106.411,194.702 106.469,196.582 106.541 M169.050 106.924 C 169.752 107.011,170.807 107.009,171.394 106.920 C 171.981 106.831,171.406 106.759,170.117 106.762 C 168.828 106.764,168.348 106.837,169.050 106.924 M228.816 106.924 C 229.518 107.011,230.572 107.009,231.159 106.920 C 231.746 106.831,231.172 106.759,229.883 106.762 C 228.594 106.764,228.113 106.837,228.816 106.924 M154.590 107.307 C 155.073 107.400,155.864 107.400,156.348 107.307 C 156.831 107.214,156.436 107.138,155.469 107.138 C 154.502 107.138,154.106 107.214,154.590 107.307 M243.652 107.307 C 244.136 107.400,244.927 107.400,245.410 107.307 C 245.894 107.214,245.498 107.138,244.531 107.138 C 243.564 107.138,243.169 107.214,243.652 107.307 M144.238 107.691 C 144.614 107.789,145.229 107.789,145.605 107.691 C 145.981 107.593,145.674 107.513,144.922 107.513 C 144.170 107.513,143.862 107.593,144.238 107.691 M254.395 107.691 C 254.771 107.789,255.386 107.789,255.762 107.691 C 256.138 107.593,255.830 107.513,255.078 107.513 C 254.326 107.513,254.019 107.593,254.395 107.691 M121.582 108.863 C 121.958 108.961,122.573 108.961,122.949 108.863 C 123.325 108.765,123.018 108.684,122.266 108.684 C 121.514 108.684,121.206 108.765,121.582 108.863 M277.051 108.863 C 277.427 108.961,278.042 108.961,278.418 108.863 C 278.794 108.765,278.486 108.684,277.734 108.684 C 276.982 108.684,276.675 108.765,277.051 108.863 M172.844 199.805 C 172.844 221.074,172.891 229.718,172.949 219.013 C 173.007 208.308,173.007 190.906,172.949 180.341 C 172.891 169.777,172.844 178.535,172.844 199.805 M67.669 180.469 C 67.669 181.221,67.749 181.528,67.847 181.152 C 67.946 180.776,67.946 180.161,67.847 179.785 C 67.749 179.409,67.669 179.717,67.669 180.469 M332.122 180.469 C 332.122 181.221,332.202 181.528,332.301 181.152 C 332.399 180.776,332.399 180.161,332.301 179.785 C 332.202 179.409,332.122 179.717,332.122 180.469 M67.358 199.805 C 67.358 205.391,67.413 207.621,67.480 204.762 C 67.546 201.903,67.546 197.332,67.479 194.606 C 67.412 191.879,67.357 194.219,67.358 199.805 M332.592 199.805 C 332.592 205.391,332.647 207.621,332.714 204.762 C 332.781 201.903,332.781 197.332,332.714 194.606 C 332.647 191.879,332.592 194.219,332.592 199.805 M67.669 219.141 C 67.669 219.893,67.749 220.200,67.847 219.824 C 67.946 219.448,67.946 218.833,67.847 218.457 C 67.749 218.081,67.669 218.389,67.669 219.141 M332.122 219.141 C 332.122 219.893,332.202 220.200,332.301 219.824 C 332.399 219.448,332.399 218.833,332.301 218.457 C 332.202 218.081,332.122 218.389,332.122 219.141 M121.582 290.894 C 121.958 290.993,122.573 290.993,122.949 290.894 C 123.325 290.796,123.018 290.716,122.266 290.716 C 121.514 290.716,121.206 290.796,121.582 290.894 M277.051 290.894 C 277.427 290.993,278.042 290.993,278.418 290.894 C 278.794 290.796,278.486 290.716,277.734 290.716 C 276.982 290.716,276.675 290.796,277.051 290.894 M144.238 292.066 C 144.614 292.164,145.229 292.164,145.605 292.066 C 145.981 291.968,145.674 291.888,144.922 291.888 C 144.170 291.888,143.862 291.968,144.238 292.066 M254.395 292.066 C 254.771 292.164,255.386 292.164,255.762 292.066 C 256.138 291.968,255.830 291.888,255.078 291.888 C 254.326 291.888,254.019 291.968,254.395 292.066 M154.590 292.463 C 155.073 292.556,155.864 292.556,156.348 292.463 C 156.831 292.370,156.436 292.294,155.469 292.294 C 154.502 292.294,154.106 292.370,154.590 292.463 M243.652 292.463 C 244.136 292.556,244.927 292.556,245.410 292.463 C 245.894 292.370,245.498 292.294,244.531 292.294 C 243.564 292.294,243.169 292.370,243.652 292.463 M169.050 292.861 C 169.752 292.948,170.807 292.946,171.394 292.857 C 171.981 292.768,171.406 292.697,170.117 292.699 C 168.828 292.701,168.348 292.774,169.050 292.861 M228.816 292.861 C 229.518 292.948,230.572 292.946,231.159 292.857 C 231.746 292.768,231.172 292.697,229.883 292.699 C 228.594 292.701,228.113 292.774,228.816 292.861 M196.582 293.260 C 198.462 293.331,201.538 293.331,203.418 293.260 C 205.298 293.188,203.760 293.129,200.000 293.129 C 196.240 293.129,194.702 293.188,196.582 293.260 " stroke="none" fill="#fc8484" fill-rule="evenodd"></path><path id="path3" d="M186.246 106.540 C 187.597 106.616,189.706 106.615,190.933 106.538 C 192.160 106.461,191.055 106.398,188.477 106.399 C 185.898 106.400,184.895 106.463,186.246 106.540 M209.293 106.540 C 210.644 106.616,212.753 106.615,213.980 106.538 C 215.207 106.461,214.102 106.398,211.523 106.399 C 208.945 106.400,207.941 106.463,209.293 106.540 M164.551 106.920 C 165.142 107.010,166.108 107.010,166.699 106.920 C 167.290 106.831,166.807 106.758,165.625 106.758 C 164.443 106.758,163.960 106.831,164.551 106.920 M233.301 106.920 C 233.892 107.010,234.858 107.010,235.449 106.920 C 236.040 106.831,235.557 106.758,234.375 106.758 C 233.193 106.758,232.710 106.831,233.301 106.920 M67.294 188.281 C 67.294 189.248,67.370 189.644,67.463 189.160 C 67.556 188.677,67.556 187.886,67.463 187.402 C 67.370 186.919,67.294 187.314,67.294 188.281 M332.528 188.281 C 332.528 189.248,332.604 189.644,332.698 189.160 C 332.791 188.677,332.791 187.886,332.698 187.402 C 332.604 186.919,332.528 187.314,332.528 188.281 M67.294 211.328 C 67.294 212.295,67.370 212.690,67.463 212.207 C 67.556 211.724,67.556 210.933,67.463 210.449 C 67.370 209.966,67.294 210.361,67.294 211.328 M332.528 211.328 C 332.528 212.295,332.604 212.690,332.698 212.207 C 332.791 211.724,332.791 210.933,332.698 210.449 C 332.604 209.966,332.528 210.361,332.528 211.328 M164.551 292.858 C 165.142 292.947,166.108 292.947,166.699 292.858 C 167.290 292.768,166.807 292.695,165.625 292.695 C 164.443 292.695,163.960 292.768,164.551 292.858 M233.301 292.858 C 233.892 292.947,234.858 292.947,235.449 292.858 C 236.040 292.768,235.557 292.695,234.375 292.695 C 233.193 292.695,232.710 292.768,233.301 292.858 M186.035 293.257 C 187.271 293.335,189.292 293.335,190.527 293.257 C 191.763 293.180,190.752 293.116,188.281 293.116 C 185.811 293.116,184.800 293.180,186.035 293.257 M209.293 293.258 C 210.644 293.335,212.753 293.334,213.980 293.257 C 215.207 293.180,214.102 293.117,211.523 293.118 C 208.945 293.119,207.941 293.182,209.293 293.258 " stroke="none" fill="#fc5b5b" fill-rule="evenodd"></path><path id="path4" d="" stroke="none" fill="#fc7c7c" fill-rule="evenodd"></path><path id="path5" d="M161.041 106.921 C 161.634 107.011,162.513 107.008,162.994 106.916 C 163.474 106.823,162.988 106.749,161.914 106.752 C 160.840 106.755,160.447 106.831,161.041 106.921 M237.212 106.921 C 237.806 107.011,238.685 107.008,239.166 106.916 C 239.646 106.823,239.160 106.749,238.086 106.752 C 237.012 106.755,236.619 106.831,237.212 106.921 M161.041 292.858 C 161.634 292.948,162.513 292.946,162.994 292.853 C 163.474 292.760,162.988 292.687,161.914 292.690 C 160.840 292.693,160.447 292.769,161.041 292.858 M237.212 292.858 C 237.806 292.948,238.685 292.946,239.166 292.853 C 239.646 292.760,239.160 292.687,238.086 292.690 C 237.012 292.693,236.619 292.769,237.212 292.858 " stroke="none" fill="#fc2c2c" fill-rule="evenodd"></path><path id="path6" d="M149.316 107.301 C 149.692 107.399,150.308 107.399,150.684 107.301 C 151.060 107.202,150.752 107.122,150.000 107.122 C 149.248 107.122,148.940 107.202,149.316 107.301 M249.316 107.301 C 249.692 107.399,250.308 107.399,250.684 107.301 C 251.060 107.202,250.752 107.122,250.000 107.122 C 249.248 107.122,248.940 107.202,249.316 107.301 M149.316 292.457 C 149.692 292.555,150.308 292.555,150.684 292.457 C 151.060 292.359,150.752 292.278,150.000 292.278 C 149.248 292.278,148.940 292.359,149.316 292.457 M249.316 292.457 C 249.692 292.555,250.308 292.555,250.684 292.457 C 251.060 292.359,250.752 292.278,250.000 292.278 C 249.248 292.278,248.940 292.359,249.316 292.457 " stroke="none" fill="#fc3c3c" fill-rule="evenodd"></path><path id="path7" d="M178.809 106.536 C 179.722 106.618,181.216 106.618,182.129 106.536 C 183.042 106.454,182.295 106.386,180.469 106.386 C 178.643 106.386,177.896 106.454,178.809 106.536 M217.871 106.536 C 218.784 106.618,220.278 106.618,221.191 106.536 C 222.104 106.454,221.357 106.386,219.531 106.386 C 217.705 106.386,216.958 106.454,217.871 106.536 M157.715 106.916 C 158.198 107.009,158.989 107.009,159.473 106.916 C 159.956 106.823,159.561 106.747,158.594 106.747 C 157.627 106.747,157.231 106.823,157.715 106.916 M240.527 106.916 C 241.011 107.009,241.802 107.009,242.285 106.916 C 242.769 106.823,242.373 106.747,241.406 106.747 C 240.439 106.747,240.044 106.823,240.527 106.916 M157.715 292.854 C 158.198 292.947,158.989 292.947,159.473 292.854 C 159.956 292.761,159.561 292.685,158.594 292.685 C 157.627 292.685,157.231 292.761,157.715 292.854 M240.527 292.854 C 241.011 292.947,241.802 292.947,242.285 292.854 C 242.769 292.761,242.373 292.685,241.406 292.685 C 240.439 292.685,240.044 292.761,240.527 292.854 M178.809 293.255 C 179.722 293.337,181.216 293.337,182.129 293.255 C 183.042 293.173,182.295 293.105,180.469 293.105 C 178.643 293.105,177.896 293.173,178.809 293.255 M217.871 293.255 C 218.784 293.337,220.278 293.337,221.191 293.255 C 222.104 293.173,221.357 293.105,219.531 293.105 C 217.705 293.105,216.958 293.173,217.871 293.255 " stroke="none" fill="#fc1c1c" fill-rule="evenodd"></path><path id="path8" d="M173.331 106.532 C 174.025 106.618,175.255 106.620,176.066 106.535 C 176.876 106.451,176.309 106.380,174.805 106.378 C 173.301 106.376,172.638 106.446,173.331 106.532 M223.722 106.532 C 224.415 106.618,225.646 106.620,226.456 106.535 C 227.267 106.451,226.699 106.380,225.195 106.378 C 223.691 106.376,223.028 106.446,223.722 106.532 M67.286 182.617 C 67.290 183.477,67.370 183.782,67.464 183.296 C 67.557 182.810,67.554 182.107,67.456 181.734 C 67.358 181.360,67.282 181.758,67.286 182.617 M332.520 182.617 C 332.525 183.477,332.605 183.782,332.698 183.296 C 332.792 182.810,332.788 182.107,332.690 181.734 C 332.592 181.360,332.516 181.758,332.520 182.617 M67.286 216.992 C 67.290 217.852,67.370 218.157,67.464 217.671 C 67.557 217.185,67.554 216.482,67.456 216.109 C 67.358 215.735,67.282 216.133,67.286 216.992 M332.520 216.992 C 332.525 217.852,332.605 218.157,332.698 217.671 C 332.792 217.185,332.788 216.482,332.690 216.109 C 332.592 215.735,332.516 216.133,332.520 216.992 M173.331 293.251 C 174.025 293.337,175.255 293.338,176.066 293.254 C 176.876 293.169,176.309 293.099,174.805 293.097 C 173.301 293.095,172.638 293.164,173.331 293.251 M223.722 293.251 C 224.415 293.337,225.646 293.338,226.456 293.254 C 227.267 293.169,226.699 293.099,225.195 293.097 C 223.691 293.095,223.028 293.164,223.722 293.251 " stroke="none" fill="#fc1414" fill-rule="evenodd"></path></g></svg>