<?xml version="1.0" encoding="UTF-8"?>
<!DOCTYPE svg PUBLIC "-//W3C//DTD SVG 1.1//EN" "http://www.w3.org/Graphics/SVG/1.1/DTD/svg11.dtd">
<!-- Creator: CorelDRAW 2017 -->
<svg xmlns:xlink="http://www.w3.org/1999/xlink" xmlns="http://www.w3.org/2000/svg" xml:space="preserve" width="2.61587in" height="2.26667in" version="1.1"
style="shape-rendering:geometricPrecision; text-rendering:geometricPrecision; image-rendering:optimizeQuality; fill-rule:evenodd; clip-rule:evenodd"
 viewBox="0 0 91.59 79.36">
 <defs>
  <style type="text/css">
   <![CDATA[
    .fil0 {fill:#699BA6}
   ]]>
  </style>
 </defs>
 <g id="Layer_x0020_1">
  <metadata id="CorelCorpID_0Corel-Layer"/>
  <g id="_2178248637840">
   <path class="fil0" d="M33.54 43.74l25.31 0 0 33.54 -25.31 0 0 -33.54zm-29.48 21.38l27.4 0 0 12.16 -27.4 0 0 -12.16zm57 1.6l0 -1.6 26.29 0 0 12.16 -26.29 0 0 -10.57zm-57 -12.78l27.4 0 0 9.09 -27.4 0 0 -9.09zm57 1.6l0 -1.6 26.29 0 0 9.09 -26.29 0 -0.05 -6.61c-0.01,-0.16 -0.02,-0.31 -0.01,-0.39 0.01,-0.22 0.06,-0.13 0.06,-0.49zm-57 -11.79l27.4 0 0 8.11 -27.4 0 0 -8.11zm57 2.33l0 -2.33 26.29 0 0 8.11 -26.29 0 -0.05 -4.64c-0.06,-0.66 0.05,-0.85 0.05,-1.13zm-61.06 -3.56c0,1.4 0.77,1.23 1.97,1.23l0 34.52c0,0.66 0.61,1.11 1.23,1.11l85.14 0c0.48,0 1.11,-0.47 1.11,-0.86l0 -34.77c0.68,0 2.36,0.26 2.13,-1.17 -0.09,-0.56 -0.57,-0.92 -1.15,-0.92l-89.07 0c-0.59,0 -1.35,0.34 -1.35,0.86z"/>
   <path class="fil0" d="M66.09 19.41l21.25 0 0 7 -21.25 0 0 -7zm0 -8.11l21.25 0 0 5.9 -21.25 0 0 -5.9zm0 -9.21l21.25 0 0 7 -21.25 0 0 -7zm-2.09 -1.11l0 26.54c0,0.59 0.39,0.98 0.98,0.98l23.46 0c0.59,0 0.98,-0.39 0.98,-0.98l0 -26.54c0,-0.59 -0.39,-0.98 -0.98,-0.98l-23.46 0c-0.59,0 -0.98,0.39 -0.98,0.98z"/>
   <path class="fil0" d="M4.05 2.09l21.25 0 0 24.32 -21.25 0 0 -24.32zm-2.09 -1.11l0 26.54c0,0.45 0.34,0.98 0.74,0.98l23.71 0c0.59,0 0.98,-0.39 0.98,-0.98l0 -26.54c0,-0.59 -0.39,-0.98 -0.98,-0.98l-23.46 0c-0.59,0 -0.98,0.39 -0.98,0.98z"/>
   <path class="fil0" d="M42.63 13.88l0 -11.79 7.13 0 0 11.92c0,0.44 3.24,2.95 3.47,3.16l3.65 3.1 -21.74 0c0.33,-0.49 3.22,-2.74 3.72,-3.16 0.29,-0.23 3.77,-2.93 3.77,-3.23zm-6.76 -12.9c0,0.75 0.6,1.11 1.11,1.11l3.56 0 0 11.43c-0.51,0.14 -4.4,3.64 -4.76,3.96 -0.87,0.77 -4.57,3.64 -4.57,4.15 0,0.57 0.16,0.86 1.11,0.86l27.27 0c1.05,0 1.23,-0.34 1.23,-1.11 0,-0.47 -3.42,-3.14 -3.9,-3.59l-3.42 -2.97c-0.27,-0.21 -0.33,-0.32 -0.58,-0.53 -0.3,-0.26 -1.07,-0.71 -1.07,-1.14l0 -11.06c1.39,0 3.93,0.34 3.93,-0.98 0,-0.51 -0.41,-1.11 -0.86,-1.11l-18.06 0c-0.59,0 -0.98,0.39 -0.98,0.98z"/>
   <path class="fil0" d="M37.59 57.99l17.2 0 0 12.16 -17.2 0 0 -12.16zm-2.09 -0.98l0 14.25c0,0.59 0.39,0.98 0.98,0.98l19.41 0c0.59,0 0.98,-0.39 0.98,-0.98l0 -14.5c0,-0.39 -0.63,-0.86 -1.11,-0.86l-18.92 0c-0.77,0 -1.35,0.35 -1.35,1.11z"/>
   <path class="fil0" d="M31.57 24.2c0,0.64 0.15,1.23 0.98,1.23l26.66 0c0.94,0 1.5,-2.09 -0.49,-2.09l-25.8 0c-0.59,0 -1.35,0.34 -1.35,0.86z"/>
   <path class="fil0" d="M35.14 52.83c0,0.66 0.29,1.11 0.98,1.11l19.53 0c0.96,0 1.2,-2.09 -0.25,-2.09l-19.16 0c-0.59,0 -1.11,0.35 -1.11,0.98z"/>
   <path class="fil0" d="M70.52 47.67c0,0.73 0.45,1.23 1.11,1.23l4.3 0c2.03,0 1.35,-2.09 0.49,-2.09 -1.24,0 -5.06,-0.21 -5.55,0.23 -0.09,0.08 -0.35,0.46 -0.35,0.63z"/>
   <path class="fil0" d="M70.52 57c0,0.59 0.39,0.98 0.98,0.98l4.91 0c0.92,0 1.5,-2.09 -0.49,-2.09l-4.05 0c-0.77,0 -1.35,0.35 -1.35,1.11z"/>
   <path class="fil0" d="M70.52 68.18c0,0.59 0.39,0.98 0.98,0.98l4.91 0c0.92,0 1.5,-2.09 -0.49,-2.09l-4.05 0c-0.77,0 -1.35,0.35 -1.35,1.11z"/>
   <path class="fil0" d="M21.25 17.94l0 4.55c0,1.47 2.09,1.43 2.09,0.12l0 -4.67c0,-1.41 -2.09,-1.41 -2.09,0z"/>
   <path class="fil0" d="M15.11 57.99l4.91 0c1.39,0 1.29,-2.09 -0.12,-2.09l-4.42 0c-0.59,0 -1.06,0.36 -1.16,0.93 -0.09,0.48 0.35,1.16 0.79,1.16z"/>
   <path class="fil0" d="M15.11 69.17l4.91 0c1.39,0 1.29,-2.09 -0.12,-2.09l-4.42 0c-0.59,0 -1.06,0.36 -1.16,0.93 -0.09,0.48 0.35,1.16 0.79,1.16z"/>
   <path class="fil0" d="M15.48 48.9l4.42 0c1.44,0 1.48,-2.09 0.12,-2.09l-4.67 0c-1.46,0 -1.35,2.09 0.12,2.09z"/>
   <path class="fil0" d="M44.6 47.54c0,1.87 2.58,1.66 2.58,0.12 0,-1.87 -2.58,-1.67 -2.58,-0.12z"/>
   <path class="fil0" d="M35.01 47.54c0,1.71 2.58,1.89 2.58,0 0,-1.77 -2.58,-1.46 -2.58,0z"/>
   <path class="fil0" d="M39.8 47.54c0,1.8 2.58,1.79 2.58,0 0,-1.62 -2.58,-1.58 -2.58,0z"/>
   <path class="fil0" d="M49.39 47.3c0,2.01 1.59,1.71 2.06,1.32 1.37,-1.12 -0.36,-3.06 -1.64,-2.01 -0.15,0.12 -0.42,0.48 -0.42,0.69z"/>
   <path class="fil0" d="M54.18 47.42c0,0.78 0.23,1.47 1.23,1.47 1.68,0 1.68,-2.58 0,-2.58 -0.62,0 -1.23,0.44 -1.23,1.11z"/>
  </g>
 </g>
</svg>
