<?xml version="1.0" encoding="UTF-8"?>
<!DOCTYPE svg PUBLIC "-//W3C//DTD SVG 1.1//EN" "http://www.w3.org/Graphics/SVG/1.1/DTD/svg11.dtd">
<!-- Creator: CorelDRAW 2017 -->
<svg xmlns:xlink="http://www.w3.org/1999/xlink" xmlns="http://www.w3.org/2000/svg" xml:space="preserve" width="2.18507in" height="2.26667in" version="1.1"
style="shape-rendering:geometricPrecision; text-rendering:geometricPrecision; image-rendering:optimizeQuality; fill-rule:evenodd; clip-rule:evenodd"
 viewBox="0 0 59.17 61.37">
 <defs>
  <style type="text/css">
   <![CDATA[
    .fil0 {fill:#699BA6}
   ]]>
  </style>
 </defs>
 <g id="Layer_x0020_1">
  <metadata id="CorelCorpID_0Corel-Layer"/>
  <g id="_2178255570864">
   <path class="fil0" d="M25.32 49.07l8.52 0c0,0.58 1.25,7.73 1.44,8.89 0.06,0.34 0.18,0.92 0.21,1.28l-11.83 0c0.03,-0.36 0.14,-0.81 0.2,-1.22 0.19,-1.13 1.45,-8.37 1.45,-8.96zm-23.27 -4.02l0 -4.1 55.06 0 0 4.1c0,1.35 -1.18,1.97 -2.45,1.97l-50.17 0c-1.27,0 -2.45,-0.63 -2.45,-1.97zm0 -34.71c0.76,0.4 0.75,0.53 1.72,0.8 0.67,0.19 1.41,0.24 2.18,0.1 1.07,-0.19 2.91,-1.16 3.12,-1.93 0.49,0.13 1.38,2.01 4.18,2.01 0.9,0 1.75,-0.26 2.42,-0.61 0.3,-0.16 1.15,-0.79 1.33,-1.03 0.17,-0.23 0.13,-0.28 0.43,-0.36 0.13,0.49 1.15,1.16 1.59,1.4 0.64,0.35 1.4,0.58 2.36,0.59 1.3,0.02 2.33,-0.43 3.27,-1.16 0.25,-0.2 0.66,-0.53 0.74,-0.84 0.42,0.11 0.13,0.17 0.8,0.7 0.97,0.78 1.83,1.31 3.38,1.31 0.9,0 1.75,-0.26 2.42,-0.61 1.15,-0.62 1.38,-1.29 1.76,-1.4 0.13,0.49 1.15,1.16 1.59,1.4 3.03,1.65 6.15,-0.57 6.37,-1.4 0.49,0.13 1.38,2.01 4.18,2.01 1.4,0 2.39,-0.48 3.34,-1.27 0.67,-0.56 0.47,-0.64 0.84,-0.73 0.21,0.8 2.74,2.54 5.3,1.83 0.78,-0.22 1.11,-0.47 1.72,-0.8l0 28.48 -55.06 0 0 -28.48zm48.99 -4.18l0 -4.02 4.02 0c1.16,0 2.05,0.89 2.05,2.05 0,1.97 0.29,3.77 -1.79,4.76 -1.87,0.89 -4.29,-0.43 -4.29,-2.79zm-16.33 0l0 -4.02 6.07 0 0 4.1c0,0.84 -0.47,1.66 -0.88,2.11 -0.24,0.26 -0.55,0.43 -0.9,0.6 -1.18,0.56 -2.68,0.18 -3.4,-0.6 -0.46,-0.49 -0.88,-1.26 -0.88,-2.19zm-16.33 0l0 -4.02 6.07 0 0 4.1c0,0.84 -0.47,1.66 -0.88,2.11 -1.59,1.7 -5.19,0.83 -5.19,-2.19zm-16.33 0l0 -1.97c0,-1.16 0.89,-2.05 2.05,-2.05l4.02 0 0 4.1c0,0.84 -0.47,1.66 -0.88,2.11 -0.24,0.26 -0.55,0.43 -0.9,0.6 -1.87,0.89 -4.29,-0.43 -4.29,-2.79zm40.78 -0.79l0 -3.23 6.15 0c0,1.89 0.28,4.81 -0.73,5.98 -0.97,1.13 -2.39,1.41 -3.75,0.78 -0.35,-0.16 -0.46,-0.29 -0.73,-0.54l-0.12 -0.12c-0.04,-0.04 -0.08,-0.09 -0.11,-0.13 -0.56,-0.65 -0.73,-1.56 -0.73,-2.75zm-16.33 0l0 -3.23 6.15 0c0,1.89 0.28,4.81 -0.73,5.98 -0.04,0.04 -0.14,0.16 -0.19,0.21 -1.2,1.19 -3.09,1.13 -4.08,0.23l-0.44 -0.43c-0.56,-0.65 -0.73,-1.56 -0.73,-2.75zm-16.33 0l0 -3.23 6.15 0c0,1.89 0.28,4.81 -0.73,5.98 -1.22,1.42 -3.24,1.37 -4.27,0.43 -0.94,-0.86 -1.16,-1.58 -1.16,-3.18zm-10.18 -1.5l0 41.49c0,0.95 0.54,1.76 0.99,2.32 0.45,0.58 1.39,1.12 2.11,1.29 1.11,0.27 5.18,0.1 6.69,0.1 4.5,0 8.99,0 13.49,0 -0.16,0.33 -1.43,8.88 -1.74,10.18 -1.05,0 -2.32,-0.2 -2.86,0.29 -0.78,0.71 -0.23,1.84 1.05,1.84l19.72 0c1.36,0 1.65,-1.12 1.17,-1.72 -0.31,-0.38 -0.58,-0.42 -1.24,-0.41 -0.58,0 -1.16,0 -1.74,0 -0.31,-1.31 -1.58,-9.84 -1.74,-10.18 4.5,0 8.99,0 13.49,0 1.51,0 5.5,0.17 6.62,-0.08 1.68,-0.38 3.16,-2.07 3.16,-3.63l0 -41.49c0,-1.16 -0.76,-2.32 -1.41,-2.85 -0.87,-0.7 -1.78,-1.01 -3.33,-1.01l-49.7 0c-1.52,0 -2.4,0.29 -3.28,0.98 -0.69,0.54 -1.45,1.7 -1.45,2.89z"/>
   <path class="fil0" d="M6.15 27.69l6.07 0 0 6 -6.07 0 0 -6zm-2.13 -0.95l0 7.89c0,0.67 0.43,1.18 1.1,1.18l8.2 0c0.47,0 0.95,-0.47 0.95,-0.95l0 -8.36c0,-0.47 -0.47,-0.95 -0.95,-0.95l-8.28 0c-0.57,0 -1.03,0.57 -1.03,1.18z"/>
   <path class="fil0" d="M6.15 15.38l6.07 0 0 6.07 -6.07 0 0 -6.07zm-2.13 -0.79l0 7.81c0,0.7 0.48,1.18 1.18,1.18l7.97 0c0.59,0 1.1,-0.38 1.1,-0.95l0 -8.28c0,-0.66 -0.51,-1.03 -0.95,-1.03l-8.36 0c-0.58,0 -0.95,0.56 -0.95,1.26z"/>
   <path class="fil0" d="M30.61 15.38l6.07 0 0 6.07 -6.07 0 0 -6.07zm-2.05 -1.1l0 8.36c0,0.56 0.51,0.95 1.1,0.95l7.97 0c0.7,0 1.18,-0.48 1.18,-1.18l0 -7.81c0,-0.7 -0.36,-1.26 -0.95,-1.26l-8.36 0c-0.47,0 -0.95,0.47 -0.95,0.95z"/>
   <path class="fil0" d="M18.38 27.69l6.07 0 0 6 -6.07 0 0 -6zm-2.05 -1.26l0 8.52c0,0.44 0.52,0.87 0.95,0.87l8.28 0c0.43,0 0.95,-0.42 0.95,-0.87l0 -8.52c0,-0.44 -0.52,-0.87 -0.95,-0.87l-8.28 0c-0.43,0 -0.95,0.42 -0.95,0.87z"/>
   <path class="fil0" d="M18.38 15.38l6.07 0 0 6.07 -6.07 0 0 -6.07zm-2.05 -1.18l0 8.44c0,0.56 0.51,0.95 1.1,0.95l7.97 0c0.59,0 1.1,-0.38 1.1,-0.95l0 -8.44c0,-0.4 -0.47,-0.87 -0.87,-0.87l-8.44 0c-0.4,0 -0.87,0.47 -0.87,0.87z"/>
   <path class="fil0" d="M47.73 29.66l-0.47 -1.97c-0.12,-0.48 -0.46,-1.59 -0.47,-2.05l6.07 0c-0.1,0.44 -0.62,3.82 -0.67,3.9 -0.11,0.18 -0.14,0.13 -0.42,0.13 -0.18,0 -0.38,-0.01 -0.56,-0.01l-3.47 -0zm-5.92 -6.07l2.29 0c0.04,0.47 1.83,7.4 1.9,7.56 0.12,0.26 0.46,0.56 0.86,0.56l6.23 0c0.31,0 0.62,-0.23 0.77,-0.41 0.33,-0.4 0.55,-2.37 0.64,-2.91 0.12,-0.7 0.22,-1.33 0.34,-2.03 0.52,-3.14 0.58,-2.85 -3.8,-2.85 -1.6,0 -3.21,0 -4.81,0 -0.32,-0.66 -0.09,-2.05 -1.5,-2.05l-2.92 0 0 2.13z"/>
   <path class="fil0" d="M28.56 26.51l0 8.36c0,0.47 0.47,0.95 0.95,0.95l4.18 0 0 -1.89c0,-0.18 -0.05,-0.24 -0.24,-0.24l-2.84 0 0 -6 6.07 0c0,1.3 -0.34,1.03 1.89,1.03 0.41,0 0.24,-0.84 0.24,-1.97 0,-0.61 -0.46,-1.18 -1.03,-1.18l-8.28 0c-0.47,0 -0.95,0.47 -0.95,0.95z"/>
   <path class="fil0" d="M48.99 17.51l0 -2.13 1.97 0c0,0.58 -0.06,1.9 0.09,2.35 0.09,0.26 0.15,0.23 0.22,0.49 -0.42,0.28 -0.84,0.66 -1.26,0.95 -0.44,-0.29 -0.89,-0.71 -1.34,-0.95 0.12,-0.23 0.32,-0.41 0.32,-0.71zm-2.05 -3.31l0 2.21c-0.9,0 -2.05,-0.22 -2.05,1.1 0,0.73 1.71,1.72 2.32,2.18 3.23,2.42 2.32,2.45 5.56,0.02 0.45,-0.34 0.84,-0.63 1.31,-0.98 0.69,-0.51 1.47,-1.06 0.81,-1.98 -0.34,-0.47 -1.09,-0.34 -1.79,-0.34 0,-3.68 0.5,-3.08 -5.21,-3.08 -0.43,0 -0.95,0.42 -0.95,0.87z"/>
   <path class="fil0" d="M35.66 31.87l0 3.94 2.13 0 0 -1.5 1.75 1.64c0.22,0.21 0.37,0.41 0.61,0.57 0.19,-0.28 0.44,-0.48 0.69,-0.73 0.24,-0.24 0.56,-0.43 0.65,-0.77l-2.23 -2.27 1.6 -0.02 0 -2.05 -4.26 0c-0.56,0 -0.95,0.6 -0.95,1.18z"/>
   <polygon class="fil0" points="50.96,35.81 53.09,35.81 53.09,33.76 50.96,33.76 "/>
   <polygon class="fil0" points="45.91,35.81 47.96,35.81 47.96,33.76 45.91,33.76 "/>
  </g>
 </g>
</svg>
