<?xml version="1.0" encoding="UTF-8"?>
<!DOCTYPE svg PUBLIC "-//W3C//DTD SVG 1.1//EN" "http://www.w3.org/Graphics/SVG/1.1/DTD/svg11.dtd">
<!-- Creator: CorelDRAW 2017 -->
<svg xmlns:xlink="http://www.w3.org/1999/xlink" xmlns="http://www.w3.org/2000/svg" xml:space="preserve" width="2.26824in" height="2.26667in" version="1.1"
style="shape-rendering:geometricPrecision; text-rendering:geometricPrecision; image-rendering:optimizeQuality; fill-rule:evenodd; clip-rule:evenodd"
 viewBox="0 0 68.35 68.3">
 <defs>
  <style type="text/css">
   <![CDATA[
    .fil0 {fill:#699BA6}
   ]]>
  </style>
 </defs>
 <g id="Layer_x0020_1">
  <metadata id="CorelCorpID_0Corel-Layer"/>
  <g id="_2178410187152">
   <path class="fil0" d="M25.26 65.53l0 -19.56c0.21,-0.06 0.72,-0.35 0.92,-0.48l2.35 -1.28c0.22,-0.12 0.25,-0.16 0.47,-0.28l1.87 -1.02c0.4,-0.21 1.58,-0.92 1.9,-0.99 0,1.23 -0.19,5.66 0.14,6.38 0.16,0.36 0.52,0.65 1,0.61 0.37,-0.03 1.29,-0.55 1.69,-0.78l3.67 -2.02c0.35,-0.21 0.77,-0.34 1.03,-0.62 0.34,-0.37 0.31,-0.67 0.31,-1.35 -0.01,-2.2 -0,-4.4 -0,-6.6 0.38,-0.09 5.21,-2.83 5.94,-3.22l0 19.89c-0.42,0.1 -0.98,0.46 -1.32,0.66 -0.21,0.12 -0.44,0.23 -0.66,0.33 -2.24,1.11 -4.99,2.74 -7.32,3.91l-11.99 6.41zm-23.19 -31.53l18.49 10.4c0.89,0.48 1.75,1.01 2.64,1.49l0 19.4 -14.51 -9.1c-0.46,-0.29 -0.86,-0.54 -1.32,-0.83l-3.96 -2.48c-0.46,-0.3 -0.86,-0.56 -1.34,-0.81l0 -18.08zm8.17 -5.53c0.79,0.53 9.53,5.16 11.28,6.13 0.26,0.14 0.46,0.22 0.71,0.36l9.38 5.06c-0.19,0.26 -0.56,0.35 -0.88,0.52l-3.69 2.01c-0.36,0.18 -0.61,0.35 -0.96,0.52 -0.44,0.22 -1.56,0.91 -1.9,0.99l-13.01 -7.37c-0.45,-0.24 -0.86,-0.48 -1.31,-0.75 -0.46,-0.28 -0.85,-0.47 -1.32,-0.74l-4.53 -2.57c-0.2,-0.12 -0.51,-0.31 -0.71,-0.37 0.22,-0.3 5.01,-2.71 6.03,-3.3 0.27,-0.16 0.67,-0.29 0.9,-0.5zm28.23 9.08l0 6.6c-0.29,0.07 -0.57,0.29 -0.88,0.44l-2.67 1.46c0,-1.71 -0,-3.41 0,-5.12 0,-2.21 -0.21,-1.67 -3.08,-3.28l-9.99 -5.36c-0.35,-0.17 -0.53,-0.28 -0.85,-0.47l-8.36 -4.43c0.17,-0.23 1.22,-0.78 1.54,-0.94l1.59 -0.89c0.41,-0.22 0.44,-0.15 0.86,0.06 2.78,1.44 6.21,3.51 8.91,4.87l3.19 1.76c0.53,0.28 1.07,0.55 1.6,0.87l6.46 3.53c0.33,0.17 0.49,0.28 0.8,0.44 0.27,0.14 0.63,0.38 0.88,0.44zm6.93 -4.87c-0.46,0.11 -4.32,2.33 -5.12,2.72 -0.29,0.14 -0.49,0.24 -0.74,0.41l-0.61 -0.38c-2.08,-1.24 -5.2,-2.73 -7.26,-3.96 -0.46,-0.28 -0.86,-0.47 -1.34,-0.72l-3.94 -2.17c-1.42,-0.85 -3.8,-2 -5.28,-2.89l-2.69 -1.44c0.17,-0.24 0.48,-0.32 0.77,-0.47 0.78,-0.39 4.81,-2.72 5.07,-2.7l14.4 7.84c1.5,0.81 4.62,2.44 5.93,3.23 0.27,0.17 0.63,0.27 0.81,0.51zm-45.39 -0.58l0 20.55c0,0.68 0.67,0.87 1.19,1.2l10.48 6.6c0.52,0.34 0.95,0.6 1.47,0.93l10.48 6.6c0.98,0.61 1.11,0.23 2.49,-0.45l7.17 -3.81c0.5,-0.31 1.06,-0.55 1.56,-0.84l4.81 -2.53c0.31,-0.16 0.43,-0.26 0.74,-0.41 0.3,-0.15 0.54,-0.25 0.83,-0.41l6.36 -3.38c0.58,-0.29 1.13,-0.51 1.13,-1.35l0 -22.04c0,-0.89 -0.72,-1.19 -1.76,-1.71 -2,-0.99 -4.97,-2.82 -6.93,-3.8 -0.53,-0.26 -1.06,-0.57 -1.55,-0.85l-2.3 -1.25c-0.26,-0.15 -0.47,-0.27 -0.75,-0.41l-7.73 -4.24c-0.87,-0.43 -2.27,-1.33 -3.11,-1.68 -0.46,-0.19 -0.99,0.15 -1.58,0.5l-10.07 5.36c-0.3,0.18 -0.48,0.27 -0.81,0.43l-4.65 2.45c-0.58,0.29 -1,0.54 -1.57,0.83l-2.34 1.21c-0.29,0.15 -0.47,0.28 -0.8,0.44 -0.58,0.29 -0.99,0.54 -1.57,0.83 -0.49,0.25 -1.18,0.52 -1.18,1.21z"/>
   <path class="fil0" d="M58.11 30.13c-0.3,-0.22 -1.03,-1.71 -1.3,-2.16 -0.22,-0.36 -0.41,-0.73 -0.62,-1.11 -1.13,-2.02 -2.22,-4.34 -3.22,-6.44 -0.11,-0.24 -0.16,-0.4 -0.27,-0.63 -0.2,-0.41 -0.36,-0.8 -0.52,-1.21 -1.62,-4.09 -3.6,-8.78 -0.86,-12.91 1.28,-1.93 3.65,-3.42 5.98,-3.52 0.4,-0.02 0.52,-0.08 0.82,-0.08 0.65,0 1.8,0.23 2.41,0.4 3.83,1.06 6.3,5.17 5.61,9.19 -0.52,3.03 -2.07,7 -3.45,9.75 -0.64,1.27 -1.15,2.49 -1.87,3.82l-2.7 4.9zm-10.32 -20.22c0,2.55 0.77,4.95 1.43,6.9 0.32,0.93 1.35,3.55 1.81,4.46 0.87,1.72 1.39,3 2.42,4.92 0.14,0.26 0.24,0.48 0.36,0.72l0.76 1.39c0.58,0.95 2.17,3.91 2.7,4.64 0.17,0.24 0.35,0.32 0.75,0.32 0.96,0 1.22,-0.89 1.91,-2.05l2.16 -3.87c0.14,-0.28 0.22,-0.37 0.36,-0.63 1.67,-3.1 5.89,-11.95 5.89,-15.32 0,-2.71 0.16,-3.42 -1.13,-5.97 -1.52,-3 -5.21,-5.42 -8.61,-5.42 -2.81,0 -4.3,0.43 -6.47,1.86l-1.35 1.13c-1.67,1.68 -2.99,4.38 -2.99,6.91z"/>
   <path class="fil0" d="M41.68 5.94l-30.54 0c-1.25,0 -3.47,-0.33 -3.47,0.91l0 16.18c0,1.16 2.06,1.22 2.06,0l0 -14.94 32.02 0c-0.24,0.36 -0.8,0.84 -1.13,1.18l-2.39 2.39c-0.59,0.59 -1.5,1.28 -0.67,2.11 0.96,0.96 1.89,-0.37 2.73,-1.2l4.78 -4.8c0.01,-0.01 0.03,-0.03 0.04,-0.05l0.07 -0.1c0.61,-0.95 -0.23,-1.42 -1.33,-2.53l-4.37 -4.37c-0.45,-0.45 -0.59,-0.72 -1.26,-0.72 -0.76,0 -1.21,0.93 -0.78,1.61 0.23,0.36 1.07,1.12 1.42,1.47l2.83 2.87z"/>
   <path class="fil0" d="M54.23 43.08c0,0.47 0.57,1.07 0.99,1.07 0.71,0 1.92,-1.46 2.62,-2.17l2.41 -2.37 0 24.76 -17.99 0c-1.16,0 -1.58,2.15 0.33,2.15l18.41 0c1.35,0 1.41,-0.75 1.4,-2.06l-0 -24.76c0.99,0.66 4.02,4.46 4.87,4.46 0.63,0 1.07,-0.45 1.07,-1.16 0,-0.55 -1.03,-1.41 -1.55,-1.92l-4.37 -4.37c-1.32,-1.32 -1.53,-0.74 -3.1,0.83l-3.55 3.55c-0.43,0.43 -1.55,1.3 -1.55,2z"/>
   <path class="fil0" d="M54.47 10.07c0,-2.83 3.44,-4.96 6.05,-2.66 2.38,2.1 0.74,6.21 -2.17,6.21 -1.07,0 -1.54,-0.04 -2.39,-0.66 -0.11,-0.08 -0.12,-0.08 -0.23,-0.18l-0.17 -0.16c-0.01,-0.01 -0.03,-0.03 -0.04,-0.04 -0.54,-0.54 -1.04,-1.47 -1.04,-2.51zm3.38 5.69c1.04,0 1.76,-0.13 2.59,-0.55 4.62,-2.33 4.1,-7.89 0.68,-9.98 -2.32,-1.42 -5.09,-1.15 -7,0.77 -0.94,0.94 -1.66,2.1 -1.72,3.57 -0,0.11 -0.02,0.35 -0.02,0.42 -0.02,1.42 0.43,2.51 1.23,3.57 0.33,0.44 0.67,0.73 1.1,1.05 0.71,0.52 1.95,1.14 3.15,1.14z"/>
   <path class="fil0" d="M4.79 43.08c0,0.85 1.56,1.51 2.39,1.98l2.81 1.64c1.05,0.61 9.08,5.37 9.49,5.37 0.78,0 1.76,-1.34 0.41,-2.14l-2.04 -1.18c-0.36,-0.22 -0.67,-0.4 -1.04,-0.61l-3.03 -1.76c-1.59,-0.86 -3.54,-2.12 -5.12,-2.97l-2.04 -1.18c-0.46,-0.26 -0.69,-0.38 -1.19,-0.14 -0.34,0.16 -0.66,0.53 -0.66,1z"/>
   <path class="fil0" d="M4.7 48.2c0,0.8 1.5,1.46 2.4,1.98 2.09,1.2 4.45,2.64 6.49,3.75 0.9,0.49 5.23,3.19 5.72,3.19 0.89,0 1.76,-1.12 0.55,-1.95 -1.14,-0.78 -5.76,-3.38 -7.17,-4.22l-6.12 -3.61c-0.85,-0.51 -1.87,-0.15 -1.87,0.88z"/>
  </g>
 </g>
</svg>
