<?xml version="1.0" encoding="UTF-8"?>
<!DOCTYPE svg PUBLIC "-//W3C//DTD SVG 1.1//EN" "http://www.w3.org/Graphics/SVG/1.1/DTD/svg11.dtd">
<!-- Creator: CorelDRAW 2017 -->
<svg xmlns:xlink="http://www.w3.org/1999/xlink" xmlns="http://www.w3.org/2000/svg" xml:space="preserve" width="14.25in" height="2.5in" version="1.1"
style="shape-rendering:geometricPrecision; text-rendering:geometricPrecision; image-rendering:optimizeQuality; fill-rule:evenodd; clip-rule:evenodd"
 viewBox="0 0 4179.79 733.29">
 <defs>
  <style type="text/css">
   <![CDATA[
    .fil3 {fill:#060809}
    .fil4 {fill:#0FA0EA}
    .fil1 {fill:#FEB101}
    .fil0 {fill:#FEFEFE}
    .fil5 {fill:#232B39;fill-rule:nonzero}
    .fil2 {fill:#FEFEFE;fill-rule:nonzero}
   ]]>
  </style>
 </defs>
 <g id="Layer_x0020_1">
  <metadata id="CorelCorpID_0Corel-Layer"/>
  <polygon class="fil0" points="-0,0 4179.79,0 4179.79,733.29 -0,733.29 "/>
  <path class="fil1" d="M3590.92 536.6l498.58 0c11.61,0 21.11,9.5 21.11,21.11l0 85.8c0,11.61 -9.5,21.11 -21.11,21.11l-498.58 0c-11.61,0 -21.11,-9.5 -21.11,-21.11l0 -85.8c0,-11.61 9.5,-21.11 21.11,-21.11z"/>
  <path class="fil2" d="M3685.25 622.76l27.11 0 0 -7.69 -18.3 0 0 -37.3 -8.8 0 0 44.99zm30.53 -16c0,11.25 5.31,16.7 15.16,16.7 4.19,0 8.1,-0.98 11.46,-2.38l-2.31 -6.71c-2.44,0.84 -5.87,1.82 -8.87,1.82 -4.26,0 -6.5,-2.03 -6.99,-6.57l18.09 0c0.35,-1.61 0.49,-3.91 0.49,-5.52 0,-9.22 -4.68,-14.32 -12.99,-14.32 -9.08,0 -14.04,6.08 -14.04,16.98zm8.45 -3.56c0.35,-3.77 1.82,-6.15 5.38,-6.15 3.35,0 4.89,2.09 5.03,6.15l-10.41 0zm23.12 10.06c0,6.64 5.03,10.2 11.04,10.2 4.05,0 7.13,-1.68 8.94,-3.14l0.84 2.45 5.87 0 0 -21.52c0,-7.75 -4.75,-11.46 -13.34,-11.46 -3.98,0 -7.89,0.77 -10.9,1.4l1.33 6.99c2.52,-0.56 6.29,-1.12 8.87,-1.12 4.33,0 5.8,1.54 5.8,5.17l0 1.12c-1.68,-0.21 -3.07,-0.35 -4.82,-0.35 -8.8,0 -13.62,3.7 -13.62,10.27l0 0zm8.38 -0.35c0,-2.72 2.03,-4.05 5.52,-4.05 1.12,0 3.07,0.14 4.54,0.28l0 5.8c-1.26,0.91 -3.42,1.88 -5.66,1.88 -2.65,0 -4.4,-1.4 -4.4,-3.91l0 0zm26.69 9.85l8.24 0 0 -22.7c1.82,-1.75 3.98,-2.65 7.48,-2.65 0.98,0 2.09,0.07 3.49,0.28l0.56 -7.55c-1.12,-0.21 -2.65,-0.35 -3.77,-0.35 -3.56,0 -6.57,1.4 -9.22,4.33l-0.91 -3.63 -5.87 0 0 32.28zm24.52 0l8.24 0 0 -24.17c1.54,-0.77 3.77,-1.54 5.94,-1.54 3.42,0 4.68,1.82 4.68,4.96l0 20.75 8.24 0 0 -21.8c0,-6.29 -3.14,-11.18 -10.76,-11.18 -3.56,0 -6.99,1.12 -9.78,3.07l-0.7 -2.38 -5.87 0 0 32.28zm52.96 0l8.24 0 0 -24.24c1.4,-0.77 3.42,-1.47 5.24,-1.47 3.07,0 4.47,1.96 4.47,5.17l0 20.54 8.24 0 0 -21.52c0,-0.91 -0.07,-1.75 -0.21,-2.58 1.82,-1.05 3.7,-1.61 5.45,-1.61 3.07,0 4.47,1.96 4.47,5.17l0 20.54 8.24 0 0 -21.52c0,-6.64 -3.42,-11.46 -10.55,-11.46 -4.12,0 -7.06,1.47 -9.92,3.42 -1.75,-2.17 -4.4,-3.42 -8.03,-3.42 -4.26,0 -7.2,1.68 -9.08,3l-0.7 -2.3 -5.87 0 0 32.28zm50.37 -16.14c0,10.34 3.91,16.84 14.74,16.84 10.83,0 14.74,-6.5 14.74,-16.84 0,-10.34 -3.91,-16.84 -14.74,-16.84 -10.83,0 -14.74,6.5 -14.74,16.84zm8.38 0c0,-5.31 0.7,-9.57 6.36,-9.57 5.66,0 6.36,4.26 6.36,9.57 0,5.31 -0.7,9.57 -6.36,9.57 -5.66,0 -6.36,-4.26 -6.36,-9.57zm27.67 16.14l8.24 0 0 -22.7c1.82,-1.75 3.98,-2.65 7.47,-2.65 0.98,0 2.1,0.07 3.49,0.28l0.56 -7.55c-1.12,-0.21 -2.65,-0.35 -3.77,-0.35 -3.56,0 -6.57,1.4 -9.22,4.33l-0.91 -3.63 -5.87 0 0 32.28zm21.8 -16c0,11.25 5.31,16.7 15.16,16.7 4.19,0 8.1,-0.98 11.46,-2.38l-2.31 -6.71c-2.44,0.84 -5.87,1.82 -8.87,1.82 -4.26,0 -6.5,-2.03 -6.99,-6.57l18.09 0c0.35,-1.61 0.49,-3.91 0.49,-5.52 0,-9.22 -4.68,-14.32 -12.99,-14.32 -9.08,0 -14.04,6.08 -14.04,16.98zm8.45 -3.56c0.35,-3.77 1.82,-6.15 5.38,-6.15 3.35,0 4.89,2.09 5.03,6.15l-10.41 0z"/>
  <g id="_2526034083568">
   <g>
    <path id="Fill-1" class="fil3" d="M162.46 513.74c-11.16,0 -16.72,-5.48 -16.72,-14.54 0,-16.76 18.76,-22.5 53,-26.12 0,22.42 -15.16,40.66 -36.28,40.66l0 0zm14.76 -126.23c-24.46,0 -52.62,11.54 -67.91,23.72l13.96 29.38c12.26,-11.22 32.08,-20.8 49.96,-20.8 16.98,0 26.36,5.68 26.36,17.1 0,7.72 -6.22,11.6 -17.98,13.12 -43.88,5.72 -78.33,17.82 -78.33,51.66 0,26.82 19.1,43.06 48.94,43.06 21.28,0 40.24,-11.84 49.26,-27.46l0 23.08 39.68 0 0 -96.71c0,-39.94 -27.76,-56.16 -63.97,-56.16z"/>
   </g>
   <path id="Fill-4" class="fil3" d="M575.74 391.88l0 148.51 42.48 0 0 -71.55c0,-34.02 20.58,-44 34.94,-44 5.6,0 13.16,1.62 18.16,5.36l7.74 -39.26c-6.56,-2.8 -13.42,-3.42 -19.04,-3.42 -21.84,0 -35.56,9.68 -44.62,29.32l0 -24.96 -39.66 0z"/>
   <path id="Fill-6" class="fil3" d="M875.98 387.52c-22.46,0 -39.24,13.28 -47.98,26.08 -8.12,-16.54 -25.32,-26.08 -45.9,-26.08 -22.46,0 -38,12.48 -45.18,26.82l0 -22.46 -40.94 0 0 148.51 42.5 0 0 -76.45c0,-27.46 14.36,-40.6 27.78,-40.6 12.14,0 23.3,7.86 23.3,28.12l0 88.93 42.44 0 0 -76.45c0,-27.76 14.04,-40.6 28.08,-40.6 11.22,0 23.06,8.16 23.06,27.82l0 89.23 42.44 0 0 -102.65c0,-33.38 -22.46,-50.22 -49.6,-50.22z"/>
   <path id="Fill-8" class="fil3" d="M472.34 391.88l-38.48 0 0 -15.1c0,-19.64 11.22,-25.26 20.9,-25.26 10.68,0 19,4.74 19,4.74l13.1 -29.94c0,0 -13.28,-8.68 -37.42,-8.68 -27.14,0 -58.02,15.3 -58.02,63.33l0 10.92 -64.42 0 0 -15.1c0,-19.64 11.22,-25.26 20.88,-25.26 5.5,0 12.9,1.28 19.02,4.74l13.1 -29.94c-7.82,-4.6 -20.38,-8.68 -37.42,-8.68 -27.14,0 -58.02,15.3 -58.02,63.33l0 10.92 -24.64 0 0 32.76 24.64 0 0 115.75 42.44 0 0 -115.75 64.42 0 0 115.75 42.44 0 0 -115.75 38.48 0 0 -32.76z"/>
   <polygon id="Fill-10" class="fil3" points="497.68,540.39 540.08,540.39 540.08,391.88 497.68,391.88 "/>
   <path id="Fill-12" class="fil4" d="M745.06 184.73c-114.65,0 -216.83,79.59 -245.84,181.91l41.56 0c24.22,-76.2 106.45,-143.09 204.28,-143.09 118.91,0 221.68,90.53 221.68,231.46 0,31.64 -4.1,60.16 -11.86,85.37l40.32 0 0.4 -1.38c6.6,-26 9.96,-54.24 9.96,-83.99 0,-157.17 -114.53,-270.28 -260.5,-270.28z"/>
  </g>
  <path class="fil5" d="M1216.67 375.19c12.75,1.85 30.23,3.08 41.74,3.08 33.31,0 53.26,-10.69 53.26,-39.69 0,-17.07 -6.79,-26.94 -21.8,-31.67l0 -0.82c11.1,-4.11 18.71,-12.75 18.71,-28.38 0,-25.7 -20.36,-35.98 -50.38,-35.98 -11.93,0 -28.99,1.64 -41.54,3.5l0 129.96zm25.91 -76.91l0 -33.11c5.96,-0.62 11.31,-0.82 15.42,-0.82 14.81,0 24.26,2.67 24.26,17.07 0,12.54 -6.99,16.86 -19.95,16.86l-19.74 0zm0 56.75l0 -36.19 20.77 0c14.19,0 22,4.93 22,18.51 0,15.63 -10.28,18.51 -26.53,18.51 -4.32,0 -9.87,-0.21 -16.24,-0.82zm89.45 -9.66c0,18.51 9.25,32.9 31.67,32.9 10.49,0 20.77,-3.29 28.79,-9.05l2.06 6.99 17.27 0 0 -95 -24.26 0 0 71.15c-4.52,2.26 -11.1,4.52 -17.48,4.52 -10.08,0 -13.78,-5.35 -13.78,-14.6l0 -61.07 -24.26 0 0 64.16zm124.2 30.84l9.87 0c-4.73,13.37 -9.25,25.91 -13.78,37.42l23.85 0c14.6,-37.01 30.23,-86.36 42.56,-132.43l-23.85 0c-6.58,24.26 -13.98,49.35 -21.59,72.79l-0.82 0c-6.79,-21.18 -13.78,-48.94 -18.92,-72.79l-24.26 0c6.79,31.05 18.51,74.23 26.94,95zm131.6 0l24.26 0 0 -71.15c4.52,-2.26 11.1,-4.52 17.48,-4.52 10.08,0 13.78,5.35 13.78,14.6l0 61.07 24.26 0 0 -64.16c0,-18.51 -9.25,-32.9 -31.67,-32.9 -10.49,0 -20.56,3.29 -28.79,9.05l-2.06 -6.99 -17.27 0 0 95zm98.08 -47.5c0,30.43 11.52,49.56 43.39,49.56 31.87,0 43.39,-19.12 43.39,-49.56 0,-30.43 -11.52,-49.56 -43.39,-49.56 -31.87,0 -43.39,19.12 -43.39,49.56zm24.68 0c0,-15.63 2.06,-28.17 18.71,-28.17 16.65,0 18.71,12.54 18.71,28.17 0,15.63 -2.06,28.17 -18.71,28.17 -16.66,0 -18.71,-12.54 -18.71,-28.17zm92.74 47.5l31.67 0c4.73,-21.59 9.46,-48.32 13.37,-73.62l0.82 0c3.91,25.29 8.64,52.02 13.37,73.62l31.46 0c7.4,-20.77 17.07,-63.95 22,-95l-23.03 0c-3.91,23.85 -9.46,51 -14.8,72.18l-0.82 0c-4.52,-21.18 -9.05,-48.32 -12.34,-72.18l-31.26 0c-3.49,23.85 -8.22,51 -12.75,72.18l-0.82 0c-5.55,-21.18 -11.1,-48.32 -15.01,-72.18l-23.85 0c5.14,31.05 14.81,74.23 22,95zm124.82 -0.21c0,8.02 -1.03,16.24 -3.29,24.06l10.9 1.03c7.4,-10.49 13.37,-24.68 13.37,-39.89 0,-2.47 0,-4.93 -0.41,-7.4l-22.82 1.23c1.44,6.79 2.26,13.78 2.26,20.97zm120.91 0.41c4.73,1.03 10.69,1.85 16.66,1.85 26.32,0 40.71,-16.24 40.71,-50.17 0,-32.69 -13.16,-48.94 -36.19,-48.94 -11.93,0 -19.74,4.32 -25.7,8.64l-2.47 -6.58 -17.27 0 0 132.43 24.26 0 0 -37.22zm0 -20.56l0 -51.2c4.11,-2.06 9.46,-4.11 16.04,-4.11 12.34,0 16.66,7.81 16.66,28.79 0,20.36 -4.32,28.38 -19.33,28.38 -4.11,0 -9.05,-0.62 -13.37,-1.85zm70.94 -7.61c0,19.54 14.81,30.02 32.49,30.02 11.93,0 20.97,-4.93 26.32,-9.25l2.47 7.2 17.27 0 0 -63.33c0,-22.82 -13.98,-33.72 -39.27,-33.72 -11.72,0 -23.24,2.26 -32.08,4.11l3.91 20.56c7.4,-1.65 18.51,-3.29 26.11,-3.29 12.75,0 17.07,4.52 17.07,15.22l0 3.29c-4.94,-0.62 -9.05,-1.03 -14.19,-1.03 -25.91,0 -40.1,10.9 -40.1,30.23l0 0zm24.68 -1.03c0,-8.02 5.96,-11.93 16.24,-11.93 3.29,0 9.05,0.41 13.37,0.82l0 17.07c-3.7,2.67 -10.08,5.55 -16.66,5.55 -7.81,0 -12.95,-4.11 -12.95,-11.52l0 0zm96.44 28.99l9.87 0c-4.73,13.37 -9.25,25.91 -13.78,37.42l23.85 0c14.6,-37.01 30.23,-86.36 42.56,-132.43l-23.85 0c-6.58,24.26 -13.98,49.35 -21.59,72.79l-0.82 0c-6.79,-21.18 -13.78,-48.94 -18.92,-72.79l-24.26 0c6.79,31.05 18.51,74.23 26.94,95zm125.43 -47.5c0,30.43 11.52,49.56 43.39,49.56 31.87,0 43.39,-19.12 43.39,-49.56 0,-30.43 -11.52,-49.56 -43.39,-49.56 -31.87,0 -43.39,19.12 -43.39,49.56zm24.68 0c0,-15.63 2.06,-28.17 18.71,-28.17 16.65,0 18.71,12.54 18.71,28.17 0,15.63 -2.06,28.17 -18.71,28.17 -16.66,0 -18.71,-12.54 -18.71,-28.17zm99.73 47.5l31.87 0c8.84,-20.77 21.39,-63.95 28.79,-95l-23.85 0c-5.55,24.06 -12.96,51.82 -20.15,73.2l-0.82 0c-7.2,-21.39 -14.6,-49.15 -20.36,-73.2l-24.26 0c7.4,31.05 19.95,74.23 28.79,95zm69.3 -47.09c0,33.11 15.63,49.15 44.62,49.15 12.34,0 23.85,-2.88 33.72,-6.99l-6.79 -19.74c-7.2,2.47 -17.27,5.35 -26.11,5.35 -12.54,0 -19.12,-5.96 -20.56,-19.33l53.26 0c1.03,-4.73 1.44,-11.51 1.44,-16.24 0,-27.14 -13.78,-42.15 -38.25,-42.15 -26.73,0 -41.33,17.89 -41.33,49.97zm24.88 -10.49c1.03,-11.1 5.35,-18.1 15.83,-18.1 9.87,0 14.39,6.17 14.8,18.1l-30.64 0zm74.23 57.58l24.26 0 0 -66.83c5.35,-5.14 11.72,-7.82 22,-7.82 2.88,0 6.17,0.21 10.28,0.82l1.65 -22.21c-3.29,-0.62 -7.81,-1.03 -11.1,-1.03 -10.49,0 -19.33,4.11 -27.14,12.75l-2.67 -10.69 -17.27 0 0 95zm127.49 -26.73c0,19.95 11.31,28.58 27.76,28.58 8.64,0 16.86,-2.06 23.03,-4.52l-5.14 -19.33c-4.11,1.44 -9.46,2.67 -13.78,2.67 -5.35,0 -7.61,-2.06 -7.61,-8.84l0 -46.68 23.65 0 0 -20.15 -23.65 0 0 -26.32 -21.59 0 -1.64 27.55 -15.42 0.82 0 18.1 14.39 0 0 48.12zm68.06 -82.66l24.26 0 0 -23.03 -24.26 0 0 23.03zm0 109.39l24.26 0 0 -95 -24.26 0 0 95zm49.76 0l24.26 0 0 -71.35c4.11,-2.26 10.08,-4.32 15.42,-4.32 9.05,0 13.16,5.76 13.16,15.22l0 60.46 24.26 0 0 -63.33c0,-2.67 -0.21,-5.14 -0.62,-7.61 5.35,-3.08 10.9,-4.73 16.04,-4.73 9.05,0 13.16,5.76 13.16,15.22l0 60.46 24.26 0 0 -63.33c0,-19.53 -10.08,-33.72 -31.05,-33.72 -12.13,0 -20.77,4.32 -29.2,10.08 -5.14,-6.37 -12.96,-10.08 -23.65,-10.08 -12.54,0 -21.18,4.93 -26.73,8.84l-2.06 -6.79 -17.27 0 0 95zm148.05 -47.09c0,33.11 15.63,49.15 44.62,49.15 12.34,0 23.85,-2.88 33.72,-6.99l-6.79 -19.74c-7.2,2.47 -17.27,5.35 -26.12,5.35 -12.54,0 -19.12,-5.96 -20.56,-19.33l53.26 0c1.03,-4.73 1.44,-11.51 1.44,-16.24 0,-27.14 -13.78,-42.15 -38.25,-42.15 -26.73,0 -41.33,17.89 -41.33,49.97zm24.88 -10.49c1.03,-11.1 5.35,-18.1 15.83,-18.1 9.87,0 14.39,6.17 14.81,18.1l-30.64 0zm81.02 17.07l15.42 0 6.17 -91.92 -27.76 0 6.17 91.92zm-3.91 40.51l23.24 0 0 -23.85 -23.24 0 0 23.85z"/>
  <g>
   <path class="fil5" d="M1225.1 482.98l7.98 0c2,-8.1 4.99,-21.7 6.92,-32.03l0.24 0c1.94,10.33 4.93,23.93 6.92,32.03l7.92 0c3.11,-8.98 7.1,-24.81 9.5,-37.78l-5.63 0c-1.94,10.5 -4.75,22.64 -7.51,32.62l-0.24 0c-2.29,-9.62 -4.93,-21.94 -6.8,-32.62l-8.45 0c-1.88,10.68 -4.52,23 -6.81,32.62l-0.24 0c-2.76,-9.97 -5.57,-22.12 -7.51,-32.62l-5.81 0c2.41,12.96 6.45,28.8 9.5,37.78zm40.89 -13.32c0,9.39 4.46,13.9 12.32,13.9 3.64,0 6.86,-1 9.5,-2.23l-1.64 -4.28c-2.23,0.94 -4.99,1.82 -7.68,1.82 -4.69,0 -6.69,-2.76 -7.04,-7.51l16.31 0c0.23,-1.17 0.35,-2.64 0.35,-3.99 0,-7.27 -3.58,-12.09 -10.62,-12.09 -7.33,0 -11.5,5.28 -11.5,14.37zm5.46 -2.52c0.29,-4.16 2.11,-7.16 5.98,-7.16 3.93,0 5.28,3.17 5.34,7.16l-11.32 0zm36.96 15.84l5.34 0 0 -20.88c1.7,-1.06 4.17,-2.11 6.63,-2.11 3.11,0 4.63,1.64 4.63,5.04l0 17.95 5.34 0 0 -18.6c0,-5.63 -3.05,-9.09 -8.8,-9.09 -3.05,0 -5.69,1.06 -7.8,2.41l0 -12.5 -5.34 0 0 37.78zm27.81 -7.86c0,5.57 4.22,8.45 9.27,8.45 3.46,0 6.16,-1.35 8.04,-2.87l0.53 2.29 3.93 0 0 -18.42c0,-6.63 -4.17,-9.27 -10.56,-9.27 -3.29,0 -6.57,0.71 -9.09,1.35l0.94 4.52c2.23,-0.59 5.34,-1.17 7.8,-1.17 3.7,0 5.57,1.29 5.57,5.16l0 1.88c-1.64,-0.24 -3.52,-0.35 -4.99,-0.35 -7.16,0 -11.44,2.82 -11.44,8.45l0 0zm5.46 -0.18c0,-3.05 2.35,-4.34 6.04,-4.34 1.17,0 3.28,0.12 4.93,0.29l0 6.16c-1.58,1.23 -3.93,2.11 -6.22,2.11 -2.82,0 -4.75,-1.41 -4.75,-4.22l0 0zm29.8 8.04l7.04 0c2.7,-5.98 6.4,-18.07 8.62,-27.1l-5.28 0c-1.88,7.63 -4.11,15.49 -6.63,22.41l-0.23 0c-2.58,-6.92 -4.81,-14.78 -6.75,-22.41l-5.34 0c2.17,9.03 5.93,21.12 8.57,27.1zm18.77 -13.32c0,9.39 4.46,13.9 12.32,13.9 3.64,0 6.86,-1 9.5,-2.23l-1.64 -4.28c-2.23,0.94 -4.99,1.82 -7.69,1.82 -4.69,0 -6.69,-2.76 -7.04,-7.51l16.31 0c0.24,-1.17 0.35,-2.64 0.35,-3.99 0,-7.27 -3.58,-12.09 -10.62,-12.09 -7.33,0 -11.5,5.28 -11.5,14.37zm5.46 -2.52c0.29,-4.16 2.11,-7.16 5.98,-7.16 3.93,0 5.28,3.17 5.34,7.16l-11.32 0zm42.3 15.78c1.76,0.35 3.64,0.64 5.57,0.64 7.86,0 11.61,-4.63 11.61,-14.25 0,-9.45 -3.64,-14.02 -10.27,-14.02 -3.4,0 -5.81,1.23 -7.74,2.7l-0.53 -2.11 -3.99 0 0 37.78 5.34 0 0 -10.73zm0 -4.58l0 -16.54c1.64,-1 3.7,-1.82 5.93,-1.82 4.17,0 5.81,2.76 5.81,9.62 0,6.34 -1.41,9.45 -6.69,9.45 -1.47,0 -3.34,-0.24 -5.05,-0.7l0 0zm21.94 -3.23c0,5.57 4.22,8.45 9.27,8.45 3.46,0 6.16,-1.35 8.04,-2.87l0.53 2.29 3.93 0 0 -18.42c0,-6.63 -4.16,-9.27 -10.56,-9.27 -3.29,0 -6.57,0.71 -9.09,1.35l0.94 4.52c2.23,-0.59 5.34,-1.17 7.8,-1.17 3.7,0 5.57,1.29 5.57,5.16l0 1.88c-1.64,-0.24 -3.52,-0.35 -4.99,-0.35 -7.16,0 -11.44,2.82 -11.44,8.45l0 0zm5.46 -0.18c0,-3.05 2.35,-4.34 6.04,-4.34 1.17,0 3.28,0.12 4.93,0.29l0 6.16c-1.58,1.23 -3.93,2.11 -6.22,2.11 -2.82,0 -4.75,-1.41 -4.75,-4.22l0 0zm24.29 8.04l5.34 0 0 -19.83c1.76,-1.88 3.93,-2.87 6.98,-2.87 0.82,0 1.7,0.06 2.82,0.23l0.47 -4.93c-0.88,-0.18 -2.11,-0.29 -3.17,-0.29 -2.99,0 -5.52,1.17 -7.86,3.76l-0.59 -3.17 -3.99 0 0 27.1zm21.71 -7.27c0,5.52 2.82,7.8 7.33,7.8 2.29,0 4.4,-0.59 6.04,-1.29l-1.29 -4.22c-1.41,0.53 -2.82,0.88 -3.99,0.88 -2.05,0 -2.76,-1.11 -2.76,-3.46l0 -15.08 7.33 0 0 -4.46 -7.33 0 0 -7.74 -4.69 0 -0.41 7.98 -4.22 0.23 0 3.99 3.99 0 0 15.37zm18.65 7.27l5.34 0 0 -20.88c1.7,-1.06 4.17,-2.11 6.63,-2.11 3.11,0 4.64,1.64 4.64,5.04l0 17.95 5.34 0 0 -18.6c0,-5.63 -3.05,-9.09 -8.8,-9.09 -3.4,0 -6.4,1.29 -8.74,2.93l-0.41 -2.35 -3.99 0 0 27.1zm28.04 -13.32c0,9.39 4.46,13.9 12.32,13.9 3.64,0 6.86,-1 9.5,-2.23l-1.64 -4.28c-2.23,0.94 -4.99,1.82 -7.68,1.82 -4.69,0 -6.69,-2.76 -7.04,-7.51l16.31 0c0.23,-1.17 0.35,-2.64 0.35,-3.99 0,-7.27 -3.58,-12.09 -10.62,-12.09 -7.33,0 -11.5,5.28 -11.5,14.37zm5.46 -2.52c0.29,-4.16 2.11,-7.16 5.98,-7.16 3.93,0 5.28,3.17 5.34,7.16l-11.32 0zm23.05 15.84l5.34 0 0 -19.83c1.76,-1.88 3.93,-2.87 6.98,-2.87 0.82,0 1.7,0.06 2.82,0.23l0.47 -4.93c-0.88,-0.18 -2.11,-0.29 -3.17,-0.29 -2.99,0 -5.51,1.17 -7.86,3.76l-0.59 -3.17 -3.99 0 0 27.1zm17.54 -13.32c0,9.39 4.46,13.9 12.32,13.9 3.64,0 6.86,-1 9.5,-2.23l-1.64 -4.28c-2.23,0.94 -4.99,1.82 -7.68,1.82 -4.69,0 -6.69,-2.76 -7.04,-7.51l16.31 0c0.23,-1.17 0.35,-2.64 0.35,-3.99 0,-7.27 -3.58,-12.09 -10.62,-12.09 -7.33,0 -11.5,5.28 -11.5,14.37zm5.46 -2.52c0.29,-4.16 2.11,-7.16 5.98,-7.16 3.93,0 5.28,3.17 5.34,7.16l-11.32 0zm32.09 16.43c3.29,0 5.51,-1.11 7.51,-2.64l0.53 2.05 3.99 0 0 -37.78 -5.34 0 0 10.68c-1.76,-0.29 -3.58,-0.59 -5.51,-0.59 -7.8,0 -11.67,4.81 -11.67,14.31 0,9.62 3.93,13.96 10.5,13.96zm0.82 -4.69c-4.22,0 -5.87,-2.76 -5.87,-9.33 0,-6.63 1.7,-9.68 6.86,-9.68 1.47,0 3.29,0.24 4.87,0.59l0 16.6c-1.7,1.12 -3.75,1.82 -5.87,1.82zm37.37 4.11l7.16 0c1.64,-6.51 3.46,-14.9 4.81,-22.35l0.23 0c1.35,7.45 3.17,15.84 4.81,22.35l7.16 0c2.46,-6.81 5.16,-17.89 6.75,-27.1l-5.1 0c-1.41,7.69 -3.17,15.37 -5.16,22.23l-0.23 0c-1.7,-6.8 -3.34,-14.9 -4.58,-22.23l-7.27 0c-1.23,7.33 -2.93,15.43 -4.58,22.23l-0.23 0c-2.05,-6.86 -3.81,-14.55 -5.22,-22.23l-5.28 0c1.64,9.21 4.34,20.3 6.75,27.1zm36.43 -31.97l5.34 0 0 -5.81 -5.34 0 0 5.81zm0 31.97l5.34 0 0 -27.1 -5.34 0 0 27.1zm14.55 -7.27c0,5.52 2.82,7.8 7.33,7.8 2.29,0 4.4,-0.59 6.04,-1.29l-1.29 -4.22c-1.41,0.53 -2.82,0.88 -3.99,0.88 -2.05,0 -2.76,-1.11 -2.76,-3.46l0 -15.08 7.33 0 0 -4.46 -7.33 0 0 -7.74 -4.69 0 -0.41 7.98 -4.22 0.23 0 3.99 3.99 0 0 15.37zm18.65 7.27l5.34 0 0 -20.88c1.7,-1.06 4.17,-2.11 6.63,-2.11 3.11,0 4.63,1.64 4.63,5.04l0 17.95 5.34 0 0 -18.6c0,-5.63 -3.05,-9.09 -8.8,-9.09 -3.05,0 -5.69,1.06 -7.8,2.41l0 -12.5 -5.34 0 0 37.78zm40.65 0l5.75 0 2.4 -8.86 15.08 0 2.41 8.86 5.81 0c-3.4,-12.67 -8.1,-27.63 -11.97,-37.78l-7.45 0c-3.87,10.15 -8.62,25.11 -12.03,37.78zm9.44 -13.73c1.94,-6.51 3.99,-12.91 6.1,-18.95l0.24 0c2.11,6.04 4.22,12.44 6.1,18.95l-12.44 0zm28.75 13.73l5.34 0 0 -22.64 5.98 0 0 -4.46 -5.98 0 0 -2.52c0,-3.05 1.23,-4.05 4.05,-4.05 1,0 2.35,0.12 3.4,0.29l0.35 -4.63c-1.29,-0.18 -2.64,-0.35 -4.11,-0.35 -5.93,0 -9.03,2.87 -9.03,8.74l0 2.76 -3.99 0.23 0 3.99 3.99 0 0 22.64zm18.6 0l5.34 0 0 -22.64 10.85 0 0 22.64 5.34 0 0 -27.1 -16.19 0 0 -2.52c0,-3.05 1.23,-4.05 4.05,-4.05 0.88,0 2.11,0.12 3.17,0.29l0.41 -4.63c-1.23,-0.18 -2.58,-0.35 -3.87,-0.35 -6.04,0 -9.09,2.87 -9.09,8.74l0 2.76 -3.99 0.23 0 3.99 3.99 0 0 22.64zm16.19 -31.97l5.34 0 0 -5.81 -5.34 0 0 5.81zm13.61 31.97l5.34 0 0 -19.83c1.76,-1.88 3.93,-2.87 6.98,-2.87 0.82,0 1.7,0.06 2.82,0.23l0.47 -4.93c-0.88,-0.18 -2.11,-0.29 -3.17,-0.29 -2.99,0 -5.51,1.17 -7.86,3.76l-0.59 -3.17 -3.99 0 0 27.1zm20.18 0l5.34 0 0 -20.94c1.88,-1.23 4.05,-2.05 5.98,-2.05 2.87,0 4.46,1.76 4.46,5.22l0 17.77 5.34 0 0 -18.36c0,-0.82 -0.06,-1.64 -0.18,-2.41 2.11,-1.47 4.22,-2.23 6.1,-2.23 2.93,0 4.52,1.76 4.52,5.22l0 17.77 5.34 0 0 -18.36c0,-5.63 -2.99,-9.33 -8.56,-9.33 -3.46,0 -6.1,1.35 -8.86,3.35 -1.41,-2.17 -3.75,-3.35 -6.86,-3.35 -3.52,0 -6.28,1.53 -8.21,2.93l-0.41 -2.35 -3.99 0 0 27.1zm59.72 -7.27c0,5.52 2.82,7.8 7.33,7.8 2.29,0 4.4,-0.59 6.04,-1.29l-1.29 -4.22c-1.41,0.53 -2.82,0.88 -3.99,0.88 -2.05,0 -2.76,-1.11 -2.76,-3.46l0 -15.08 7.33 0 0 -4.46 -7.33 0 0 -7.74 -4.69 0 -0.41 7.98 -4.22 0.23 0 3.99 3.99 0 0 15.37zm29.1 7.86c8.86,0 12.2,-5.63 12.2,-14.14 0,-8.51 -3.34,-14.14 -12.2,-14.14 -8.92,0 -12.26,5.63 -12.26,14.14 0,8.51 3.34,14.14 12.26,14.14zm0 -4.69c-5.57,0 -6.8,-4.11 -6.8,-9.45 0,-5.34 1.23,-9.44 6.8,-9.44 5.51,0 6.75,4.11 6.75,9.44 0,5.34 -1.23,9.45 -6.75,9.45zm34.2 9.8l-0.65 4.63c2.46,0.53 5.16,0.94 7.98,0.94 7.04,0 11.56,-2.46 11.56,-10.38l0 -26.75c-2.7,-0.88 -6.22,-1.82 -10.03,-1.82 -8.33,0 -12.38,4.52 -12.38,14.26 0,8.98 3.46,13.73 10.62,13.73 2.7,0 4.69,-0.7 6.45,-1.64l0 2.52c0,4.52 -2.82,5.4 -6.1,5.4 -2.4,0 -5.4,-0.47 -7.45,-0.88zm8.04 -10.09c-4.46,0 -6.1,-2.82 -6.1,-9.09 0,-6.63 1.82,-9.62 6.98,-9.62 1.47,0 3.17,0.24 4.64,0.59l0 16.66c-1.7,1 -3.7,1.47 -5.51,1.47zm19.07 -27.57l5.34 0 0 -5.81 -5.34 0 0 5.81zm0 31.97l5.34 0 0 -27.1 -5.34 0 0 27.1zm19.48 0l7.04 0c2.7,-5.98 6.4,-18.07 8.62,-27.1l-5.28 0c-1.88,7.63 -4.11,15.49 -6.63,22.41l-0.23 0c-2.58,-6.92 -4.81,-14.78 -6.75,-22.41l-5.34 0c2.17,9.03 5.93,21.12 8.57,27.1zm18.77 -13.32c0,9.39 4.46,13.9 12.32,13.9 3.64,0 6.86,-1 9.5,-2.23l-1.64 -4.28c-2.23,0.94 -4.99,1.82 -7.69,1.82 -4.69,0 -6.69,-2.76 -7.04,-7.51l16.31 0c0.24,-1.17 0.35,-2.64 0.35,-3.99 0,-7.27 -3.58,-12.09 -10.62,-12.09 -7.33,0 -11.5,5.28 -11.5,14.37zm5.46 -2.52c0.29,-4.16 2.11,-7.16 5.98,-7.16 3.93,0 5.28,3.17 5.34,7.16l-11.32 0zm42.53 15.84l2.17 0c-1.47,3.75 -2.87,7.33 -4.28,10.68l5.28 0c4.75,-10.97 9.5,-25.17 12.85,-37.78l-5.22 0c-1.94,7.22 -4.4,14.96 -7.04,22.35l-0.23 0c-2.46,-6.92 -4.63,-14.78 -6.39,-22.35l-5.4 0c1.99,8.68 5.69,21.29 8.27,27.1zm31.39 0.59c8.86,0 12.2,-5.63 12.2,-14.14 0,-8.51 -3.34,-14.14 -12.2,-14.14 -8.92,0 -12.26,5.63 -12.26,14.14 0,8.51 3.35,14.14 12.26,14.14zm0 -4.69c-5.57,0 -6.81,-4.11 -6.81,-9.45 0,-5.34 1.23,-9.44 6.81,-9.44 5.51,0 6.75,4.11 6.75,9.44 0,5.34 -1.23,9.45 -6.75,9.45zm18.24 -4.4c0,5.63 3.11,9.09 8.86,9.09 3.34,0 6.34,-1.23 8.62,-2.87l0.47 2.29 3.99 0 0 -27.1 -5.34 0 0 20.94c-1.64,1.06 -4.16,2.05 -6.57,2.05 -3.11,0 -4.69,-1.64 -4.69,-5.04l0 -17.95 -5.34 0 0 18.6zm42 0.65c0,5.57 4.22,8.45 9.27,8.45 3.46,0 6.16,-1.35 8.04,-2.87l0.53 2.29 3.93 0 0 -18.42c0,-6.63 -4.16,-9.27 -10.56,-9.27 -3.29,0 -6.57,0.71 -9.09,1.35l0.94 4.52c2.23,-0.59 5.34,-1.17 7.8,-1.17 3.7,0 5.57,1.29 5.57,5.16l0 1.88c-1.64,-0.24 -3.52,-0.35 -4.99,-0.35 -7.16,0 -11.44,2.82 -11.44,8.45l0 0zm5.46 -0.18c0,-3.05 2.35,-4.34 6.04,-4.34 1.17,0 3.28,0.12 4.93,0.29l0 6.16c-1.58,1.23 -3.93,2.11 -6.22,2.11 -2.82,0 -4.75,-1.41 -4.75,-4.22l0 0zm36.08 7.63c2.52,0.59 5.69,1 8.51,1 7.69,0 11.5,-3.05 11.5,-8.39 0,-4.75 -3.11,-6.45 -7.86,-8.1 -3.99,-1.35 -6.63,-1.76 -6.63,-4.11 0,-1.88 1.76,-2.99 5.28,-2.99 2.17,0 5.05,0.41 7.04,0.82l0.7 -4.63c-2.23,-0.53 -5.22,-0.88 -7.63,-0.88 -6.81,0 -10.85,2.93 -10.85,8.04 0,4.87 3.81,6.57 8.27,8.04 3.99,1.29 6.22,1.88 6.22,4.17 0,2.46 -2.46,3.34 -5.81,3.34 -2.58,0 -5.81,-0.53 -7.98,-1l-0.76 4.69zm25.87 -31.56l5.34 0 0 -5.81 -5.34 0 0 5.81zm0 31.97l5.34 0 0 -27.1 -5.34 0 0 27.1zm13.55 0l5.34 0 0 -20.94c1.88,-1.23 4.05,-2.05 5.98,-2.05 2.88,0 4.46,1.76 4.46,5.22l0 17.77 5.34 0 0 -18.36c0,-0.82 -0.06,-1.64 -0.18,-2.41 2.11,-1.47 4.22,-2.23 6.1,-2.23 2.93,0 4.52,1.76 4.52,5.22l0 17.77 5.34 0 0 -18.36c0,-5.63 -2.99,-9.33 -8.56,-9.33 -3.46,0 -6.1,1.35 -8.86,3.35 -1.41,-2.17 -3.75,-3.35 -6.86,-3.35 -3.52,0 -6.28,1.53 -8.21,2.93l-0.41 -2.35 -3.99 0 0 27.1zm50.16 -0.06c1.76,0.35 3.64,0.64 5.57,0.64 7.86,0 11.61,-4.63 11.61,-14.25 0,-9.45 -3.64,-14.02 -10.27,-14.02 -3.4,0 -5.81,1.23 -7.74,2.7l-0.53 -2.11 -3.99 0 0 37.78 5.34 0 0 -10.73zm0 -4.58l0 -16.54c1.64,-1 3.7,-1.82 5.93,-1.82 4.17,0 5.81,2.76 5.81,9.62 0,6.34 -1.41,9.45 -6.69,9.45 -1.47,0 -3.34,-0.24 -5.05,-0.7l0 0zm23.99 4.63l5.34 0 0 -37.78 -5.34 0 0 37.78zm11.73 -13.32c0,9.39 4.46,13.9 12.32,13.9 3.64,0 6.86,-1 9.5,-2.23l-1.64 -4.28c-2.23,0.94 -4.99,1.82 -7.69,1.82 -4.69,0 -6.69,-2.76 -7.04,-7.51l16.31 0c0.24,-1.17 0.35,-2.64 0.35,-3.99 0,-7.27 -3.58,-12.09 -10.62,-12.09 -7.33,0 -11.5,5.28 -11.5,14.37zm5.46 -2.52c0.29,-4.16 2.11,-7.16 5.98,-7.16 3.93,0 5.28,3.17 5.34,7.16l-11.32 0zm41.01 15.84l7.16 0c1.64,-6.51 3.46,-14.9 4.81,-22.35l0.23 0c1.35,7.45 3.17,15.84 4.81,22.35l7.16 0c2.46,-6.81 5.16,-17.89 6.75,-27.1l-5.1 0c-1.41,7.69 -3.17,15.37 -5.16,22.23l-0.23 0c-1.7,-6.8 -3.34,-14.9 -4.58,-22.23l-7.27 0c-1.23,7.33 -2.93,15.43 -4.58,22.23l-0.23 0c-2.05,-6.86 -3.81,-14.55 -5.22,-22.23l-5.28 0c1.64,9.21 4.34,20.3 6.75,27.1zm34.38 -7.86c0,5.57 4.22,8.45 9.27,8.45 3.46,0 6.16,-1.35 8.04,-2.87l0.53 2.29 3.93 0 0 -18.42c0,-6.63 -4.17,-9.27 -10.56,-9.27 -3.29,0 -6.57,0.71 -9.09,1.35l0.94 4.52c2.23,-0.59 5.34,-1.17 7.8,-1.17 3.7,0 5.57,1.29 5.57,5.16l0 1.88c-1.64,-0.24 -3.52,-0.35 -4.99,-0.35 -7.16,0 -11.44,2.82 -11.44,8.45l0 0zm5.46 -0.18c0,-3.05 2.35,-4.34 6.04,-4.34 1.17,0 3.28,0.12 4.93,0.29l0 6.16c-1.58,1.23 -3.93,2.11 -6.22,2.11 -2.82,0 -4.75,-1.41 -4.75,-4.22l0 0zm29.45 8.04l2.17 0c-1.47,3.75 -2.87,7.33 -4.28,10.68l5.28 0c4.75,-10.97 9.5,-25.17 12.85,-37.78l-5.22 0c-1.94,7.22 -4.4,14.96 -7.04,22.35l-0.23 0c-2.46,-6.92 -4.64,-14.78 -6.39,-22.35l-5.4 0c1.99,8.68 5.69,21.29 8.27,27.1zm36.43 -7.27c0,5.52 2.82,7.8 7.33,7.8 2.29,0 4.4,-0.59 6.04,-1.29l-1.29 -4.22c-1.41,0.53 -2.82,0.88 -3.99,0.88 -2.05,0 -2.76,-1.11 -2.76,-3.46l0 -15.08 7.33 0 0 -4.46 -7.33 0 0 -7.74 -4.69 0 -0.41 7.98 -4.22 0.23 0 3.99 3.99 0 0 15.37zm29.1 7.86c8.86,0 12.2,-5.63 12.2,-14.14 0,-8.51 -3.34,-14.14 -12.2,-14.14 -8.92,0 -12.26,5.63 -12.26,14.14 0,8.51 3.34,14.14 12.26,14.14zm0 -4.69c-5.57,0 -6.81,-4.11 -6.81,-9.45 0,-5.34 1.23,-9.44 6.81,-9.44 5.51,0 6.75,4.11 6.75,9.44 0,5.34 -1.23,9.45 -6.75,9.45zm32.5 4.11l5.34 0 0 -20.94c1.88,-1.23 4.05,-2.05 5.98,-2.05 2.88,0 4.46,1.76 4.46,5.22l0 17.77 5.34 0 0 -18.36c0,-0.82 -0.06,-1.64 -0.18,-2.41 2.11,-1.47 4.22,-2.23 6.1,-2.23 2.93,0 4.52,1.76 4.52,5.22l0 17.77 5.34 0 0 -18.36c0,-5.63 -2.99,-9.33 -8.56,-9.33 -3.46,0 -6.1,1.35 -8.86,3.35 -1.41,-2.17 -3.75,-3.35 -6.86,-3.35 -3.52,0 -6.28,1.53 -8.21,2.93l-0.41 -2.35 -3.99 0 0 27.1zm42.77 -7.86c0,5.57 4.22,8.45 9.27,8.45 3.46,0 6.16,-1.35 8.04,-2.87l0.53 2.29 3.93 0 0 -18.42c0,-6.63 -4.16,-9.27 -10.56,-9.27 -3.29,0 -6.57,0.71 -9.09,1.35l0.94 4.52c2.23,-0.59 5.34,-1.17 7.8,-1.17 3.7,0 5.57,1.29 5.57,5.16l0 1.88c-1.64,-0.24 -3.52,-0.35 -4.99,-0.35 -7.16,0 -11.44,2.82 -11.44,8.45l0 0zm5.46 -0.18c0,-3.05 2.35,-4.34 6.04,-4.34 1.17,0 3.28,0.12 4.93,0.29l0 6.16c-1.58,1.23 -3.93,2.11 -6.22,2.11 -2.82,0 -4.75,-1.41 -4.75,-4.22l0 0zm24.29 8.04l5.34 0 0 -12.26 1.88 0c2.7,3.93 6.22,8.57 9.44,12.26l6.81 0 0.06 -0.12c-4.58,-5.16 -8.8,-10.62 -11.85,-14.9 3.87,-3.87 7.92,-8.1 11.26,-11.97l-0.06 -0.12 -6.51 0c-3.17,3.64 -6.86,7.74 -10.79,11.79l-0.23 -0.06 0 -22.41 -5.34 0 0 37.78zm24.58 -13.32c0,9.39 4.46,13.9 12.32,13.9 3.64,0 6.86,-1 9.5,-2.23l-1.64 -4.28c-2.23,0.94 -4.99,1.82 -7.69,1.82 -4.69,0 -6.69,-2.76 -7.04,-7.51l16.31 0c0.24,-1.17 0.35,-2.64 0.35,-3.99 0,-7.27 -3.58,-12.09 -10.62,-12.09 -7.33,0 -11.5,5.28 -11.5,14.37zm5.46 -2.52c0.29,-4.16 2.11,-7.16 5.98,-7.16 3.93,0 5.28,3.17 5.34,7.16l-11.32 0zm42.53 15.84l2.17 0c-1.47,3.75 -2.87,7.33 -4.28,10.68l5.28 0c4.75,-10.97 9.5,-25.17 12.85,-37.78l-5.22 0c-1.94,7.22 -4.4,14.96 -7.04,22.35l-0.23 0c-2.46,-6.92 -4.64,-14.78 -6.39,-22.35l-5.4 0c1.99,8.68 5.69,21.29 8.27,27.1zm31.39 0.59c8.86,0 12.2,-5.63 12.2,-14.14 0,-8.51 -3.34,-14.14 -12.2,-14.14 -8.92,0 -12.26,5.63 -12.26,14.14 0,8.51 3.34,14.14 12.26,14.14zm0 -4.69c-5.57,0 -6.8,-4.11 -6.8,-9.45 0,-5.34 1.23,-9.44 6.8,-9.44 5.52,0 6.75,4.11 6.75,9.44 0,5.34 -1.23,9.45 -6.75,9.45zm18.24 -4.4c0,5.63 3.11,9.09 8.86,9.09 3.34,0 6.34,-1.23 8.62,-2.87l0.47 2.29 3.99 0 0 -27.1 -5.34 0 0 20.94c-1.64,1.06 -4.17,2.05 -6.57,2.05 -3.11,0 -4.69,-1.64 -4.69,-5.04l0 -17.95 -5.34 0 0 18.6zm30.15 8.51l5.34 0 0 -19.83c1.76,-1.88 3.93,-2.87 6.98,-2.87 0.82,0 1.7,0.06 2.82,0.23l0.47 -4.93c-0.88,-0.18 -2.11,-0.29 -3.17,-0.29 -2.99,0 -5.51,1.17 -7.86,3.76l-0.59 -3.17 -3.99 0 0 27.1zm39.42 -0.06c1.76,0.35 3.64,0.64 5.57,0.64 7.86,0 11.61,-4.63 11.61,-14.25 0,-9.45 -3.64,-14.02 -10.27,-14.02 -3.4,0 -5.81,1.23 -7.74,2.7l-0.53 -2.11 -3.99 0 0 37.78 5.34 0 0 -10.73zm0 -4.58l0 -16.54c1.64,-1 3.7,-1.82 5.93,-1.82 4.17,0 5.81,2.76 5.81,9.62 0,6.34 -1.41,9.45 -6.69,9.45 -1.47,0 -3.34,-0.24 -5.05,-0.7l0 0zm23.64 -3.87c0,5.63 3.11,9.09 8.86,9.09 3.34,0 6.34,-1.23 8.62,-2.87l0.47 2.29 3.99 0 0 -27.1 -5.34 0 0 20.94c-1.64,1.06 -4.16,2.05 -6.57,2.05 -3.11,0 -4.69,-1.64 -4.69,-5.04l0 -17.95 -5.34 0 0 18.6zm30.15 8.51l5.34 0 0 -19.83c1.76,-1.88 3.93,-2.87 6.98,-2.87 0.82,0 1.7,0.06 2.82,0.23l0.47 -4.93c-0.88,-0.18 -2.11,-0.29 -3.17,-0.29 -2.99,0 -5.51,1.17 -7.86,3.76l-0.59 -3.17 -3.99 0 0 27.1zm29.74 0.59c3.29,0 6.51,-0.82 9.03,-1.88l-1.47 -4.4c-2.11,0.82 -4.99,1.52 -7.33,1.52 -5.46,0 -6.92,-3.69 -6.92,-9.39 0,-6.75 2.05,-9.44 7.51,-9.44 1.94,0 4.46,0.35 6.34,0.7l0.7 -4.52c-2.29,-0.53 -4.75,-0.88 -7.16,-0.88 -9.5,0 -12.85,5.46 -12.85,14.02 0,9.09 3.75,14.25 12.14,14.25zm14.37 -0.59l5.34 0 0 -20.88c1.7,-1.06 4.17,-2.11 6.63,-2.11 3.11,0 4.63,1.64 4.63,5.04l0 17.95 5.34 0 0 -18.6c0,-5.63 -3.05,-9.09 -8.8,-9.09 -3.05,0 -5.69,1.06 -7.8,2.41l0 -12.5 -5.34 0 0 37.78zm27.81 -7.86c0,5.57 4.22,8.45 9.27,8.45 3.46,0 6.16,-1.35 8.04,-2.87l0.53 2.29 3.93 0 0 -18.42c0,-6.63 -4.16,-9.27 -10.56,-9.27 -3.29,0 -6.57,0.71 -9.09,1.35l0.94 4.52c2.23,-0.59 5.34,-1.17 7.8,-1.17 3.7,0 5.57,1.29 5.57,5.16l0 1.88c-1.64,-0.24 -3.52,-0.35 -4.99,-0.35 -7.16,0 -11.44,2.82 -11.44,8.45l0 0zm5.46 -0.18c0,-3.05 2.35,-4.34 6.04,-4.34 1.17,0 3.28,0.12 4.93,0.29l0 6.16c-1.58,1.23 -3.93,2.11 -6.22,2.11 -2.82,0 -4.75,-1.41 -4.75,-4.22l0 0zm22.18 7.63c2.52,0.59 5.69,1 8.51,1 7.69,0 11.5,-3.05 11.5,-8.39 0,-4.75 -3.11,-6.45 -7.86,-8.1 -3.99,-1.35 -6.63,-1.76 -6.63,-4.11 0,-1.88 1.76,-2.99 5.28,-2.99 2.17,0 5.05,0.41 7.04,0.82l0.7 -4.63c-2.23,-0.53 -5.22,-0.88 -7.63,-0.88 -6.81,0 -10.85,2.93 -10.85,8.04 0,4.87 3.81,6.57 8.27,8.04 3.99,1.29 6.22,1.88 6.22,4.17 0,2.46 -2.46,3.34 -5.81,3.34 -2.58,0 -5.81,-0.53 -7.98,-1l-0.76 4.69zm24.05 -12.91c0,9.39 4.46,13.9 12.32,13.9 3.64,0 6.86,-1 9.5,-2.23l-1.64 -4.28c-2.23,0.94 -4.99,1.82 -7.69,1.82 -4.69,0 -6.69,-2.76 -7.04,-7.51l16.31 0c0.24,-1.17 0.35,-2.64 0.35,-3.99 0,-7.27 -3.58,-12.09 -10.62,-12.09 -7.33,0 -11.5,5.28 -11.5,14.37zm5.46 -2.52c0.29,-4.16 2.11,-7.16 5.98,-7.16 3.93,0 5.28,3.17 5.34,7.16l-11.32 0zm41.01 15.84l7.16 0c1.64,-6.51 3.46,-14.9 4.81,-22.35l0.23 0c1.35,7.45 3.17,15.84 4.81,22.35l7.16 0c2.46,-6.81 5.16,-17.89 6.75,-27.1l-5.1 0c-1.41,7.69 -3.17,15.37 -5.16,22.23l-0.23 0c-1.7,-6.8 -3.34,-14.9 -4.58,-22.23l-7.27 0c-1.23,7.33 -2.93,15.43 -4.58,22.23l-0.23 0c-2.05,-6.86 -3.81,-14.55 -5.22,-22.23l-5.28 0c1.64,9.21 4.34,20.3 6.75,27.1zm36.43 -31.97l5.34 0 0 -5.81 -5.34 0 0 5.81zm0 31.97l5.34 0 0 -27.1 -5.34 0 0 27.1zm14.55 -7.27c0,5.52 2.82,7.8 7.33,7.8 2.29,0 4.4,-0.59 6.04,-1.29l-1.29 -4.22c-1.41,0.53 -2.82,0.88 -3.99,0.88 -2.05,0 -2.76,-1.11 -2.76,-3.46l0 -15.08 7.33 0 0 -4.46 -7.33 0 0 -7.74 -4.69 0 -0.41 7.98 -4.22 0.23 0 3.99 3.99 0 0 15.37zm18.65 7.27l5.34 0 0 -20.88c1.7,-1.06 4.17,-2.11 6.63,-2.11 3.11,0 4.63,1.64 4.63,5.04l0 17.95 5.34 0 0 -18.6c0,-5.63 -3.05,-9.09 -8.8,-9.09 -3.05,0 -5.69,1.06 -7.8,2.41l0 -12.5 -5.34 0 0 37.78zm43.76 0l5.34 0 0 -20.88c1.7,-1.06 4.17,-2.11 6.63,-2.11 3.11,0 4.63,1.64 4.63,5.04l0 17.95 5.34 0 0 -18.6c0,-5.63 -3.05,-9.09 -8.8,-9.09 -3.4,0 -6.39,1.29 -8.74,2.93l-0.41 -2.35 -3.99 0 0 27.1zm40.3 0.59c8.86,0 12.2,-5.63 12.2,-14.14 0,-8.51 -3.34,-14.14 -12.2,-14.14 -8.92,0 -12.26,5.63 -12.26,14.14 0,8.51 3.34,14.14 12.26,14.14zm0 -4.69c-5.57,0 -6.8,-4.11 -6.8,-9.45 0,-5.34 1.23,-9.44 6.8,-9.44 5.51,0 6.75,4.11 6.75,9.44 0,5.34 -1.23,9.45 -6.75,9.45zm32.5 4.11l5.34 0 0 -20.88c1.7,-1.06 4.17,-2.11 6.63,-2.11 3.11,0 4.63,1.64 4.63,5.04l0 17.95 5.34 0 0 -18.6c0,-5.63 -3.05,-9.09 -8.8,-9.09 -3.05,0 -5.69,1.06 -7.8,2.41l0 -12.5 -5.34 0 0 37.78zm29.86 -31.97l5.34 0 0 -5.81 -5.34 0 0 5.81zm0 31.97l5.34 0 0 -27.1 -5.34 0 0 27.1zm22.59 0.59c3.29,0 5.51,-1.11 7.51,-2.64l0.53 2.05 3.99 0 0 -37.78 -5.34 0 0 10.68c-1.76,-0.29 -3.58,-0.59 -5.52,-0.59 -7.8,0 -11.67,4.81 -11.67,14.31 0,9.62 3.93,13.96 10.5,13.96zm0.82 -4.69c-4.22,0 -5.87,-2.76 -5.87,-9.33 0,-6.63 1.7,-9.68 6.86,-9.68 1.47,0 3.29,0.24 4.87,0.59l0 16.6c-1.7,1.12 -3.75,1.82 -5.87,1.82zm28.45 4.69c3.28,0 5.51,-1.11 7.51,-2.64l0.53 2.05 3.99 0 0 -37.78 -5.34 0 0 10.68c-1.76,-0.29 -3.58,-0.59 -5.51,-0.59 -7.8,0 -11.67,4.81 -11.67,14.31 0,9.62 3.93,13.96 10.5,13.96zm0.82 -4.69c-4.22,0 -5.87,-2.76 -5.87,-9.33 0,-6.63 1.7,-9.68 6.86,-9.68 1.47,0 3.28,0.24 4.87,0.59l0 16.6c-1.7,1.12 -3.75,1.82 -5.87,1.82zm17.6 -9.21c0,9.39 4.46,13.9 12.32,13.9 3.64,0 6.86,-1 9.5,-2.23l-1.64 -4.28c-2.23,0.94 -4.99,1.82 -7.68,1.82 -4.69,0 -6.69,-2.76 -7.04,-7.51l16.31 0c0.23,-1.17 0.35,-2.64 0.35,-3.99 0,-7.27 -3.58,-12.09 -10.62,-12.09 -7.33,0 -11.5,5.28 -11.5,14.37zm5.46 -2.52c0.29,-4.16 2.11,-7.16 5.98,-7.16 3.93,0 5.28,3.17 5.34,7.16l-11.32 0zm23.05 15.84l5.34 0 0 -20.88c1.7,-1.06 4.17,-2.11 6.63,-2.11 3.11,0 4.63,1.64 4.63,5.04l0 17.95 5.34 0 0 -18.6c0,-5.63 -3.05,-9.09 -8.8,-9.09 -3.4,0 -6.4,1.29 -8.74,2.93l-0.41 -2.35 -3.99 0 0 27.1zm45.41 0l5.34 0 0 -22.64 5.98 0 0 -4.46 -5.98 0 0 -2.52c0,-3.05 1.23,-4.05 4.05,-4.05 1,0 2.35,0.12 3.4,0.29l0.35 -4.63c-1.29,-0.18 -2.64,-0.35 -4.11,-0.35 -5.93,0 -9.03,2.87 -9.03,8.74l0 2.76 -3.99 0.23 0 3.99 3.99 0 0 22.64zm14.43 -13.32c0,9.39 4.46,13.9 12.32,13.9 3.64,0 6.86,-1 9.5,-2.23l-1.64 -4.28c-2.23,0.94 -4.99,1.82 -7.68,1.82 -4.69,0 -6.69,-2.76 -7.04,-7.51l16.31 0c0.23,-1.17 0.35,-2.64 0.35,-3.99 0,-7.27 -3.58,-12.09 -10.62,-12.09 -7.33,0 -11.5,5.28 -11.5,14.37zm5.46 -2.52c0.29,-4.16 2.11,-7.16 5.98,-7.16 3.93,0 5.28,3.17 5.34,7.16l-11.32 0z"/>
   <path class="fil5" d="M3495.03 469.66c0,9.39 4.46,13.9 12.32,13.9 3.64,0 6.86,-1 9.5,-2.23l-1.64 -4.28c-2.23,0.94 -4.99,1.82 -7.69,1.82 -4.69,0 -6.69,-2.76 -7.04,-7.51l16.31 0c0.23,-1.17 0.35,-2.64 0.35,-3.99 0,-7.27 -3.58,-12.09 -10.62,-12.09 -7.33,0 -11.5,5.28 -11.5,14.37zm5.46 -2.52c0.29,-4.16 2.11,-7.16 5.98,-7.16 3.93,0 5.28,3.17 5.34,7.16l-11.32 0zm20.94 15.43c2.52,0.59 5.69,1 8.51,1 7.69,0 11.5,-3.05 11.5,-8.39 0,-4.75 -3.11,-6.45 -7.86,-8.1 -3.99,-1.35 -6.63,-1.76 -6.63,-4.11 0,-1.88 1.76,-2.99 5.28,-2.99 2.17,0 5.05,0.41 7.04,0.82l0.7 -4.63c-2.23,-0.53 -5.22,-0.88 -7.63,-0.88 -6.81,0 -10.85,2.93 -10.85,8.04 0,4.87 3.81,6.57 8.27,8.04 3.99,1.29 6.22,1.88 6.22,4.17 0,2.46 -2.46,3.34 -5.81,3.34 -2.58,0 -5.81,-0.53 -7.98,-1l-0.76 4.69zm26.11 0.41l5.51 0 0 -5.81 -5.51 0 0 5.81z"/>
  </g>
 </g>
</svg>
