<?xml version="1.0" encoding="UTF-8"?>
<!DOCTYPE svg PUBLIC "-//W3C//DTD SVG 1.1//EN" "http://www.w3.org/Graphics/SVG/1.1/DTD/svg11.dtd">
<!-- Creator: CorelDRAW 2017 -->
<svg xmlns:xlink="http://www.w3.org/1999/xlink" xmlns="http://www.w3.org/2000/svg" xml:space="preserve" width="7.77778in" height="6.91667in" version="1.1"
style="shape-rendering:geometricPrecision; text-rendering:geometricPrecision; image-rendering:optimizeQuality; fill-rule:evenodd; clip-rule:evenodd"
 viewBox="0 0 7777.78 6916.67">
 <defs>
  <style type="text/css">
   <![CDATA[
    .fil2 {fill:none}
    .fil3 {fill:#060809}
    .fil4 {fill:#0FA0EA}
    .fil0 {fill:#0FA0EA}
    .fil5 {fill:#060809;fill-rule:nonzero}
    .fil1 {fill:#FEFEFE;fill-rule:nonzero}
   ]]>
  </style>
 </defs>
 <g id="Layer_x0020_1">
  <metadata id="CorelCorpID_0Corel-Layer"/>
  <g id="_1720788883312">
   <path class="fil0" d="M2152.99 5720.71l3471.8 0c80.86,0 147.02,66.15 147.02,147.02l0 597.43c0,80.86 -66.15,147.02 -147.02,147.02l-3471.8 0c-80.85,0 -147.02,-66.16 -147.02,-147.02l0 -597.43c0,-80.87 66.16,-147.02 147.02,-147.02z"/>
   <path class="fil1" d="M2809.89 6320.66l188.75 0 0 -53.51 -127.46 0 0 -259.78 -61.3 0 0 313.29zm212.59 -111.4c0,78.32 36.97,116.27 105.57,116.27 29.19,0 56.43,-6.81 79.78,-16.54l-16.06 -46.7c-17.02,5.84 -40.86,12.65 -61.78,12.65 -29.67,0 -45.24,-14.11 -48.65,-45.73l125.99 0c2.43,-11.19 3.41,-27.24 3.41,-38.43 0,-64.22 -32.59,-99.73 -90.48,-99.73 -63.24,0 -97.78,42.32 -97.78,118.21zm58.87 -24.81c2.43,-26.27 12.65,-42.81 37.46,-42.81 23.35,0 34.05,14.59 35.02,42.81l-72.48 0zm161.02 70.05c0,46.22 35.03,71.03 76.86,71.03 28.22,0 49.62,-11.68 62.27,-21.89l5.84 17.03 40.86 0 0 -149.83c0,-54 -33.08,-79.78 -92.91,-79.78 -27.73,0 -54.97,5.35 -75.89,9.73l9.24 48.65c17.52,-3.89 43.78,-7.78 61.78,-7.78 30.16,0 40.38,10.7 40.38,36l0 7.78c-11.68,-1.46 -21.41,-2.43 -33.57,-2.43 -61.3,0 -94.86,25.78 -94.86,71.51l0 0zm58.38 -2.43c0,-18.97 14.11,-28.22 38.43,-28.22 7.78,0 21.41,0.97 31.62,1.94l0 40.38c-8.76,6.32 -23.84,13.13 -39.41,13.13 -18.48,0 -30.65,-9.73 -30.65,-27.24l0 0zm185.83 68.59l57.4 0 0 -158.1c12.65,-12.16 27.73,-18.48 52.06,-18.48 6.81,0 14.59,0.48 24.32,1.94l3.89 -52.54c-7.78,-1.46 -18.48,-2.43 -26.27,-2.43 -24.81,0 -45.73,9.73 -64.21,30.16l-6.33 -25.3 -40.86 0 0 224.75zm170.75 0l57.4 0 0 -168.32c10.7,-5.35 26.27,-10.7 41.35,-10.7 23.84,0 32.59,12.65 32.59,34.54l0 144.48 57.4 0 0 -151.78c0,-43.78 -21.89,-77.83 -74.91,-77.83 -24.81,0 -48.65,7.78 -68.11,21.41l-4.87 -16.54 -40.86 0 0 224.75zm368.74 0l57.4 0 0 -168.8c9.73,-5.35 23.84,-10.22 36.49,-10.22 21.4,0 31.13,13.62 31.13,36l0 143.02 57.4 0 0 -149.83c0,-6.33 -0.49,-12.16 -1.46,-18 12.65,-7.3 25.78,-11.19 37.94,-11.19 21.41,0 31.13,13.62 31.13,36l0 143.02 57.41 0 0 -149.83c0,-46.22 -23.84,-79.78 -73.46,-79.78 -28.7,0 -49.13,10.22 -69.08,23.84 -12.16,-15.08 -30.65,-23.84 -55.94,-23.84 -29.67,0 -50.11,11.68 -63.24,20.92l-4.87 -16.05 -40.86 0 0 224.75zm350.74 -112.37c0,72 27.24,117.24 102.65,117.24 75.4,0 102.65,-45.24 102.65,-117.24 0,-72 -27.24,-117.24 -102.65,-117.24 -75.4,0 -102.65,45.24 -102.65,117.24zm58.38 0c0,-36.97 4.86,-66.65 44.27,-66.65 39.4,0 44.27,29.67 44.27,66.65 0,36.97 -4.87,66.65 -44.27,66.65 -39.41,0 -44.27,-29.67 -44.27,-66.65zm192.64 112.37l57.4 0 0 -158.1c12.65,-12.16 27.73,-18.48 52.06,-18.48 6.81,0 14.59,0.48 24.32,1.94l3.89 -52.54c-7.78,-1.46 -18.48,-2.43 -26.27,-2.43 -24.81,0 -45.73,9.73 -64.21,30.16l-6.33 -25.3 -40.86 0 0 224.75zm151.78 -111.4c0,78.32 36.97,116.27 105.57,116.27 29.19,0 56.43,-6.81 79.78,-16.54l-16.06 -46.7c-17.02,5.84 -40.86,12.65 -61.78,12.65 -29.67,0 -45.24,-14.11 -48.65,-45.73l125.99 0c2.43,-11.19 3.41,-27.24 3.41,-38.43 0,-64.22 -32.59,-99.73 -90.48,-99.73 -63.24,0 -97.78,42.32 -97.78,118.21zm58.87 -24.81c2.43,-26.27 12.65,-42.81 37.46,-42.81 23.35,0 34.05,14.59 35.02,42.81l-72.48 0z"/>
  </g>
  <polygon class="fil2" points="-0,0 7777.78,0 7777.78,6916.67 -0,6916.67 "/>
  <g id="_1720788884752">
   <g>
    <path id="Fill-1" class="fil3" d="M2808.13 1062.52c-30.78,0 -46.11,-15.11 -46.11,-40.09 0,-46.22 51.73,-62.04 146.15,-72.03 0,61.83 -41.8,112.12 -100.04,112.12l0 0zm40.7 -348.05c-67.45,0 -145.1,31.82 -187.23,65.41l38.49 81.02c33.81,-30.94 88.46,-57.36 137.76,-57.36 46.82,0 72.69,15.67 72.69,47.15 0,21.29 -17.15,31.99 -49.58,36.18 -121,15.77 -215.96,49.13 -215.96,142.45 0,73.96 52.67,118.74 134.95,118.74 58.68,0 110.96,-32.65 135.83,-75.72l0 63.64 109.42 0 0 -266.65c0,-110.13 -76.55,-154.86 -176.37,-154.86z"/>
   </g>
   <path id="Fill-4" class="fil3" d="M3947.63 726.5l0 409.48 117.14 0 0 -197.27c0,-93.81 56.75,-121.33 96.35,-121.33 15.44,0 36.29,4.47 50.07,14.78l21.34 -108.26c-18.09,-7.72 -37,-9.43 -52.5,-9.43 -60.22,0 -98.06,26.69 -123.04,80.85l0 -68.82 -109.36 0z"/>
   <path id="Fill-6" class="fil3" d="M4775.49 714.49c-61.93,0 -108.2,36.62 -132.3,71.92 -22.39,-45.61 -69.82,-71.92 -126.57,-71.92 -61.93,0 -104.78,34.41 -124.58,73.96l0 -61.93 -112.89 0 0 409.48 117.2 0 0 -210.78c0,-75.72 39.59,-111.95 76.6,-111.95 33.48,0 64.25,21.67 64.25,77.54l0 245.19 117.03 0 0 -210.78c0,-76.55 38.71,-111.95 77.43,-111.95 30.94,0 63.59,22.5 63.59,76.71l0 246.02 117.03 0 0 -283.03c0,-92.04 -61.93,-138.48 -136.77,-138.48z"/>
   <path id="Fill-8" class="fil3" d="M3662.54 726.5l-106.11 0 0 -41.64c0,-54.15 30.94,-69.65 57.63,-69.65 29.45,0 52.39,13.07 52.39,13.07l36.13 -82.56c0,0 -36.62,-23.93 -103.19,-23.93 -74.83,0 -159.99,42.19 -159.99,174.6l0 30.11 -177.63 0 0 -41.64c0,-54.15 30.94,-69.65 57.57,-69.65 15.17,0 35.57,3.53 52.45,13.07l36.12 -82.56c-21.56,-12.69 -56.2,-23.93 -103.19,-23.93 -74.84,0 -159.99,42.19 -159.99,174.6l0 30.11 -67.94 0 0 90.33 67.94 0 0 319.15 117.03 0 0 -319.15 177.63 0 0 319.15 117.03 0 0 -319.15 106.11 0 0 -90.33z"/>
   <polygon id="Fill-10" class="fil3" points="3732.42,1136 3849.33,1136 3849.33,726.52 3732.42,726.52 "/>
   <path id="Fill-12" class="fil4" d="M4414.52 155.35c-316.12,0 -597.87,219.44 -677.84,501.58l114.6 0c66.79,-210.11 293.51,-394.54 563.24,-394.54 327.86,0 611.22,249.61 611.22,638.19 0,87.24 -11.3,165.89 -32.7,235.38l111.18 0 1.1 -3.81c18.2,-71.69 27.46,-149.57 27.46,-231.57 0,-433.37 -315.79,-745.24 -718.26,-745.24z"/>
  </g>
  <path class="fil5" d="M2067.44 2486.05c63.41,9.2 150.33,15.34 207.61,15.34 165.68,0 264.88,-53.18 264.88,-197.38 0,-84.89 -33.75,-133.98 -108.41,-157.5l0 -4.09c55.22,-20.45 93.06,-63.41 93.06,-141.13 0,-127.84 -101.25,-178.98 -250.56,-178.98 -59.31,0 -144.2,8.19 -206.58,17.39l0 646.35zm128.86 -382.49l0 -164.65c29.66,-3.07 56.25,-4.09 76.7,-4.09 73.63,0 120.68,13.3 120.68,84.88 0,62.39 -34.77,83.86 -99.2,83.86l-98.18 0zm0 282.27l0 -180 103.3 0c70.57,0 109.43,24.54 109.43,92.04 0,77.72 -51.14,92.04 -131.93,92.04 -21.48,0 -49.09,-1.02 -80.8,-4.09zm444.88 -48.07c0,92.04 46.02,163.63 157.5,163.63 52.16,0 103.29,-16.37 143.18,-45l10.23 34.77 85.91 0 0 -472.49 -120.68 0 0 353.85c-22.5,11.25 -55.23,22.5 -86.93,22.5 -50.11,0 -68.52,-26.59 -68.52,-72.61l0 -303.74 -120.68 0 0 319.08zm617.71 153.41l49.09 0c-23.52,66.48 -46.02,128.86 -68.52,186.13l118.63 0c72.61,-184.09 150.33,-429.54 211.7,-658.62l-118.63 0c-32.72,120.68 -69.54,245.45 -107.38,362.04l-4.09 0c-33.75,-105.34 -68.52,-243.4 -94.09,-362.04l-120.68 0c33.75,154.43 92.04,369.2 133.97,472.49zm654.54 0l120.68 0 0 -353.85c22.5,-11.25 55.22,-22.5 86.93,-22.5 50.11,0 68.52,26.59 68.52,72.61l0 303.74 120.68 0 0 -319.08c0,-92.04 -46.02,-163.63 -157.5,-163.63 -52.16,0 -102.27,16.36 -143.18,45l-10.23 -34.77 -85.91 0 0 472.49zm487.83 -236.24c0,151.36 57.27,246.47 215.79,246.47 158.52,0 215.79,-95.11 215.79,-246.47 0,-151.36 -57.27,-246.47 -215.79,-246.47 -158.52,0 -215.79,95.11 -215.79,246.47zm122.72 0c0,-77.72 10.22,-140.11 93.06,-140.11 82.84,0 93.07,62.39 93.07,140.11 0,77.72 -10.22,140.11 -93.07,140.11 -82.84,0 -93.06,-62.39 -93.06,-140.11zm461.24 236.24l157.5 0c23.52,-107.39 47.04,-240.33 66.48,-366.13l4.09 0c19.43,125.8 42.95,258.74 66.48,366.13l156.47 0c36.82,-103.29 84.89,-318.06 109.43,-472.49l-114.54 0c-19.43,118.63 -47.04,253.63 -73.63,358.97l-4.09 0c-22.5,-105.34 -45,-240.33 -61.36,-358.97l-155.45 0c-17.39,118.63 -40.91,253.63 -63.41,358.97l-4.09 0c-27.61,-105.34 -55.23,-240.33 -74.66,-358.97l-118.63 0c25.57,154.43 73.63,369.2 109.43,472.49zm620.78 -1.02c0,39.89 -5.11,80.8 -16.36,119.66l54.2 5.11c36.82,-52.16 66.48,-122.72 66.48,-198.41 0,-12.27 0,-24.54 -2.04,-36.82l-113.52 6.14c7.16,33.75 11.25,68.52 11.25,104.31z"/>
  <path class="fil5" d="M1255.41 3331.42c23.52,5.11 53.18,9.2 82.84,9.2 130.91,0 202.5,-80.8 202.5,-249.54 0,-162.61 -65.45,-243.41 -180,-243.41 -59.31,0 -98.18,21.48 -127.84,42.95l-12.27 -32.72 -85.91 0 0 658.62 120.68 0 0 -185.11zm0 -102.27l0 -254.65c20.45,-10.23 47.04,-20.45 79.77,-20.45 61.36,0 82.84,38.86 82.84,143.18 0,101.25 -21.48,141.13 -96.13,141.13 -20.45,0 -45,-3.07 -66.48,-9.2zm352.83 -37.84c0,97.16 73.63,149.31 161.59,149.31 59.31,0 104.31,-24.55 130.91,-46.02l12.27 35.8 85.91 0 0 -314.99c0,-113.52 -69.55,-167.72 -195.34,-167.72 -58.3,0 -115.57,11.25 -159.54,20.45l19.43 102.27c36.82,-8.18 92.04,-16.36 129.88,-16.36 63.41,0 84.89,22.5 84.89,75.68l0 16.37c-24.54,-3.07 -45,-5.11 -70.57,-5.11 -128.86,0 -199.43,54.2 -199.43,150.34l0 0zm122.72 -5.11c0,-39.89 29.66,-59.32 80.79,-59.32 16.36,0 45,2.05 66.48,4.09l0 84.89c-18.41,13.3 -50.11,27.61 -82.84,27.61 -38.86,0 -64.43,-20.46 -64.43,-57.27l0 0zm479.65 144.2l49.09 0c-23.52,66.48 -46.02,128.86 -68.52,186.13l118.63 0c72.61,-184.09 150.33,-429.54 211.7,-658.62l-118.63 0c-32.72,120.68 -69.54,245.45 -107.38,362.04l-4.09 0c-33.75,-105.34 -68.52,-243.4 -94.09,-362.04l-120.68 0c33.75,154.43 92.04,369.2 133.97,472.49zm623.85 -236.24c0,151.36 57.27,246.47 215.79,246.47 158.52,0 215.79,-95.11 215.79,-246.47 0,-151.36 -57.27,-246.47 -215.79,-246.47 -158.52,0 -215.79,95.11 -215.79,246.47zm122.72 0c0,-77.72 10.22,-140.11 93.06,-140.11 82.84,0 93.07,62.39 93.07,140.11 0,77.72 -10.22,140.11 -93.07,140.11 -82.84,0 -93.06,-62.39 -93.06,-140.11zm496.01 236.24l158.52 0c43.98,-103.29 106.36,-318.06 143.18,-472.49l-118.63 0c-27.61,119.65 -64.43,257.72 -100.22,364.08l-4.09 0c-35.8,-106.36 -72.61,-244.43 -101.25,-364.08l-120.68 0c36.81,154.43 99.2,369.2 143.18,472.49zm344.65 -234.2c0,164.66 77.72,244.43 221.93,244.43 61.36,0 118.63,-14.32 167.72,-34.77l-33.75 -98.18c-35.8,12.27 -85.91,26.59 -129.89,26.59 -62.39,0 -95.11,-29.66 -102.27,-96.13l264.88 0c5.11,-23.52 7.16,-57.27 7.16,-80.8 0,-135 -68.52,-209.65 -190.22,-209.65 -132.95,0 -205.56,88.98 -205.56,248.52zm123.75 -52.16c5.11,-55.22 26.59,-90 78.75,-90 49.09,0 71.59,30.68 73.63,90l-152.38 0zm369.2 286.36l120.68 0 0 -332.38c26.59,-25.57 58.3,-38.86 109.43,-38.86 14.32,0 30.68,1.02 51.13,4.09l8.19 -110.45c-16.37,-3.07 -38.87,-5.11 -55.23,-5.11 -52.16,0 -96.13,20.45 -135,63.41l-13.3 -53.18 -85.91 0 0 472.49zm634.07 -132.95c0,99.2 56.25,142.16 138.07,142.16 42.95,0 83.86,-10.23 114.54,-22.5l-25.57 -96.13c-20.46,7.16 -47.05,13.3 -68.52,13.3 -26.59,0 -37.84,-10.23 -37.84,-43.98l0 -232.15 117.61 0 0 -100.22 -117.61 0 0 -130.91 -107.39 0 -8.18 137.04 -76.7 4.09 0 90 71.59 0 0 239.31zm338.52 -411.13l120.68 0 0 -114.54 -120.68 0 0 114.54zm0 544.08l120.68 0 0 -472.49 -120.68 0 0 472.49zm247.5 0l120.68 0 0 -354.88c20.45,-11.25 50.11,-21.48 76.7,-21.48 45,0 65.45,28.63 65.45,75.68l0 300.68 120.68 0 0 -314.99c0,-13.3 -1.02,-25.57 -3.07,-37.84 26.59,-15.34 54.2,-23.52 79.77,-23.52 45,0 65.45,28.63 65.45,75.68l0 300.68 120.68 0 0 -314.99c0,-97.16 -50.11,-167.72 -154.43,-167.72 -60.34,0 -103.29,21.48 -145.22,50.11 -25.57,-31.7 -64.43,-50.11 -117.61,-50.11 -62.38,0 -105.34,24.54 -132.95,43.98l-10.23 -33.75 -85.91 0 0 472.49zm736.35 -234.2c0,164.66 77.72,244.43 221.93,244.43 61.36,0 118.63,-14.32 167.72,-34.77l-33.75 -98.18c-35.8,12.27 -85.91,26.59 -129.89,26.59 -62.39,0 -95.11,-29.66 -102.27,-96.13l264.88 0c5.11,-23.52 7.16,-57.27 7.16,-80.8 0,-135 -68.52,-209.65 -190.22,-209.65 -132.95,0 -205.56,88.98 -205.56,248.52zm123.75 -52.16c5.11,-55.22 26.59,-90 78.75,-90 49.09,0 71.59,30.68 73.63,90l-152.38 0z"/>
  <path class="fil5" d="M1594.55 4393.55l44.41 0c1.89,-79.85 5.2,-162.06 9.45,-243.32l1.89 0 69.45 193.71 47.72 0 68.98 -193.71 1.89 0c4.72,81.27 7.56,163.48 9.92,243.32l45.83 0c-2.83,-100.16 -9.45,-235.76 -15.59,-304.27l-63.31 0 -69.93 197.02 -1.89 0 -70.4 -197.02 -62.84 0c-6.61,68.51 -13.23,204.11 -15.59,304.27zm343.01 -63.31c0,44.89 34.02,68.04 74.65,68.04 27.88,0 49.61,-10.87 64.73,-23.15l4.25 18.43 31.66 0 0 -148.35c0,-53.39 -33.55,-74.65 -85.04,-74.65 -26.46,0 -52.92,5.67 -73.24,10.87l7.56 36.38c17.95,-4.72 42.99,-9.45 62.84,-9.45 29.76,0 44.88,10.39 44.88,41.58l0 15.12c-13.23,-1.89 -28.35,-2.83 -40.16,-2.83 -57.64,0 -92.13,22.68 -92.13,68.04l0 0zm43.94 -1.42c0,-24.57 18.9,-34.96 48.67,-34.96 9.45,0 26.46,0.94 39.69,2.36l0 49.61c-12.76,9.92 -31.65,17.01 -50.08,17.01 -22.68,0 -38.27,-11.34 -38.27,-34.02l0 0zm195.6 64.73l43 0 0 -98.74 15.12 0c21.74,31.65 50.08,68.98 76.07,98.74l54.81 0 0.47 -0.94c-36.85,-41.58 -70.87,-85.52 -95.44,-120.01 31.18,-31.18 63.78,-65.2 90.71,-96.38l-0.47 -0.94 -52.44 0c-25.51,29.29 -55.28,62.37 -86.93,94.96l-1.89 -0.47 0 -180.48 -43 0 0 304.27zm197.96 -107.25c0,75.6 35.91,111.98 99.22,111.98 29.29,0 55.28,-8.03 76.54,-17.95l-13.23 -34.49c-17.96,7.56 -40.16,14.65 -61.89,14.65 -37.8,0 -53.86,-22.21 -56.7,-60.48l131.35 0c1.89,-9.45 2.83,-21.26 2.83,-32.13 0,-58.59 -28.82,-97.33 -85.52,-97.33 -59.06,0 -92.61,42.52 -92.61,115.75zm43.94 -20.31c2.36,-33.54 17.01,-57.64 48.19,-57.64 31.65,0 42.52,25.52 42.99,57.64l-91.19 0zm297.65 127.57l43 0 0 -168.67c15.12,-9.93 32.6,-16.54 48.19,-16.54 23.15,0 35.91,14.17 35.91,42.05l0 143.16 43 0 0 -147.88c0,-6.61 -0.47,-13.23 -1.42,-19.37 17.01,-11.81 34.02,-17.96 49.14,-17.96 23.62,0 36.38,14.17 36.38,42.05l0 143.16 43 0 0 -147.88c0,-45.36 -24.09,-75.12 -68.98,-75.12 -27.88,0 -49.14,10.87 -71.34,26.93 -11.34,-17.48 -30.24,-26.93 -55.28,-26.93 -28.35,0 -50.56,12.28 -66.15,23.62l-3.31 -18.9 -32.13 0 0 218.28zm445.07 4.72c71.34,0 98.27,-45.36 98.27,-113.87 0,-68.51 -26.93,-113.86 -98.27,-113.86 -71.81,0 -98.75,45.35 -98.75,113.86 0,68.51 26.93,113.87 98.75,113.87zm0 -37.8c-44.89,0 -54.81,-33.07 -54.81,-76.07 0,-42.99 9.92,-76.07 54.81,-76.07 44.41,0 54.33,33.07 54.33,76.07 0,43 -9.93,76.07 -54.33,76.07zm149.77 33.07l43 0 0 -168.2c13.7,-8.51 33.55,-17.01 53.39,-17.01 25.04,0 37.32,13.23 37.32,40.63l0 144.57 43 0 0 -149.77c0,-45.36 -24.57,-73.23 -70.87,-73.23 -27.4,0 -51.5,10.39 -70.4,23.62l-3.31 -18.9 -32.13 0 0 218.28zm248.52 -58.59c0,44.41 22.68,62.84 59.06,62.84 18.43,0 35.44,-4.72 48.67,-10.39l-10.39 -34.02c-11.34,4.25 -22.68,7.09 -32.13,7.09 -16.54,0 -22.21,-8.98 -22.21,-27.88l0 -121.43 59.06 0 0 -35.91 -59.06 0 0 -62.37 -37.8 0 -3.31 64.26 -34.02 1.89 0 32.13 32.13 0 0 123.79zm150.24 58.59l43 0 0 -168.2c13.7,-8.51 33.55,-17.01 53.39,-17.01 25.04,0 37.32,13.23 37.32,40.63l0 144.57 43 0 0 -149.77c0,-45.36 -24.57,-73.23 -70.87,-73.23 -24.57,0 -45.83,8.5 -62.84,19.37l0 -100.64 -43 0 0 304.27zm240.49 0l43 0 0 -304.27 -43 0 0 304.27zm154.03 0l17.48 0c-11.81,30.24 -23.15,59.06 -34.49,85.99l42.52 0c38.27,-88.35 76.54,-202.69 103.47,-304.27l-42.05 0c-15.59,58.11 -35.43,120.48 -56.69,180.01l-1.89 0c-19.85,-55.75 -37.33,-119.06 -51.5,-180.01l-43.47 0c16.06,69.93 45.83,171.5 66.62,218.28zm328.37 -0.47c14.17,2.83 29.3,5.2 44.89,5.2 63.31,0 93.55,-37.32 93.55,-114.81 0,-76.07 -29.29,-112.92 -82.68,-112.92 -27.4,0 -46.78,9.92 -62.37,21.73l-4.25 -17.01 -32.13 0 0 304.27 43 0 0 -86.46zm0 -36.85l0 -133.24c13.23,-8.03 29.77,-14.65 47.72,-14.65 33.54,0 46.78,22.21 46.78,77.48 0,51.03 -11.34,76.07 -53.86,76.07 -11.81,0 -26.93,-1.89 -40.63,-5.67l0 0zm176.7 -25.98c0,44.89 34.02,68.04 74.65,68.04 27.88,0 49.61,-10.87 64.73,-23.15l4.25 18.43 31.66 0 0 -148.35c0,-53.39 -33.55,-74.65 -85.04,-74.65 -26.46,0 -52.92,5.67 -73.24,10.87l7.56 36.38c17.95,-4.72 42.99,-9.45 62.84,-9.45 29.76,0 44.88,10.39 44.88,41.58l0 15.12c-13.23,-1.89 -28.35,-2.83 -40.16,-2.83 -57.64,0 -92.13,22.68 -92.13,68.04l0 0zm43.94 -1.42c0,-24.57 18.9,-34.96 48.67,-34.96 9.45,0 26.46,0.94 39.69,2.36l0 49.61c-12.76,9.92 -31.65,17.01 -50.08,17.01 -22.68,0 -38.27,-11.34 -38.27,-34.02l0 0zm237.18 64.73l17.48 0c-11.81,30.24 -23.15,59.06 -34.49,85.99l42.52 0c38.27,-88.35 76.54,-202.69 103.47,-304.27l-42.05 0c-15.59,58.11 -35.43,120.48 -56.69,180.01l-1.89 0c-19.85,-55.75 -37.33,-119.06 -51.5,-180.01l-43.47 0c16.06,69.93 45.83,171.5 66.62,218.28zm173.39 0l43 0 0 -168.67c15.12,-9.93 32.6,-16.54 48.19,-16.54 23.15,0 35.91,14.17 35.91,42.05l0 143.16 43 0 0 -147.88c0,-6.61 -0.47,-13.23 -1.42,-19.37 17.01,-11.81 34.02,-17.96 49.14,-17.96 23.62,0 36.38,14.17 36.38,42.05l0 143.16 43 0 0 -147.88c0,-45.36 -24.09,-75.12 -68.98,-75.12 -27.88,0 -49.14,10.87 -71.34,26.93 -11.34,-17.48 -30.24,-26.93 -55.28,-26.93 -28.35,0 -50.56,12.28 -66.15,23.62l-3.31 -18.9 -32.13 0 0 218.28zm346.32 -107.25c0,75.6 35.91,111.98 99.22,111.98 29.29,0 55.28,-8.03 76.54,-17.95l-13.23 -34.49c-17.96,7.56 -40.16,14.65 -61.89,14.65 -37.8,0 -53.86,-22.21 -56.7,-60.48l131.35 0c1.89,-9.45 2.83,-21.26 2.83,-32.13 0,-58.59 -28.82,-97.33 -85.52,-97.33 -59.06,0 -92.61,42.52 -92.61,115.75zm43.94 -20.31c2.36,-33.54 17.01,-57.64 48.19,-57.64 31.65,0 42.52,25.52 42.99,57.64l-91.19 0zm185.68 127.57l43 0 0 -168.2c13.7,-8.51 33.55,-17.01 53.39,-17.01 25.04,0 37.32,13.23 37.32,40.63l0 144.57 43 0 0 -149.77c0,-45.36 -24.57,-73.23 -70.87,-73.23 -27.4,0 -51.5,10.39 -70.4,23.62l-3.31 -18.9 -32.13 0 0 218.28zm248.52 -58.59c0,44.41 22.68,62.84 59.06,62.84 18.43,0 35.44,-4.72 48.67,-10.39l-10.39 -34.02c-11.34,4.25 -22.68,7.09 -32.13,7.09 -16.54,0 -22.21,-8.98 -22.21,-27.88l0 -121.43 59.06 0 0 -35.91 -59.06 0 0 -62.37 -37.8 0 -3.31 64.26 -34.02 1.89 0 32.13 32.13 0 0 123.79zm133.23 55.28c20.32,4.72 45.83,8.03 68.51,8.03 61.89,0 92.61,-24.57 92.61,-67.56 0,-38.27 -25.04,-51.97 -63.31,-65.2 -32.13,-10.87 -53.39,-14.17 -53.39,-33.07 0,-15.12 14.17,-24.1 42.52,-24.1 17.48,0 40.63,3.31 56.69,6.61l5.67 -37.32c-17.95,-4.25 -42.05,-7.09 -61.42,-7.09 -54.81,0 -87.41,23.62 -87.41,64.73 0,39.21 30.71,52.91 66.62,64.73 32.13,10.39 50.08,15.12 50.08,33.54 0,19.84 -19.84,26.93 -46.78,26.93 -20.79,0 -46.77,-4.26 -64.26,-8.04l-6.14 37.8z"/>
  <path class="fil5" d="M2066.08 4931.39l57.64 0c13.23,-52.44 27.87,-120.01 38.74,-180.01l1.89 0c10.87,60 25.52,127.57 38.74,180.01l57.64 0c19.84,-54.81 41.57,-144.1 54.33,-218.28l-41.11 0c-11.34,61.89 -25.51,123.79 -41.58,179.06l-1.89 0c-13.7,-54.8 -26.93,-120 -36.85,-179.06l-58.59 0c-9.92,59.06 -23.62,124.26 -36.85,179.06l-1.89 0c-16.54,-55.28 -30.71,-117.17 -42.05,-179.06l-42.52 0c13.23,74.18 34.96,163.47 54.33,218.28zm293.4 -257.5l43 0 0 -46.78 -43 0 0 46.78zm0 257.5l43 0 0 -218.28 -43 0 0 218.28zm117.18 -58.59c0,44.41 22.68,62.84 59.06,62.84 18.43,0 35.44,-4.72 48.67,-10.39l-10.39 -34.02c-11.34,4.25 -22.68,7.09 -32.13,7.09 -16.54,0 -22.21,-8.98 -22.21,-27.88l0 -121.43 59.06 0 0 -35.91 -59.06 0 0 -62.37 -37.8 0 -3.31 64.26 -34.02 1.89 0 32.13 32.13 0 0 123.79zm150.24 58.59l43 0 0 -168.2c13.7,-8.51 33.55,-17.01 53.39,-17.01 25.04,0 37.32,13.23 37.32,40.63l0 144.57 43 0 0 -149.77c0,-45.36 -24.57,-73.23 -70.87,-73.23 -24.57,0 -45.83,8.5 -62.84,19.37l0 -100.64 -43 0 0 304.27zm352.46 0l43 0 0 -168.2c13.7,-8.51 33.55,-17.01 53.39,-17.01 25.04,0 37.32,13.23 37.32,40.63l0 144.57 43 0 0 -149.77c0,-45.36 -24.57,-73.23 -70.87,-73.23 -27.4,0 -51.5,10.39 -70.4,23.62l-3.31 -18.9 -32.13 0 0 218.28zm324.59 4.72c71.34,0 98.27,-45.36 98.27,-113.87 0,-68.51 -26.93,-113.86 -98.27,-113.86 -71.81,0 -98.75,45.35 -98.75,113.86 0,68.51 26.93,113.87 98.75,113.87zm0 -37.8c-44.89,0 -54.81,-33.07 -54.81,-76.07 0,-42.99 9.92,-76.07 54.81,-76.07 44.41,0 54.33,33.07 54.33,76.07 0,43 -9.93,76.07 -54.33,76.07zm261.74 33.07l43 0 0 -168.2c13.7,-8.51 33.55,-17.01 53.39,-17.01 25.04,0 37.32,13.23 37.32,40.63l0 144.57 43 0 0 -149.77c0,-45.36 -24.57,-73.23 -70.87,-73.23 -24.57,0 -45.83,8.5 -62.84,19.37l0 -100.64 -43 0 0 304.27zm240.49 -257.5l43 0 0 -46.78 -43 0 0 46.78zm0 257.5l43 0 0 -218.28 -43 0 0 218.28zm181.91 4.72c26.46,0 44.41,-8.98 60.47,-21.26l4.26 16.54 32.13 0 0 -304.27 -43 0 0 85.99c-14.17,-2.36 -28.82,-4.72 -44.41,-4.72 -62.84,0 -94.02,38.74 -94.02,115.28 0,77.49 31.66,112.45 84.57,112.45zm6.61 -37.8c-34.02,0 -47.25,-22.21 -47.25,-75.13 0,-53.39 13.7,-77.96 55.28,-77.96 11.81,0 26.46,1.89 39.21,4.72l0 133.71c-13.7,8.98 -30.24,14.65 -47.24,14.65zm229.15 37.8c26.46,0 44.41,-8.98 60.47,-21.26l4.26 16.54 32.13 0 0 -304.27 -43 0 0 85.99c-14.17,-2.36 -28.82,-4.72 -44.41,-4.72 -62.84,0 -94.02,38.74 -94.02,115.28 0,77.49 31.66,112.45 84.57,112.45zm6.61 -37.8c-34.02,0 -47.25,-22.21 -47.25,-75.13 0,-53.39 13.7,-77.96 55.28,-77.96 11.81,0 26.46,1.89 39.21,4.72l0 133.71c-13.7,8.98 -30.24,14.65 -47.24,14.65zm141.74 -74.18c0,75.6 35.91,111.98 99.22,111.98 29.29,0 55.28,-8.03 76.54,-17.95l-13.23 -34.49c-17.96,7.56 -40.16,14.65 -61.89,14.65 -37.8,0 -53.86,-22.21 -56.7,-60.48l131.35 0c1.89,-9.45 2.83,-21.26 2.83,-32.13 0,-58.59 -28.82,-97.33 -85.52,-97.33 -59.06,0 -92.61,42.52 -92.61,115.75zm43.94 -20.31c2.36,-33.54 17.01,-57.64 48.19,-57.64 31.65,0 42.52,25.52 42.99,57.64l-91.19 0zm185.68 127.57l43 0 0 -168.2c13.7,-8.51 33.55,-17.01 53.39,-17.01 25.04,0 37.32,13.23 37.32,40.63l0 144.57 43 0 0 -149.77c0,-45.36 -24.57,-73.23 -70.87,-73.23 -27.4,0 -51.5,10.39 -70.4,23.62l-3.31 -18.9 -32.13 0 0 218.28zm365.7 0l42.99 0 0 -182.37 48.19 0 0 -35.91 -48.19 0 0 -20.32c0,-24.57 9.92,-32.6 32.6,-32.6 8.03,0 18.9,0.94 27.4,2.36l2.83 -37.33c-10.39,-1.42 -21.26,-2.83 -33.07,-2.83 -47.72,0 -72.76,23.15 -72.76,70.4l0 22.21 -32.13 1.89 0 32.13 32.13 0 0 182.37zm116.22 -107.25c0,75.6 35.91,111.98 99.22,111.98 29.29,0 55.28,-8.03 76.54,-17.95l-13.23 -34.49c-17.96,7.56 -40.16,14.65 -61.89,14.65 -37.8,0 -53.86,-22.21 -56.7,-60.48l131.35 0c1.89,-9.45 2.83,-21.26 2.83,-32.13 0,-58.59 -28.82,-97.33 -85.52,-97.33 -59.06,0 -92.61,42.52 -92.61,115.75zm43.94 -20.31c2.36,-33.54 17.01,-57.64 48.19,-57.64 31.65,0 42.52,25.52 42.99,57.64l-91.19 0zm171.03 20.31c0,75.6 35.91,111.98 99.22,111.98 29.29,0 55.28,-8.03 76.54,-17.95l-13.23 -34.49c-17.96,7.56 -40.16,14.65 -61.89,14.65 -37.8,0 -53.86,-22.21 -56.7,-60.48l131.35 0c1.89,-9.45 2.83,-21.26 2.83,-32.13 0,-58.59 -28.82,-97.33 -85.52,-97.33 -59.06,0 -92.61,42.52 -92.61,115.75zm43.94 -20.31c2.36,-33.54 17.01,-57.64 48.19,-57.64 31.65,0 42.52,25.52 42.99,57.64l-91.19 0zm168.67 124.26c20.32,4.72 45.83,8.03 68.51,8.03 61.89,0 92.61,-24.57 92.61,-67.56 0,-38.27 -25.04,-51.97 -63.31,-65.2 -32.13,-10.87 -53.39,-14.17 -53.39,-33.07 0,-15.12 14.17,-24.1 42.52,-24.1 17.48,0 40.63,3.31 56.69,6.61l5.67 -37.32c-17.95,-4.25 -42.05,-7.09 -61.42,-7.09 -54.81,0 -87.41,23.62 -87.41,64.73 0,39.21 30.71,52.91 66.62,64.73 32.13,10.39 50.08,15.12 50.08,33.54 0,19.84 -19.84,26.93 -46.78,26.93 -20.79,0 -46.77,-4.26 -64.26,-8.04l-6.14 37.8zm210.25 3.31l44.41 0 0 -46.78 -44.41 0 0 46.78z"/>
 </g>
</svg>
