<?xml version="1.0" encoding="UTF-8"?>
<!DOCTYPE svg PUBLIC "-//W3C//DTD SVG 1.1//EN" "http://www.w3.org/Graphics/SVG/1.1/DTD/svg11.dtd">
<!-- Creator: CorelDRAW 2017 -->
<svg xmlns="http://www.w3.org/2000/svg" xml:space="preserve" width="700px" height="700px" version="1.1" style="shape-rendering:geometricPrecision; text-rendering:geometricPrecision; image-rendering:optimizeQuality; fill-rule:evenodd; clip-rule:evenodd"
viewBox="0 0 129.91 129.82"
 xmlns:xlink="http://www.w3.org/1999/xlink">
 <defs>
  <style type="text/css">
   <![CDATA[
    .fil0 {fill:#689AA1}
   ]]>
  </style>
 </defs>
 <g id="Layer_x0020_1">
  <metadata id="CorelCorpID_0Corel-Layer"/>
  <g id="_1667960994864">
   <path class="fil0" d="M48.01 124.57l0 -37.19c0.39,-0.1 1.36,-0.67 1.75,-0.91l4.47 -2.43c0.42,-0.22 0.47,-0.3 0.89,-0.53l3.55 -1.93c0.76,-0.39 3.01,-1.74 3.61,-1.88 0,2.33 -0.36,10.75 0.27,12.13 0.31,0.68 0.98,1.23 1.9,1.16 0.71,-0.05 2.44,-1.04 3.22,-1.48l6.98 -3.84c0.66,-0.41 1.46,-0.64 1.96,-1.18 0.65,-0.71 0.58,-1.28 0.58,-2.56 -0.02,-4.18 0,-8.37 0,-12.55 0.72,-0.17 9.9,-5.38 11.29,-6.12l0 37.81c-0.79,0.19 -1.87,0.87 -2.51,1.25 -0.4,0.23 -0.84,0.43 -1.25,0.63 -4.26,2.11 -9.49,5.22 -13.92,7.43l-22.79 12.19zm-44.09 -59.93l35.14 19.76c1.69,0.92 3.33,1.93 5.02,2.83l0 36.86 -27.58 -17.28c-0.88,-0.55 -1.64,-1.02 -2.51,-1.57l-7.53 -4.71c-0.87,-0.56 -1.63,-1.06 -2.54,-1.54l0 -34.35zm15.53 -10.52c1.51,1.01 18.13,9.81 21.45,11.66 0.49,0.28 0.86,0.41 1.35,0.69l17.84 9.62c-0.37,0.5 -1.07,0.67 -1.68,0.99l-7.01 3.82c-0.68,0.34 -1.15,0.66 -1.83,0.99 -0.83,0.41 -2.95,1.73 -3.6,1.89l-24.74 -14.02c-0.86,-0.46 -1.64,-0.92 -2.49,-1.43 -0.89,-0.52 -1.63,-0.88 -2.51,-1.41l-8.61 -4.88c-0.38,-0.23 -0.97,-0.6 -1.34,-0.7 0.41,-0.57 9.52,-5.15 11.45,-6.27 0.52,-0.29 1.27,-0.55 1.72,-0.95zm53.66 17.26l0 12.55c-0.55,0.13 -1.09,0.55 -1.68,0.84l-5.07 2.77c0,-3.24 0,-6.48 0,-9.73 0,-4.2 -0.4,-3.17 -5.85,-6.22l-18.99 -10.2c-0.66,-0.33 -1.01,-0.54 -1.62,-0.88l-15.9 -8.43c0.32,-0.42 2.33,-1.47 2.93,-1.77l3.03 -1.69c0.77,-0.42 0.84,-0.29 1.63,0.11 5.28,2.75 11.8,6.67 16.94,9.26l6.06 3.35c1.02,0.53 2.04,1.05 3.05,1.66l12.28 6.71c0.62,0.32 0.94,0.53 1.51,0.84 0.51,0.27 1.2,0.72 1.68,0.83zm13.18 -9.25c-0.87,0.2 -8.21,4.43 -9.73,5.17 -0.55,0.27 -0.92,0.46 -1.41,0.79l-1.17 -0.72c-3.96,-2.35 -9.88,-5.19 -13.8,-7.53 -0.88,-0.53 -1.65,-0.89 -2.55,-1.37l-7.49 -4.12c-2.7,-1.62 -7.23,-3.81 -10.04,-5.49l-5.12 -2.74c0.33,-0.44 0.92,-0.6 1.47,-0.88 1.48,-0.75 9.15,-5.17 9.64,-5.13l27.38 14.9c2.86,1.54 8.79,4.63 11.28,6.14 0.51,0.32 1.2,0.52 1.54,0.98zm-86.29 -1.1l0 39.06c0,1.3 1.28,1.65 2.26,2.29l19.93 12.55c0.98,0.64 1.8,1.14 2.78,1.76l19.93 12.55c1.86,1.16 2.11,0.44 4.73,-0.86l13.62 -7.24c0.96,-0.58 2.01,-1.04 2.96,-1.59l9.15 -4.81c0.58,-0.3 0.82,-0.5 1.41,-0.79 0.57,-0.29 1.01,-0.48 1.57,-0.79l12.08 -6.43c1.1,-0.54 2.14,-0.98 2.14,-2.56l0 -41.89c0,-1.69 -1.38,-2.27 -3.34,-3.24 -3.8,-1.88 -9.45,-5.37 -13.18,-7.22 -1.01,-0.5 -2.02,-1.08 -2.94,-1.61l-4.38 -2.37c-0.48,-0.28 -0.89,-0.5 -1.42,-0.77l-14.69 -8.06c-1.65,-0.81 -4.32,-2.53 -5.92,-3.19 -0.88,-0.36 -1.89,0.29 -3.01,0.96l-19.14 10.19c-0.57,0.35 -0.92,0.52 -1.53,0.83l-8.84 4.65c-1.1,0.55 -1.89,1.03 -2.98,1.57l-4.45 2.3c-0.54,0.28 -0.89,0.53 -1.51,0.84 -1.11,0.55 -1.89,1.02 -2.98,1.57 -0.94,0.46 -2.25,0.98 -2.25,2.3z"/>
   <path class="fil0" d="M110.45 57.26c-0.57,-0.41 -1.96,-3.25 -2.48,-4.11 -0.42,-0.69 -0.78,-1.39 -1.18,-2.11 -2.16,-3.85 -4.21,-8.26 -6.13,-12.24 -0.21,-0.45 -0.3,-0.75 -0.52,-1.2 -0.37,-0.78 -0.68,-1.52 -0.99,-2.3 -3.09,-7.77 -6.84,-16.7 -1.63,-24.54 2.43,-3.66 6.94,-6.5 11.36,-6.68 0.76,-0.03 0.98,-0.16 1.57,-0.16 1.23,0 3.42,0.43 4.58,0.75 7.28,2.01 11.97,9.83 10.66,17.48 -0.99,5.76 -3.94,13.3 -6.56,18.53 -1.21,2.42 -2.19,4.73 -3.56,7.27l-5.12 9.31zm-19.61 -38.43c0,4.83 1.46,9.41 2.72,13.12 0.6,1.76 2.57,6.75 3.45,8.47 1.64,3.27 2.63,5.7 4.6,9.36 0.26,0.49 0.45,0.91 0.68,1.37l1.44 2.63c1.1,1.8 4.12,7.43 5.13,8.83 0.33,0.45 0.68,0.61 1.43,0.61 1.82,0 2.31,-1.68 3.64,-3.89l4.1 -7.35c0.26,-0.53 0.41,-0.71 0.68,-1.2 3.17,-5.9 11.19,-22.72 11.19,-29.13 0,-5.15 0.31,-6.5 -2.14,-11.35 -2.89,-5.71 -9.9,-10.3 -16.37,-10.3 -5.34,0 -8.17,0.82 -12.3,3.55l-2.57 2.14c-3.16,3.18 -5.68,8.33 -5.68,13.14z"/>
   <path class="fil0" d="M79.23 11.3l-58.05 0c-2.37,0 -6.59,-0.63 -6.59,1.72l0 30.75c0,2.2 3.92,2.33 3.92,0l0 -28.4 60.87 0c-0.45,0.69 -1.51,1.6 -2.15,2.24l-4.55 4.55c-1.13,1.13 -2.85,2.43 -1.27,4.01 1.82,1.82 3.6,-0.7 5.19,-2.28l9.08 -9.12c0.02,-0.03 0.05,-0.06 0.07,-0.09l0.13 -0.19c1.15,-1.8 -0.43,-2.7 -2.54,-4.8l-8.31 -8.32c-0.86,-0.85 -1.12,-1.37 -2.39,-1.37 -1.44,0 -2.29,1.78 -1.49,3.05 0.44,0.69 2.04,2.13 2.7,2.79l5.38 5.46z"/>
   <path class="fil0" d="M103.07 81.89c0,0.9 1.09,2.04 1.88,2.04 1.35,0 3.65,-2.78 4.99,-4.12l4.58 -4.51 0 47.07 -34.2 0c-2.21,0 -2.99,4.08 0.63,4.08l34.99 0c2.56,0 2.67,-1.43 2.66,-3.92l0 -47.07c1.89,1.26 7.64,8.47 9.26,8.47 1.2,0 2.04,-0.85 2.04,-2.19 0,-1.05 -1.97,-2.68 -2.94,-3.65l-8.32 -8.32c-2.5,-2.51 -2.91,-1.4 -5.88,1.57l-6.75 6.75c-0.81,0.81 -2.94,2.47 -2.94,3.8z"/>
   <path class="fil0" d="M103.54 19.14c0,-5.38 6.53,-9.42 11.49,-5.06 4.54,3.98 1.41,11.81 -4.11,11.81 -2.03,0 -2.93,-0.09 -4.56,-1.26 -0.21,-0.15 -0.21,-0.16 -0.43,-0.35l-0.33 -0.29c-0.03,-0.02 -0.06,-0.06 -0.08,-0.08 -1.02,-1.02 -1.98,-2.79 -1.98,-4.77zm6.44 10.82c1.97,0 3.35,-0.25 4.91,-1.04 8.78,-4.43 7.79,-15 1.3,-18.97 -4.42,-2.69 -9.69,-2.18 -13.31,1.46 -1.78,1.79 -3.16,3.99 -3.27,6.79 0,0.22 -0.04,0.67 -0.04,0.81 -0.03,2.69 0.81,4.76 2.33,6.79 0.63,0.83 1.27,1.39 2.09,1.99 1.36,1 3.7,2.17 5.99,2.17z"/>
   <path class="fil0" d="M9.1 81.89c0,1.62 2.97,2.88 4.54,3.78l5.35 3.12c2,1.15 17.26,10.2 18.03,10.2 1.48,0 3.35,-2.54 0.79,-4.07l-3.87 -2.25c-0.7,-0.42 -1.28,-0.76 -1.99,-1.15l-5.75 -3.35c-3.02,-1.63 -6.73,-4.03 -9.73,-5.65l-3.87 -2.25c-0.88,-0.5 -1.3,-0.72 -2.25,-0.27 -0.64,0.3 -1.25,1 -1.25,1.89z"/>
   <path class="fil0" d="M8.94 91.62c0,1.53 2.85,2.78 4.56,3.76 3.98,2.27 8.46,5.01 12.33,7.12 1.71,0.93 9.95,6.06 10.88,6.06 1.69,0 3.34,-2.13 1.04,-3.7 -2.16,-1.49 -10.95,-6.42 -13.62,-8.03l-11.64 -6.87c-1.61,-0.98 -3.55,-0.28 -3.55,1.66z"/>
  </g>
 </g>
</svg>
