<svg id="Слой_1" data-name="Слой 1" xmlns="http://www.w3.org/2000/svg" width="807.85" height="700.02" viewBox="0 0 807.85 700.02"><title>Безымянный-2</title><g id="_1667960955504" data-name=" 1667960955504"><path d="M-99.1,45.74H124.12V341.56H-99.1ZM-359.16,234.28h241.64V341.56H-359.16Zm502.79,14.09V234.28H375.51V341.56H143.63V248.37ZM-359.16,135.68h241.64v80.18H-359.16Zm502.79,14.08V135.68H375.51v80.18H143.63l-.44-58.26c0-1.41-.15-2.7-.11-3.47.1-2,.55-1.12.55-4.37Zm-502.79-104h241.64v71.52H-359.16ZM143.63,66.35V45.76H375.51v71.52H143.63l-.44-40.95c-.54-5.85.44-7.52.44-10ZM-394.92,34.92c0,12.38,6.77,10.84,17.34,10.84V350.25c0,5.84,5.36,9.75,10.83,9.75H384.18c4.23,0,9.76-4.13,9.76-7.58V45.74c6,0,20.81,2.33,18.8-10.34-.78-4.92-5-8.08-10.14-8.08H-383c-5.21,0-11.92,3-11.92,7.58Z" transform="translate(394.92 340.02)" style="fill:#689aa1;fill-rule:evenodd"/><path d="M188.05-168.81H375.51V-107H188.05Zm0-71.52H375.51v52H188.05Zm0-81.27H375.51v61.77H188.05Zm-18.42-9.75v234c0,5.25,3.43,8.67,8.67,8.67H385.24c5.24,0,8.67-3.42,8.67-8.67v-234c0-5.24-3.43-8.67-8.67-8.67h-207C173.06-340,169.63-336.59,169.63-331.35Z" transform="translate(394.92 340.02)" style="fill:#689aa1;fill-rule:evenodd"/><path d="M-359.16-321.6H-171.7V-107H-359.16Zm-18.42-9.75v234c0,4,3,8.67,6.5,8.67h209.13c5.24,0,8.67-3.42,8.67-8.67v-234c0-5.24-3.43-8.67-8.67-8.67h-207C-374.15-340-377.58-336.59-377.58-331.35Z" transform="translate(394.92 340.02)" style="fill:#689aa1;fill-rule:evenodd"/><path d="M-18.91-217.57v-104H43.94v105.11c0,3.84,28.57,26,30.61,27.9l32.23,27.36H-85c2.87-4.28,28.36-24.2,32.85-27.83,2.53-2.05,33.25-25.87,33.25-28.51Zm-59.6-113.78a9.57,9.57,0,0,0,9.39,9.75,2.16,2.16,0,0,0,.36,0h31.43v100.78c-4.49,1.19-38.82,32.08-42,34.92-7.65,6.81-40.35,32.13-40.35,36.59,0,5,1.45,7.59,9.76,7.59H130.63c9.25,0,10.84-3,10.84-9.76,0-4.17-30.16-27.7-34.41-31.68l-30.15-26.2c-2.42-1.88-2.93-2.79-5.12-4.64-2.66-2.26-9.42-6.22-9.42-10.08V-321.6c12.27,0,34.67,3,34.67-8.67,0-4.46-3.64-9.75-7.58-9.75H-69.84C-75.08-340-78.51-336.59-78.51-331.35Z" transform="translate(394.92 340.02)" style="fill:#689aa1;fill-rule:evenodd"/><path d="M-63.34,171.44H88.36V278.71H-63.34Zm-18.42-8.67V288.46c0,5.24,3.43,8.67,8.67,8.67H98.11c5.25,0,8.67-3.43,8.67-8.67V160.6c0-3.45-5.52-7.59-9.75-7.59H-69.84C-76.6,153-81.76,156.11-81.76,162.77Z" transform="translate(394.92 340.02)" style="fill:#689aa1;fill-rule:evenodd"/><path d="M-116.44-126.55c0,5.64,1.32,10.83,8.67,10.83H127.37c8.33,0,13.25-18.42-4.33-18.42H-104.52c-5.21,0-11.92,3-11.92,7.59Z" transform="translate(394.92 340.02)" style="fill:#689aa1;fill-rule:evenodd"/><path d="M-85,125.92c0,5.81,2.55,9.76,8.67,9.76H96c8.49,0,10.62-18.42-2.17-18.42h-169C-80.5,117.26-85,120.33-85,125.92Z" transform="translate(394.92 340.02)" style="fill:#689aa1;fill-rule:evenodd"/><path d="M227.06,80.41c0,6.42,3.93,10.84,9.75,10.84h37.93c17.88,0,11.87-18.42,4.33-18.42-10.9,0-44.61-1.88-48.94,2-.84.75-3.07,4.08-3.07,5.6Z" transform="translate(394.92 340.02)" style="fill:#689aa1;fill-rule:evenodd"/><path d="M227.06,261.37c0,5.25,3.43,8.67,8.67,8.67h43.34c8.15,0,13.24-18.42-4.33-18.42H239C232.24,251.62,227.06,254.72,227.06,261.37Z" transform="translate(394.92 340.02)" style="fill:#689aa1;fill-rule:evenodd"/><path d="M227.06,162.77c0,5.24,3.43,8.67,8.67,8.67h43.34c8.15,0,13.24-18.43-4.33-18.43H239C232.24,153,227.06,156.11,227.06,162.77Z" transform="translate(394.92 340.02)" style="fill:#689aa1;fill-rule:evenodd"/><path d="M-207.46-181.82v40.1c0,13,18.42,12.65,18.42,1.08v-41.18C-189-194.23-207.46-194.23-207.46-181.82Z" transform="translate(394.92 340.02)" style="fill:#689aa1;fill-rule:evenodd"/><path d="M-261.64,270h43.35c12.24,0,11.38-18.42-1.09-18.42h-39c-5.23,0-9.31,3.22-10.24,8.18C-269.42,264-265.52,270-261.64,270Z" transform="translate(394.92 340.02)" style="fill:#689aa1;fill-rule:evenodd"/><path d="M-261.64,171.44h43.35c12.24,0,11.38-18.43-1.09-18.43h-39c-5.23,0-9.31,3.22-10.24,8.18C-269.42,165.42-265.52,171.44-261.64,171.44Z" transform="translate(394.92 340.02)" style="fill:#689aa1;fill-rule:evenodd"/><path d="M-258.39,91.25h39c12.73,0,13.09-18.42,1.09-18.42h-41.18c-12.87,0-11.9,18.42,1.08,18.42Z" transform="translate(394.92 340.02)" style="fill:#689aa1;fill-rule:evenodd"/><path d="M-1.58,79.33c0,16.52,22.76,14.66,22.76,1.08C21.18,63.92-1.58,65.67-1.58,79.33Z" transform="translate(394.92 340.02)" style="fill:#689aa1;fill-rule:evenodd"/><path d="M-86.1,79.33c0,15,22.76,16.69,22.76,0C-63.34,63.74-86.1,66.45-86.1,79.33Z" transform="translate(394.92 340.02)" style="fill:#689aa1;fill-rule:evenodd"/><path d="M-43.84,79.33c0,15.91,22.76,15.81,22.76,0C-21.08,65.05-43.84,65.42-43.84,79.33Z" transform="translate(394.92 340.02)" style="fill:#689aa1;fill-rule:evenodd"/><path d="M40.68,77.16c0,17.7,14,15,18.18,11.68C71,79,55.69,61.84,44.37,71.09,43.09,72.09,40.68,75.36,40.68,77.16Z" transform="translate(394.92 340.02)" style="fill:#689aa1;fill-rule:evenodd"/><path d="M82.94,78.25c0,6.85,2,13,10.84,13,14.86,0,14.86-22.76,0-22.76C88.3,68.49,82.94,72.4,82.94,78.25Z" transform="translate(394.92 340.02)" style="fill:#689aa1;fill-rule:evenodd"/></g></svg>