<?xml version="1.0" encoding="UTF-8"?>
<!DOCTYPE svg PUBLIC "-//W3C//DTD SVG 1.1//EN" "http://www.w3.org/Graphics/SVG/1.1/DTD/svg11.dtd">
<!-- Creator: CorelDRAW 2017 -->
<svg xmlns="http://www.w3.org/2000/svg" xml:space="preserve" width="801px" height="700px" version="1.1" style="shape-rendering:geometricPrecision; text-rendering:geometricPrecision; image-rendering:optimizeQuality; fill-rule:evenodd; clip-rule:evenodd"
viewBox="0 0 274.87 240.06"
 xmlns:xlink="http://www.w3.org/1999/xlink">
 <defs>
  <style type="text/css">
   <![CDATA[
    .fil0 {fill:#689AA1}
   ]]>
  </style>
 </defs>
 <g id="Layer_x0020_1">
  <metadata id="CorelCorpID_0Corel-Layer"/>
  <g id="_1667960950544">
   <path class="fil0" d="M267.13 48.11l-217.58 0c0.09,1.11 1.44,4.52 1.86,5.59 2.76,6.91 5.55,15.81 8.25,23.05 6.39,17.09 12.27,34.76 18.63,51.78l4.05 11.61c34.52,0 69.05,0 103.57,0 11.16,0 23.66,0.53 34.65,0 3.94,-0.19 10.1,-2.74 12.74,-4.4 9.37,-5.87 11.44,-10.57 14.24,-20.4l19.59 -67.23zm-110.65 -41.35l-63.34 0 0 34.65 63.34 0 0 -34.65zm70.41 15.65l-63.71 0 0 19 63.71 0 0 -19zm-63.71 -19.38l0 12.67 65.95 0c2.97,0 4.47,1.49 4.47,4.47l0 21.24 38 0c5.78,0 2.4,7.73 1.07,11.87 -4.27,13.37 -8.71,30.21 -12.86,44.15 -2.29,7.68 -5.25,18.93 -7.72,26.18 -4.17,12.28 -15.9,20.3 -28.2,22.84 -2.02,0.41 -3.3,0.21 -5.46,0.5 -6.5,0.87 -15.27,0.27 -22.46,0.27l-113.63 0c-8.02,-0.01 -9.88,1.43 -15.56,7.16 -6.98,7.04 -11.42,24.07 -11.64,33.82l169.52 0c3.35,0 3.82,6.7 -0.75,6.7l-172.5 0c-2,0 -3.35,-1.51 -3.35,-3.72 0,-15.15 4.72,-32.09 15.37,-42.75 2.95,-2.95 7.77,-6.81 12.2,-7.17 -0.4,-1.7 -0.96,-3.12 -1.6,-4.74 -4.09,-10.35 -8.3,-23.94 -12.4,-34.54 -1.27,-3.28 -2.3,-6.5 -3.46,-9.58 -8.34,-22.27 -16.57,-46.38 -24.69,-68.83 -1.28,-3.56 -2,-6.29 -3.96,-9.44 -1.53,-2.46 -4.45,-4.9 -7.37,-6.05 -9.82,-3.88 -22.15,2.46 -22.15,-5.42 0,-1.04 1.57,-2.61 2.61,-2.61 15.11,0 26.76,-1.74 34.78,14.77l9.55 26.59 39.5 0 0 -38c0,-2.03 1.32,-3.36 3.35,-3.36l70.41 0c1.81,0 2.98,1.18 2.98,2.98z"/>
   <path class="fil0" d="M209.75 222.1c0,-4.24 -0.16,-7.48 -3.99,-10.9 -1.74,-1.55 -5.59,-3.27 -8.64,-3.19 -3.28,0.09 -6.58,1.64 -8.5,3.39 -0.83,0.76 -1.9,2.37 -2.47,3.49 -6.51,12.68 9.88,24.72 19.79,14.95 1.97,-1.94 3.81,-4.62 3.81,-7.74zm6.71 -2.98c0,6.4 -1.05,10.7 -5.43,15.06 -7.73,7.68 -19.54,7.9 -27.08,0.31 -12.51,-12.59 -3.82,-32.71 13.18,-33.1 5.41,-0.12 10.29,2.4 13.28,5.15 2.69,2.48 6.05,7.61 6.05,12.58z"/>
   <path class="fil0" d="M107.67 222.1c0,-4.24 -0.16,-7.48 -4,-10.9 -7.82,-6.97 -20.96,-1.45 -20.96,8.67 0,4.26 0.44,6.65 3.81,9.97 8.02,7.94 21.15,1.05 21.15,-7.74zm6.71 -2.98c0,3.69 -0.04,6.41 -1.73,9.83 -2.73,5.54 -9.44,11.04 -15.78,11.04 -6.67,0 -10.43,-0.9 -15,-5.5 -10.31,-10.38 -6.25,-25.99 5.31,-31.39 2.11,-0.99 4.52,-1.49 7.59,-1.69 5.3,-0.34 10.43,2.36 13.37,4.95 2.73,2.43 6.24,7.8 6.24,12.76z"/>
  </g>
 </g>
</svg>
