<?xml version="1.0" encoding="UTF-8"?>
<!DOCTYPE svg PUBLIC "-//W3C//DTD SVG 1.1//EN" "http://www.w3.org/Graphics/SVG/1.1/DTD/svg11.dtd">
<!-- Creator: CorelDRAW 2017 -->
<svg xmlns="http://www.w3.org/2000/svg" xml:space="preserve" width="5in" height="0.72185in" version="1.1" style="shape-rendering:geometricPrecision; text-rendering:geometricPrecision; image-rendering:optimizeQuality; fill-rule:evenodd; clip-rule:evenodd"
viewBox="0 0 2317.58 334.59"
 xmlns:xlink="http://www.w3.org/1999/xlink">
 <defs>
  <style type="text/css">
   <![CDATA[
    .fil2 {fill:#232B39}
    .fil3 {fill:#FEB101}
    .fil1 {fill:#232B39;fill-rule:nonzero}
    .fil0 {fill:#FEB101;fill-rule:nonzero}
   ]]>
  </style>
 </defs>
 <g id="Layer_x0020_1">
  <metadata id="CorelCorpID_0Corel-Layer"/>
  <g id="_2353339251408">
   <path class="fil0" d="M1583.65 205.47c19.63,2.85 46.54,4.75 64.27,4.75 51.29,0 82,-16.46 82,-61.1 0,-26.28 -10.45,-41.47 -33.56,-48.76l0 -1.27c17.1,-6.33 28.81,-19.63 28.81,-43.69 0,-39.58 -31.34,-55.4 -77.57,-55.4 -18.36,0 -44.64,2.53 -63.95,5.38l0 200.09zm39.89 -118.41l0 -50.97c9.18,-0.95 17.41,-1.27 23.75,-1.27 22.8,0 37.36,4.12 37.36,26.28 0,19.31 -10.76,25.96 -30.71,25.96l-30.4 0zm0 87.38l0 -55.72 31.98 0c21.85,0 33.88,7.6 33.88,28.49 0,24.06 -15.83,28.49 -40.84,28.49 -6.65,0 -15.2,-0.32 -25.01,-1.27zm121.57 32.61l40.21 0 11.08 -43.69 74.08 0 11.08 43.69 40.84 0c-17.73,-68.39 -40.21,-143.1 -62.37,-203.89l-52.56 0c-22.16,60.79 -44.64,135.5 -62.37,203.89zm60.47 -77.88c8.86,-31.34 18.36,-62.37 27.23,-89.6l1.27 0c8.86,27.23 18.36,58.26 26.91,89.6l-55.4 0zm173.49 77.88l39.89 0 0 -76.3c25.64,-40.84 49.07,-82.32 69.97,-127.59l-41.79 0c-14.25,31.34 -30.08,61.42 -46.86,90.23l-1.27 0c-16.78,-28.81 -32.61,-58.89 -46.86,-90.23l-43.37 0c20.89,45.27 44.64,86.75 70.28,127.59l0 76.3z"/>
   <path class="fil1" d="M323 210.3c22.16,0 40.52,-4.43 60.15,-12.66l-11.4 -32.61c-15.2,5.7 -31.34,9.82 -47.49,9.82 -43.06,0 -50.34,-30.08 -50.34,-68.07 0,-45.91 9.81,-71.87 51.92,-71.87 13.3,0 31.34,2.53 43.69,4.75l5.38 -34.19c-14.88,-2.85 -32.29,-5.38 -49.39,-5.38 -67.43,0 -92.13,39.89 -92.13,104.79 0,67.44 25.33,105.43 89.6,105.43zm70.6 -3.17l40.21 0 11.08 -43.69 74.08 0 11.08 43.69 40.84 0c-17.73,-68.39 -40.21,-143.1 -62.37,-203.89l-52.56 0c-22.16,60.79 -44.64,135.5 -62.37,203.89zm60.47 -77.88c8.87,-31.34 18.36,-62.37 27.23,-89.6l1.27 0c8.86,27.23 18.36,58.25 26.91,89.6l-55.4 0zm145.64 76.3c19.63,2.85 46.54,4.75 64.27,4.75 51.29,0 82,-16.46 82,-61.1 0,-26.28 -10.45,-41.47 -33.56,-48.76l0 -1.27c17.1,-6.33 28.81,-19.63 28.81,-43.69 0,-39.58 -31.34,-55.4 -77.57,-55.4 -18.36,0 -44.64,2.53 -63.95,5.38l0 200.09zm39.89 -118.41l0 -50.97c9.18,-0.95 17.41,-1.27 23.75,-1.27 22.79,0 37.36,4.12 37.36,26.28 0,19.31 -10.76,25.96 -30.71,25.96l-30.39 0zm0 87.38l0 -55.72 31.98 0c21.84,0 33.88,7.6 33.88,28.49 0,24.06 -15.83,28.49 -40.84,28.49 -6.65,0 -15.2,-0.32 -25.01,-1.27zm143.42 32.61l39.89 0 0 -203.89 -39.89 0 0 203.89zm87.38 0l39.26 0 0 -145.64 1.27 0 73.45 145.64 54.14 0 0 -203.89 -39.26 0 0 145.63 -1.27 0 -73.45 -145.63 -54.14 0 0 203.89zm215.6 0l124.11 0 0 -34.83 -84.21 0 0 -52.56 71.55 0 0 -34.19 -71.55 0 0 -47.49 84.21 0 0 -34.83 -124.11 0 0 203.89zm198.82 0l39.89 0 0 -169.06 56.99 0 0 -34.83 -153.87 0 0 34.83 56.99 0 0 169.06zm111.44 -2.53c17.73,2.85 39.89,5.7 57.94,5.7 54.77,0 82,-24.7 82,-62.05 0,-37.36 -26.91,-50.97 -52.87,-60.47 -25.96,-9.5 -44.32,-13.3 -44.32,-31.34 0,-16.78 16.78,-21.53 34.83,-21.53 15.51,0 36.41,3.48 49.07,5.7l5.07 -34.51c-17.41,-3.48 -35.77,-6.01 -52.24,-6.01 -50.97,0 -77.57,23.75 -77.57,59.52 0,36.09 26.91,47.49 55.09,57.94 31.98,11.71 42.42,15.83 42.42,31.34 0,16.78 -12.35,26.6 -40.84,26.6 -15.83,0 -39.26,-3.17 -53.19,-5.7l-5.38 34.83z"/>
   <path class="fil2" d="M2148.58 201.33c6.4,0 10.07,-0.97 14.9,-4.55 3.91,-2.9 42.4,-42.07 49.9,-49.57 1.99,-1.99 6.92,-6.44 8.21,-8.37 3.02,2.03 49.67,50.67 58.29,57.75 6.71,5.51 16.02,6.14 23.75,2.29 7.02,-3.49 13.92,-11.61 13.92,-20.51 0,-3.13 -0.38,-6.39 -1.45,-9.07 -1.38,-3.44 -3.4,-5.93 -5.85,-8.5l-2.71 -2.71c-0.05,-0.05 -0.11,-0.12 -0.15,-0.17 -0.04,-0.05 -0.11,-0.12 -0.15,-0.17l-11.49 -11.46c-0.51,-0.54 -0.56,-0.64 -1.09,-1.14l-3.05 -3c-0.09,-0.08 -0.47,-0.46 -0.49,-0.47l-2.06 -2.08c-0.18,-0.17 -0.47,-0.45 -0.65,-0.63l-13.53 -13.56c-0.05,-0.04 -0.12,-0.11 -0.17,-0.15l-9.11 -9.06c-0.34,-0.35 -0.55,-0.59 -0.94,-0.98 -0.05,-0.05 -0.11,-0.11 -0.16,-0.16l-6.02 -6.09c-0.19,-0.19 -0.38,-0.34 -0.5,-0.45l-0.65 -0.62c-0.68,-0.65 -1.33,-1.64 -2.26,-1.89 0.42,-1.58 14.87,-15.35 16.34,-16.82 5.56,-5.56 38.75,-38.11 41.32,-41.57 7.59,-10.17 6,-21.85 -2.75,-30.64 -7.81,-7.86 -19.48,-9.69 -28.91,-3.24 -3.74,2.56 -48.23,47.6 -57.17,56.64 -0.82,0.83 -1.19,1.71 -2.63,1.83 -0.28,-1.04 -1.47,-1.81 -2.2,-2.58l-1.92 -1.91c-0.05,-0.04 -0.12,-0.11 -0.16,-0.16 -0.08,-0.07 -0.47,-0.48 -0.48,-0.48l-0.3 -0.33c-0.05,-0.05 -0.11,-0.12 -0.15,-0.17l-6.87 -6.83c-0.24,-0.23 -0.23,-0.21 -0.49,-0.46l-4.58 -4.67c-0.5,-0.53 -0.6,-0.58 -1.14,-1.09 -0.25,-0.23 -0.72,-0.71 -0.96,-0.96 -0.51,-0.54 -0.56,-0.64 -1.09,-1.14l-14.68 -14.65c-0.05,-0.05 -0.12,-0.11 -0.17,-0.15l-13.11 -13.03c-0.51,-0.46 -0.73,-0.71 -1.1,-1.13l-8.51 -8.06c-9.58,-7.14 -21.55,-6.06 -29.99,2.4 -4.77,4.78 -7.41,10.6 -7.41,17.78 0,9.71 7.34,15.79 12.35,20.8 4.17,4.17 48.6,48 50.13,50.29 -2.03,3.04 -53.84,52.84 -58.07,58.61 -4.82,6.57 -5.8,15.12 -2.14,22.64 2.42,4.97 6.36,9.11 11.22,11.74 2.16,1.17 5.99,2.66 9.14,2.66z"/>
   <path class="fil3" d="M93.42 12.1c51.59,0 93.42,41.83 93.42,93.42 0,51.59 -41.83,93.42 -93.42,93.42 -51.59,0 -93.42,-41.82 -93.42,-93.42 0,-51.59 41.83,-93.42 93.42,-93.42zm0 33.95c32.85,0 59.47,26.63 59.47,59.47 0,32.85 -26.63,59.47 -59.47,59.47 -32.85,0 -59.47,-26.63 -59.47,-59.47 0,-32.85 26.63,-59.47 59.47,-59.47z"/>
   <path class="fil1" d="M509.17 317.07l5.01 0 0 -57.56 19.54 0 0 -4.43 -44.08 0 0 4.43 19.54 0 0 57.56zm35.04 0l4.81 0 0 -35.81c3.75,-2.7 9.34,-5.39 14.82,-5.39 5.68,0 9.53,2.89 9.53,10.49l0 30.71 4.81 0 0 -31.19c0,-10.3 -6.16,-14.25 -13.96,-14.25 -6.45,0 -11.55,2.79 -15.21,5.49l0 -22.04 -4.81 0 0 61.99zm46.2 -21.66c0,15.3 7.32,22.62 19.15,22.62 6.26,0 11.36,-2.02 15.3,-4.14l-1.93 -3.75c-4.04,2.12 -8.28,3.66 -13.18,3.66 -10.59,0 -14.05,-7.22 -14.44,-17.33l29.55 0c0.19,-1.44 0.29,-2.89 0.29,-4.43 0,-11.07 -4.81,-20.41 -16.46,-20.41 -11.65,0 -18.29,9.05 -18.29,23.77zm4.91 -2.89c0.39,-9.43 4.81,-16.65 13.38,-16.65 9.34,0 11.74,8.76 11.74,16.65l-25.12 0zm56.02 24.54c2.79,0.58 6.06,0.96 9.24,0.96 10.68,0 16.46,-4.24 16.46,-17.04l0 -45.91 -5 0 0 45.72c0,9.53 -3.08,12.8 -11.36,12.8 -2.79,0 -5.78,-0.39 -8.57,-0.96l-0.77 4.43zm38.98 -22.23c0,13.57 5.58,23.2 19.64,23.2 14.05,0 19.64,-9.62 19.64,-23.2 0,-13.57 -5.58,-23.2 -19.64,-23.2 -14.05,0 -19.64,9.63 -19.64,23.2zm4.91 0c0,-10.97 3.66,-18.96 14.73,-18.96 11.07,0 14.73,7.99 14.73,18.96 0,10.97 -3.66,18.96 -14.73,18.96 -11.07,0 -14.73,-7.99 -14.73,-18.96zm46.59 8.95c0,10.3 6.16,14.24 13.96,14.24 6.45,0 11.55,-2.79 15.21,-5.49l0.48 4.52 4.04 0 0 -44.47 -4.81 0 0 36c-3.75,2.7 -9.24,5.2 -14.53,5.2 -5.68,0 -9.53,-2.89 -9.53,-10.49l0 -30.7 -4.81 0 0 31.19zm49.67 13.28l4.81 0 0 -34.56c3.37,-3.95 7.8,-6.26 12.99,-6.26 1.54,0 2.79,0.19 4.43,0.48l0.67 -4.52c-1.16,-0.29 -3.18,-0.58 -5,-0.58 -5.01,0 -9.05,1.93 -13.38,6.45l-0.48 -5.49 -4.04 0 0 44.47zm32.05 0l4.81 0 0 -35.81c3.75,-2.7 9.34,-5.39 14.82,-5.39 5.68,0 9.53,2.89 9.53,10.49l0 30.71 4.81 0 0 -31.19c0,-10.3 -6.16,-14.25 -13.96,-14.25 -6.64,0 -11.84,2.98 -15.59,5.78l-0.39 -4.81 -4.04 0 0 44.47zm46.2 -21.66c0,15.3 7.32,22.62 19.15,22.62 6.26,0 11.36,-2.02 15.31,-4.14l-1.93 -3.75c-4.04,2.12 -8.28,3.66 -13.19,3.66 -10.59,0 -14.05,-7.22 -14.44,-17.33l29.55 0c0.19,-1.44 0.29,-2.89 0.29,-4.43 0,-11.07 -4.81,-20.41 -16.46,-20.41 -11.65,0 -18.29,9.05 -18.29,23.77zm4.91 -2.89c0.39,-9.43 4.81,-16.65 13.38,-16.65 9.34,0 11.74,8.76 11.74,16.65l-25.12 0zm51.3 24.54l1.93 0c-2.5,6.06 -5.1,11.93 -7.8,17.52l4.72 0c9.34,-19.06 17.81,-42.73 23,-61.99l-4.72 0c-3.37,12.51 -8.18,26.85 -13.67,40.62l-0.39 0c-5.49,-13.57 -9.34,-26.18 -13.09,-40.62l-4.91 0c3.27,13.86 10.4,35.13 14.92,44.47zm67.09 0l5.01 0 0 -57.56 19.54 0 0 -4.43 -44.08 0 0 4.43 19.54 0 0 57.56zm23 -22.23c0,13.57 5.58,23.2 19.64,23.2 14.05,0 19.64,-9.62 19.64,-23.2 0,-13.57 -5.58,-23.2 -19.64,-23.2 -14.05,0 -19.64,9.63 -19.64,23.2zm4.91 0c0,-10.97 3.66,-18.96 14.73,-18.96 11.07,0 14.73,7.99 14.73,18.96 0,10.97 -3.66,18.96 -14.73,18.96 -11.07,0 -14.73,-7.99 -14.73,-18.96zm82.78 22.23l5.01 0 0 -22.91c8.08,-12.51 14.53,-24.26 20.89,-39.08l-5.2 0c-5.58,13.09 -11.16,23.68 -17.9,34.56l-0.39 0c-6.83,-10.88 -12.51,-21.46 -17.9,-34.56l-5.39 0c6.16,14.82 12.71,26.57 20.89,39.08l0 22.91zm24.45 -22.23c0,13.57 5.58,23.2 19.64,23.2 14.05,0 19.63,-9.62 19.63,-23.2 0,-13.57 -5.58,-23.2 -19.63,-23.2 -14.05,0 -19.64,9.63 -19.64,23.2zm4.91 0c0,-10.97 3.66,-18.96 14.73,-18.96 11.07,0 14.72,7.99 14.72,18.96 0,10.97 -3.66,18.96 -14.72,18.96 -11.07,0 -14.73,-7.99 -14.73,-18.96zm46.59 8.95c0,10.3 6.16,14.24 13.96,14.24 6.45,0 11.55,-2.79 15.21,-5.49l0.48 4.52 4.04 0 0 -44.47 -4.81 0 0 36c-3.75,2.7 -9.24,5.2 -14.53,5.2 -5.68,0 -9.53,-2.89 -9.53,-10.49l0 -30.7 -4.81 0 0 31.19zm49.67 13.28l4.81 0 0 -34.56c3.37,-3.95 7.8,-6.26 12.99,-6.26 1.54,0 2.79,0.19 4.43,0.48l0.67 -4.52c-1.16,-0.29 -3.18,-0.58 -5.01,-0.58 -5,0 -9.05,1.93 -13.38,6.45l-0.48 -5.49 -4.04 0 0 44.47zm53.42 -0.1c4.43,0.58 11.07,0.96 15.59,0.96 20.41,0 30.42,-8.95 30.42,-31.57 0,-22.91 -10.4,-32.24 -29.55,-32.24 -5.97,0 -12.22,0.87 -16.46,1.54l0 61.31zm5.01 -3.95l0 -53.71c2.6,-0.29 7.03,-0.77 11.07,-0.77 15.98,0 24.83,7.03 24.83,27.91 0,21.08 -9.05,27.05 -25.51,27.05 -2.5,0 -6.83,-0.1 -10.39,-0.48zm53.23 4.04l4.81 0 0 -34.56c3.37,-3.95 7.8,-6.26 12.99,-6.26 1.54,0 2.79,0.19 4.43,0.48l0.67 -4.52c-1.16,-0.29 -3.18,-0.58 -5,-0.58 -5.01,0 -9.05,1.93 -13.38,6.45l-0.48 -5.49 -4.04 0 0 44.47zm26.76 -21.66c0,15.3 7.32,22.62 19.15,22.62 6.26,0 11.36,-2.02 15.31,-4.14l-1.93 -3.75c-4.04,2.12 -8.28,3.66 -13.19,3.66 -10.59,0 -14.05,-7.22 -14.44,-17.33l29.55 0c0.19,-1.44 0.29,-2.89 0.29,-4.43 0,-11.07 -4.81,-20.41 -16.46,-20.41 -11.65,0 -18.29,9.05 -18.29,23.77zm4.91 -2.89c0.39,-9.43 4.81,-16.65 13.38,-16.65 9.34,0 11.74,8.76 11.74,16.65l-25.12 0zm38.6 12.03c0,9.14 6.74,13.47 14.92,13.47 5.87,0 10.78,-2.12 14.63,-5.2l0.48 4.24 4.04 0 0 -31.19c0,-11.17 -7.41,-14.25 -15.69,-14.25 -5.39,0 -10.88,1.35 -14.92,2.6l1.16 3.95c3.85,-1.16 8.95,-2.31 13.47,-2.31 6.35,0 11.17,2.12 11.17,10.49l0 5.39c-3.47,-0.48 -7.99,-0.77 -10.97,-0.77 -10.78,0 -18.29,3.85 -18.29,13.57l0 0zm4.91 -0.1c0,-7.03 5.49,-9.43 13.47,-9.43 2.5,0 7.12,0.29 10.88,0.67l0 13.19c-4.04,3.27 -9.24,5.01 -13.86,5.01 -6.16,0 -10.49,-3.08 -10.49,-9.43l0 0zm44.57 12.61l4.81 0 0 -35.81c4.72,-3.56 9.43,-5.39 13.67,-5.39 5.58,0 9.24,3.18 9.24,10.78l0 30.42 4.81 0 0 -30.8c0,-1.64 -0.19,-3.18 -0.48,-4.52 4.91,-3.95 9.91,-5.87 14.15,-5.87 5.58,0 9.24,3.18 9.24,10.78l0 30.42 4.81 0 0 -30.8c0,-9.43 -5.2,-14.63 -13.19,-14.63 -5.78,0 -10.88,2.6 -16.17,6.74 -2.12,-4.43 -6.26,-6.74 -11.55,-6.74 -5.78,0 -10.88,2.7 -14.92,5.78l-0.39 -4.81 -4.04 0 0 44.47zm96.92 0l5.01 0 0 -30.03 2.79 0c8.66,10.01 17.81,19.63 28.49,30.03l6.84 0 0.09 -0.19c-11.65,-11.16 -22.04,-22.04 -31.28,-32.63 9.53,-8.47 21.18,-19.83 29.65,-28.97l-0.1 -0.19 -6.35 0c-8.66,9.53 -20.31,20.79 -29.94,29.36l-0.19 -0.09 0 -29.26 -5.01 0 0 61.99zm51.59 -54.48l4.81 0 0 -7.51 -4.81 0 0 7.51zm0 54.48l4.81 0 0 -44.47 -4.81 0 0 44.47zm22.23 -10.97c0,8.47 3.66,11.93 10.2,11.93 3.56,0 6.54,-0.96 8.85,-2.12l-1.54 -3.85c-2.89,1.25 -5.1,1.73 -7.03,1.73 -4.52,0 -5.68,-2.98 -5.68,-7.99l0 -29.26 13.38 0 0 -3.95 -13.38 0 0 -13.28 -4.14 0 -0.48 13.47 -6.54 0.39 0 3.37 6.35 0 0 29.55zm25.89 -11.55c0,14.15 5.97,23.49 19.64,23.49 5.58,0 10.88,-1.54 14.63,-3.37l-1.73 -3.85c-4.23,1.93 -8.66,2.89 -12.61,2.89 -11.84,0 -14.92,-8.66 -14.92,-19.25 0,-12.42 4.62,-18.67 14.92,-18.67 3.75,0 8.57,0.77 11.55,1.45l0.87 -4.04c-3.47,-0.86 -8.37,-1.54 -12.32,-1.54 -15.3,0 -20.02,10.01 -20.02,22.91zm44.95 22.52l4.81 0 0 -35.81c3.76,-2.7 9.34,-5.39 14.82,-5.39 5.68,0 9.53,2.89 9.53,10.49l0 30.71 4.81 0 0 -31.19c0,-10.3 -6.16,-14.25 -13.96,-14.25 -6.45,0 -11.55,2.79 -15.21,5.49l0 -22.04 -4.81 0 0 61.99zm46.2 -21.66c0,15.3 7.31,22.62 19.15,22.62 6.26,0 11.36,-2.02 15.3,-4.14l-1.93 -3.75c-4.04,2.12 -8.28,3.66 -13.19,3.66 -10.59,0 -14.05,-7.22 -14.44,-17.33l29.55 0c0.19,-1.44 0.29,-2.89 0.29,-4.43 0,-11.07 -4.81,-20.41 -16.46,-20.41 -11.65,0 -18.29,9.05 -18.29,23.77zm4.91 -2.89c0.39,-9.43 4.81,-16.65 13.38,-16.65 9.34,0 11.74,8.76 11.74,16.65l-25.12 0zm42.64 24.54l4.81 0 0 -35.81c3.75,-2.7 9.34,-5.39 14.82,-5.39 5.68,0 9.53,2.89 9.53,10.49l0 30.71 4.81 0 0 -31.19c0,-10.3 -6.16,-14.25 -13.96,-14.25 -6.64,0 -11.84,2.98 -15.59,5.78l-0.39 -4.81 -4.04 0 0 44.47z"/>
  </g>
 </g>
</svg>
