<?xml version="1.0" encoding="UTF-8"?>
<!DOCTYPE svg PUBLIC "-//W3C//DTD SVG 1.1//EN" "http://www.w3.org/Graphics/SVG/1.1/DTD/svg11.dtd">
<!-- Creator: CorelDRAW 2017 -->
<svg xmlns="http://www.w3.org/2000/svg" xml:space="preserve" width="840px" height="870px" version="1.1" style="shape-rendering:geometricPrecision; text-rendering:geometricPrecision; image-rendering:optimizeQuality; fill-rule:evenodd; clip-rule:evenodd"
viewBox="0 0 453.25 469.56"
 xmlns:xlink="http://www.w3.org/1999/xlink">
 <defs>
  <style type="text/css">
   <![CDATA[
    .fil0 {fill:#232A3A}
   ]]>
  </style>
 </defs>
 <g id="Layer_x0020_1">
  <metadata id="CorelCorpID_0Corel-Layer"/>
  <g id="_2174715960544">
   <path class="fil0" d="M194.34 375.52l64.57 0c0,3.03 0.88,6.75 1.41,9.88l11.13 67.86 -89.65 0 11.14 -67.86c0.53,-3.14 1.4,-6.85 1.4,-9.88zm-178.04 -30.72l0 -31.35 420.65 0 0 31.35c0,7.22 -6.59,14.42 -13.79,14.42l-393.07 0c-7.2,0 -13.79,-7.2 -13.79,-14.42zm0 -265.18c1.66,0.44 2.83,1.42 4.6,2.3 9.88,4.91 19.83,6.42 30.6,2.81 4.02,-1.34 10.78,-4.98 13.55,-7.77 1.97,-1.99 3.56,-4 5.79,-5.49 5.35,7.99 18.1,15.04 28.21,15.04 11.9,0 19.11,-2.01 28.33,-9.28 2.77,-2.18 4.25,-4.83 5.52,-5.76 1.92,1.28 4.34,6.21 11.91,10.04 12.62,6.38 26.3,7.22 38.87,-0.02 7.21,-4.16 9.96,-9.33 12.54,-10.02 0.98,3.66 8.22,8.28 11.26,10.05 23.67,13.8 47.94,-4.01 49.55,-10.05 1.87,0.5 1.72,0.48 2.89,2.13 4.48,6.29 17.76,12.91 26.58,12.91 13.8,0 18.16,-2.07 28.21,-9.4 4.59,-3.35 2.78,-3.73 5.64,-5.64 1.56,1.14 2.12,2.9 5.18,5.48 0.94,0.8 2.13,1.62 3.22,2.42 11.95,8.76 29.42,9.62 42.37,2.12l6.14 -4.52c2.03,-1.95 3.52,-3.99 5.78,-5.5 2.85,4.25 9.98,9.67 14.66,11.67 7.71,3.29 16.35,4.51 24.7,2.62 8.81,-2 11.33,-5.28 14.55,-6.14l0 217.53 -420.65 0 0 -217.53zm398.09 -9.41c-13.79,0 -23.2,-10.53 -23.2,-20.06l0 -33.85 29.46 0c9.15,0 16.3,6.75 16.3,14.42 0,8.75 1.11,19.5 -2.08,26.13 -0.58,1.22 -1.2,2.63 -1.92,3.72 -4.22,6.31 -10.61,9.64 -18.56,9.64zm-398.09 -21.94c0,-12.94 -1.97,-21.02 4.85,-27.75 2.57,-2.54 6.62,-4.22 11.45,-4.22l29.46 0 0 33.85c0,5.14 -3.95,11.23 -6.73,13.96 -13.83,13.59 -39.03,3.83 -39.03,-15.84zm249.51 -1.88l0 -30.09 46.39 0c0,10.14 1.37,33.21 -2.07,40.56 -10.46,22.36 -44.32,15.53 -44.32,-10.47zm-100.31 23.82c-10.48,0 -17.95,-3.89 -22.38,-13.35 -3.43,-7.35 -2.07,-30.42 -2.07,-40.56l46.4 0c0,10.99 1.23,31.04 -1.79,39.59 -1.86,5.27 -6.04,9.47 -10.75,11.82 -2.56,1.28 -5.55,2.5 -9.41,2.5zm187.45 0c-5.15,0 -10.13,-0.59 -14.18,-3.37 -1.16,-0.79 -0.47,-0.41 -1.34,-1.17 -0.69,-0.59 -1.34,-0.96 -1.78,-1.35 -3.29,-2.91 -7.15,-10.25 -7.15,-14.79l0 -33.23 46.39 0c0,7.94 0.8,31.12 -1.32,37.55 -1.3,3.97 -2.08,5.17 -4.32,8.22 -3.42,4.67 -9.92,8.14 -16.3,8.14zm-274.59 -26.95l0 -26.96 46.39 0c0,7.84 0.96,31.37 -0.85,37.39 -1.73,5.77 -4.33,8.98 -8.71,12.6 -7.17,5.95 -23.88,5.74 -31.19,-4.22 -4.28,-5.84 -5.64,-10.64 -5.64,-18.81zm124.76 -1.26l0 -23.82c0,-1.44 0.43,-1.88 1.88,-1.88l43.26 0c1.44,0 1.88,0.44 1.88,1.88 0,6.87 0.59,29.58 -1.15,35.21 -6.93,22.37 -37.2,22.7 -44.56,0.46 -0.91,-2.78 -1.31,-8.13 -1.31,-11.85zm-203.12 -11.28l0 314.71c0,13.31 10.45,25.74 23.06,28.97 8.17,2.1 41.81,1.12 50.92,1.12 34.68,0 69.37,0 104.06,0l-11.98 72.03c-1.36,8.65 0.24,5.13 -17.51,5.67 -10.37,0.32 -12.21,16.34 3.16,16.34l149.83 0c15.22,0 13.19,-15.19 4.38,-16.29 -4.5,-0.56 -11.04,0.37 -15.72,0.04 -3.5,-0.25 -2.34,-2.24 -3.85,-11.19l-8.89 -53.18c-0.85,-4.8 -1.24,-9.09 -2.25,-13.42l142.94 0c5.88,0 7.6,0.02 12.05,-1.12 6.22,-1.59 11.54,-5.43 15.7,-10 1.59,-1.74 4.04,-5.72 5.05,-8.11 1.27,-2.98 2.3,-6.87 2.3,-10.86l0 -314.71c0,-13.03 -9.29,-24.72 -21.84,-28.94 -3.66,-1.23 -10.01,-1.78 -15.14,-1.78l-379.28 0c-12.62,0 -18.64,2.23 -26.09,7.77 -5.37,3.98 -10.9,14.72 -10.9,22.95z"/>
   <path class="fil0" d="M47.64 117.86l45.77 0 0 46.39 -45.77 0 0 -46.39zm-16.3 -10.03l0 64.57c0,5.32 3.53,8.15 8.78,8.15l60.81 0c2.42,0 4.78,-0.83 6.14,-2.01 1.2,-1.05 2.64,-3.42 2.64,-5.51l0 -63.95c0,-4.99 -4.77,-7.52 -10.03,-7.52l-58.3 0c-2.82,0 -4.66,0.39 -6.56,1.59 -1.36,0.87 -3.48,2.94 -3.48,4.68z"/>
   <path class="fil0" d="M47.64 211.9l45.77 0 0 45.76 -45.77 0 0 -45.76zm-16.3 -9.41l0 64.57c0,3.98 4,6.9 8.15,6.9l62.07 0c4.91,0 8.15,-3.24 8.15,-8.15l0 -62.06c0,-5.23 -4.11,-8.15 -7.52,-8.15l-62.7 0c-4.15,0 -8.15,2.92 -8.15,6.89z"/>
   <path class="fil0" d="M234.46 117.86l46.39 0 0 46.39 -46.39 0 0 -46.39zm-15.67 -8.78l0 63.95c0,2.09 1.44,4.46 2.64,5.51 1.35,1.18 3.72,2.01 6.14,2.01l59.55 0c5.81,0 10.03,-2.58 10.03,-8.78l0 -61.43c0,-5.56 -3.9,-8.78 -9.4,-8.78l-60.18 0c-4.94,0 -8.78,3.26 -8.78,7.52z"/>
   <path class="fil0" d="M141.05 117.86l46.4 0 0 46.39 -46.4 0 0 -46.39zm-16.3 -6.27l0 59.56c0,5.92 3.49,9.4 9.41,9.4l60.18 0c5.25,0 8.78,-2.83 8.78,-8.15l0 -63.94c0,-4.14 -4.49,-6.9 -8.78,-6.9l-60.18 0c-6.23,0 -9.41,3.95 -9.41,10.03z"/>
   <path class="fil0" d="M141.05 211.9l46.4 0 0 45.76 -46.4 0 0 -45.76zm-16.3 -7.53l0 59.56c0,2.55 0.59,5.53 1.73,7.05 1.03,1.38 3.57,2.98 5.8,2.98l62.69 0c4.52,0 8.15,-2.5 8.15,-6.9l0 -64.57c0,-4.24 -3.8,-6.89 -8.15,-6.89l-62.69 0c-4.27,0 -7.53,3.84 -7.53,8.77z"/>
   <path class="fil0" d="M357.96 196.22l46.4 0c-0.41,4.86 -1.93,9.83 -2.53,15.03l-2.49 15.69 -33.85 0 -7.53 -30.72zm-38.24 -30.09c0,17.92 -3.55,14.42 17.56,14.42 3.2,13.77 10.18,37.22 12.58,49.48 0.95,4.87 2,12.58 8.73,12.58l48.27 0c5.58,0 7.01,-5.29 7.78,-9.77 1.56,-9.01 7.27,-39.09 7.27,-46.02 0,-8.85 -13.69,-6.9 -18.18,-6.9 -12.75,0 -25.5,0 -38.24,0 -17.66,0 -8.93,1.29 -14.4,-10.67 -1.4,-3.06 -3.77,-5 -8.17,-5l-21.32 0c-1.44,0 -1.88,0.44 -1.88,1.88z"/>
   <path class="fil0" d="M375.52 131.02l0 -13.16 14.42 0c0,4.72 -0.4,13.5 0.64,17.53 0.63,2.42 1.21,1.61 1.86,4.41 -1.88,0.5 -5.41,3.44 -7.05,4.86l-2.35 2.04c-2.93,-1.55 -7.3,-6.17 -10.03,-6.9 0.57,-2.14 1.1,-1.7 1.78,-3.86 0.57,-1.79 0.73,-2.76 0.73,-4.92zm-16.3 -21.94l0 16.3c-6.68,0 -15.67,-1.69 -15.67,8.78 0,3.75 5.21,7.25 7.77,9.15 3.6,2.66 6.45,4.86 10.04,7.52 2.77,2.05 17.18,14.05 21.05,14.05 2.55,0 4.8,-1.44 6.28,-2.5 1.69,-1.2 3.34,-2.55 5.01,-3.77l25.21 -18.68c5.86,-4.6 2.52,-14.55 -3.9,-14.55l-8.77 0c0,-27.57 4.62,-23.82 -38.24,-23.82 -4.52,0 -8.78,3.16 -8.78,7.52z"/>
   <path class="fil0" d="M218.79 202.49l0 64.57c0,2.38 1.25,3.9 2.52,5.01 1.36,1.2 3.05,1.89 5.63,1.89l31.35 0c0,-9.2 1.43,-16.3 -1.89,-16.3l-21.94 0 0 -45.76 46.39 0 0 7.52 16.3 0c0,-9.44 2.41,-23.82 -7.52,-23.82l-62.69 0c-4.48,0 -8.15,2.93 -8.15,6.89z"/>
   <path class="fil0" d="M273.33 241.36l0 32.6 16.3 0 0 -11.28 17.08 16.77 11.28 -10.98 -17.22 -17.56 12.06 -0.15 0 -16.3 -31.98 0c-3.37,0 -7.52,3.38 -7.52,6.9z"/>
   <path class="fil0" d="M389.94 272.08c0,1.44 0.43,1.88 1.88,1.88l14.42 0 0 -15.67 -16.3 0 0 13.79z"/>
   <path class="fil0" d="M351.07 272.08c0,1.44 0.43,1.88 1.88,1.88l14.42 0 0 -15.67 -16.3 0 0 13.79z"/>
  </g>
 </g>
</svg>
