<?xml version="1.0" encoding="UTF-8"?>
<!DOCTYPE svg PUBLIC "-//W3C//DTD SVG 1.1//EN" "http://www.w3.org/Graphics/SVG/1.1/DTD/svg11.dtd">
<!-- Creator: CorelDRAW 2017 -->
<svg xmlns="http://www.w3.org/2000/svg" xml:space="preserve" width="250px" height="250px" version="1.1" style="shape-rendering:geometricPrecision; text-rendering:geometricPrecision; image-rendering:optimizeQuality; fill-rule:evenodd; clip-rule:evenodd"
viewBox="0 0 35.18 35.18"
 xmlns:xlink="http://www.w3.org/1999/xlink">
 <defs>
  <style type="text/css">
   <![CDATA[
    .fil0 {fill:white}
   ]]>
  </style>
 </defs>
 <g id="Layer_x0020_1">
  <metadata id="CorelCorpID_0Corel-Layer"/>
  <path class="fil0" d="M17.59 2.93c8.08,0 14.66,6.58 14.66,14.66 0,8.08 -6.58,14.66 -14.66,14.66 -8.08,0 -14.66,-6.58 -14.66,-14.66 0,-8.08 6.58,-14.66 14.66,-14.66zm0 -2.93c-9.71,0 -17.59,7.88 -17.59,17.59 0,9.71 7.88,17.59 17.59,17.59 9.71,0 17.59,-7.88 17.59,-17.59 0,-9.71 -7.88,-17.59 -17.59,-17.59zm-2.93 14.66l-2.93 0 0 2.93 2.93 0 0 8.8 4.4 0 0 -8.8 2.66 0 0.27 -2.93 -2.93 0 0 -1.22c0,-0.7 0.14,-0.98 0.81,-0.98l2.12 0 0 -3.66 -3.53 0c-2.63,0 -3.8,1.16 -3.8,3.38l0 2.48 0 0z"/>
 </g>
</svg>
