<?xml version="1.0" encoding="UTF-8"?>
<!DOCTYPE svg PUBLIC "-//W3C//DTD SVG 1.1//EN" "http://www.w3.org/Graphics/SVG/1.1/DTD/svg11.dtd">
<!-- Creator: CorelDRAW 2017 -->
<svg xmlns:xlink="http://www.w3.org/1999/xlink" xmlns="http://www.w3.org/2000/svg" xml:space="preserve" width="1.32865in" height="1.53334in" version="1.1"
style="shape-rendering:geometricPrecision; text-rendering:geometricPrecision; image-rendering:optimizeQuality; fill-rule:evenodd; clip-rule:evenodd"
 viewBox="0 0 155.07 178.96">
 <defs>
  <style type="text/css">
   <![CDATA[
    .fil0 {fill:#699BA6}
   ]]>
  </style>
 </defs>
 <g id="Layer_x0020_1">
  <metadata id="CorelCorpID_0Corel-Layer"/>
  <g id="_2178409947248">
   <path class="fil0" d="M7.12 166.25l0 -153.81c0,-3.3 2.4,-5.45 5.73,-5.45l91.5 0 0 41.07c0,2.75 1.32,4.33 4.05,4.33l39.4 0 0 113.16c0,1.51 0.41,2.2 -1.11,4.2 -0.65,0.85 -2.28,1.81 -3.78,1.81l-130.76 0c-1.31,0 -2.96,-0.86 -3.58,-1.59 -0.8,-0.95 -1.45,-2.03 -1.45,-3.72zm104.5 -155.63l26.86 28.19c0.69,0.7 1.55,1.43 2.16,2.17 0.97,1.16 2.58,2.62 3.06,3.23 0.38,0.5 0.74,0.76 1.04,1.2l-33.11 0 0 -34.79zm-111.62 1.54l0 154.65c0,3.63 1.58,6.39 3.88,8.7 2.06,2.08 5.02,3.46 9.12,3.46l129.08 0c3.99,0 7.04,-1.37 9.05,-3.39 2.27,-2.29 3.95,-4.81 3.95,-8.49l0 -119.59c0,-2.39 -1.65,-3.05 -2.75,-4.37 -0.31,-0.37 -0.35,-0.48 -0.7,-0.83 -0.53,-0.52 -0.94,-0.94 -1.47,-1.46l-8.45 -8.87c-1.02,-1.02 -1.84,-1.98 -2.86,-3 -1.02,-1.02 -1.84,-1.98 -2.86,-3l-8.52 -8.94c-2.72,-2.72 -5.73,-6.15 -8.45,-8.87l-4.33 -4.47c-1.36,-1.41 -2.68,-3.67 -5.13,-3.67l-96.53 0c-5.62,0 -9.6,2.75 -11.78,7.08 -0.66,1.3 -1.21,3.18 -1.21,5.08z"/>
   <path class="fil0" d="M107.15 141.66l-2.51 0 0 -25.29c3.77,0 6.5,-0.07 9.8,2.21 6.31,4.36 7.36,13.66 1.69,19.34 -1.99,1.99 -5.05,3.74 -8.98,3.74zm-24.59 -45.4c0,-7.01 5.81,-12.71 12.43,-12.71l2.24 0 0 25.29c-2.95,0 -4.71,0.11 -7.45,-1.21 -2.16,-1.03 -2.91,-1.8 -4.32,-3.36 -0.32,-0.36 -0.41,-0.49 -0.66,-0.87 -1.34,-2.02 -2.23,-4.38 -2.23,-7.13zm14.81 -27.38l0 7.12c-4.16,0 -8.27,0.48 -11.54,2.43 -1.34,0.8 -3.18,2 -4.29,3.12 -3.22,3.23 -6.25,8.26 -6.25,13.31 0,4.25 0.06,6.28 2.05,10.24 1.22,2.43 2.25,3.75 4.13,5.65 3.3,3.33 8.73,5.62 13.8,5.62l2.1 0 0 25.29 -17.18 0c-1.98,0 -3.63,1.79 -3.63,3.07 0,1.34 -0.01,2.45 1.31,3.44 0.74,0.56 1.64,0.89 2.88,0.89l16.62 0 0 6.99c0,4.79 7.26,4.74 7.26,0.14l0 -7.12c7.92,0 10.9,-1.18 16.23,-5.43 0.62,-0.5 1.88,-1.99 2.37,-2.65 0.78,-1.04 1.34,-1.89 1.94,-3.09 2.53,-5.08 2.97,-11.28 0.74,-16.53 -1.2,-2.83 -2.08,-4.05 -3.99,-6.21 -3.24,-3.69 -8.86,-6.46 -13.8,-6.46l-3.49 0 0 -25.29 18.58 0c5.49,0 5.47,-7.4 0.14,-7.4l-18.72 0c0,-1.73 0.22,-7.26 -0.28,-8.39 -0.11,-0.25 -0.49,-0.79 -0.68,-1 -2.1,-2.31 -6.31,-0.71 -6.31,2.26z"/>
   <path class="fil0" d="M20.26 43.87c0,1.68 1.3,3.35 2.93,3.35l43.59 0c1.84,0 4.09,-3.26 1.79,-5.56 -0.48,-0.48 -1.31,-1.01 -2.21,-1.01l-42.89 0c-1.62,0 -3.21,1.63 -3.21,3.21z"/>
   <path class="fil0" d="M20.26 27.24c0,1.83 1.49,3.35 3.35,3.35l42.75 0c1.69,0 3.14,-1.6 3.19,-3.22 0.05,-1.66 -1.39,-3.34 -3.05,-3.34l-43.17 0c-0.79,0 -1.72,0.53 -2.13,0.94 -0.42,0.42 -0.94,1.5 -0.94,2.27z"/>
   <path class="fil0" d="M20.26 61.89c0,1.91 1.55,3.35 3.49,3.35l20.96 0c1.8,0 3.35,-1.35 3.35,-2.93 0,-1.04 -0.05,-1.82 -0.81,-2.68 -0.27,-0.31 -1.31,-0.95 -1.84,-0.95l-22.21 0c-1.56,0 -2.93,1.64 -2.93,3.21z"/>
  </g>
 </g>
</svg>
