<?xml version="1.0" encoding="UTF-8"?>
<!DOCTYPE svg PUBLIC "-//W3C//DTD SVG 1.1//EN" "http://www.w3.org/Graphics/SVG/1.1/DTD/svg11.dtd">
<!-- Creator: CorelDRAW 2017 -->
<svg xmlns:xlink="http://www.w3.org/1999/xlink" xmlns="http://www.w3.org/2000/svg" xml:space="preserve" width="1.5705in" height="1.53334in" version="1.1"
style="shape-rendering:geometricPrecision; text-rendering:geometricPrecision; image-rendering:optimizeQuality; fill-rule:evenodd; clip-rule:evenodd"
 viewBox="0 0 300.84 293.72">
 <defs>
  <style type="text/css">
   <![CDATA[
    .fil0 {fill:#699BA6}
   ]]>
  </style>
 </defs>
 <g id="Layer_x0020_1">
  <metadata id="CorelCorpID_0Corel-Layer"/>
  <g id="_2178410201872">
   <path class="fil0" d="M50.75 212.76l57.83 0c4.14,0 6.61,-5.89 9.44,-10.15 0.4,-0.59 0.65,-1.09 1.08,-1.75l8.69 -13.73c3.3,-5.41 7.73,-11.77 10.92,-17.17l6.68 -10.31 0 123.68 -94.65 0 0 -70.57zm105.27 -52.63c0.04,0.04 0.09,0.06 0.1,0.13l0.39 0.56c0.21,0.33 0.28,0.46 0.53,0.88 6.99,11.81 14.74,23.91 21.87,35.73l6.25 10.27c1.28,2.13 2.81,5.06 6.03,5.06l59.48 0 0 70.34 -94.65 0 0 -122.97zm4.48 -13.69l96.06 0 7.39 13.85c0.38,0.7 0.57,0.9 0.95,1.65l11.17 20.93c2.62,4.69 7.06,13.65 9.33,17.34 0.4,0.64 0.71,1.14 0.9,1.93l-92.29 0c-0.29,-1.07 -28.18,-46.71 -29.31,-48.58l-3.75 -6.16c-0.11,-0.19 -0.17,-0.3 -0.25,-0.46 -0.02,-0.05 -0.2,-0.49 -0.21,-0.5zm-54.99 55.7l-90.64 0c0.26,-1.1 16.65,-28.04 17.51,-29.46l13.66 -22.69c0.68,-1.14 1.48,-2.36 2.11,-3.55l92.52 0c-0.37,0.71 -0.65,1.04 -1.08,1.75l-12.09 19.06c-1.52,2.37 -2.83,4.57 -4.39,6.94 -1.55,2.36 -2.87,4.67 -4.39,6.94 -1.52,2.27 -2.84,4.58 -4.39,6.94l-8.83 14.07zm-105.5 4.96c0,3.42 2.61,5.66 5.67,5.66l34.46 0 0 75.53c0,1.46 0.56,2.89 1.24,3.72 0.67,0.81 2.06,1.71 3.48,1.71l211.95 0c2.44,0 4.72,-2.28 4.72,-4.72l0 -76.24 34.46 0c3.53,0 6.79,-3.53 3.5,-8.92l-9.32 -17.35c-0.52,-1.05 -0.89,-1.63 -1.41,-2.6 -0.94,-1.75 -1.64,-3.23 -2.6,-4.95l-12.03 -22.43c-0.51,-1 -0.9,-1.54 -1.42,-2.59 -2.21,-4.5 -5.78,-10.47 -8.1,-15.03 -0.87,-1.71 -2.13,-3.3 -4.48,-3.3l-215.26 0c-3.48,0 -5.14,4.23 -7.04,7.36 -0.96,1.58 -1.75,2.97 -2.74,4.58l-24.55 40.83c-0.98,1.64 -1.81,2.96 -2.74,4.58l-2.75 4.57c-1.28,2.3 -5.03,7.4 -5.03,9.6z"/>
   <path class="fil0" d="M91.11 59.11c0,9.63 2.21,17.57 5.12,24.38 2.25,5.26 6.23,11.34 10.16,15.57 1.22,1.31 1.68,2.14 3.54,3.78 0.47,0.42 0.59,0.41 1.06,0.83 8.99,7.99 19.29,13.03 31.29,14.73 11.37,1.61 22.67,0.3 32.61,-4.53l4.57 -2.28c0.8,-0.44 1.35,-0.75 2.09,-1.21l11.46 -9.07c0.73,-0.72 0.97,-1.2 1.65,-1.9 4.63,-4.79 8,-10.54 10.69,-16.69 1.63,-3.72 4.24,-12.5 4.24,-16.29 0,-3.99 -4.14,-6.62 -7.81,-4.74 -1.6,0.82 -2.55,2.07 -2.83,4.25 -1.22,9.34 -5.07,17.85 -10.57,24.6 -3.95,4.85 -9.63,9.61 -15.53,12.55 -3.4,1.7 -6.24,2.88 -10.23,3.94 -19.7,5.21 -38.53,-2 -51.04,-17.18 -3.33,-4.04 -5.64,-8.78 -7.57,-13.68 -2.26,-5.74 -2.31,-9.83 -2.96,-15.45 -0.26,-2.23 0.61,-8.52 1.09,-10.88 1.47,-7.29 4.85,-15.09 9.57,-20.64 0.98,-1.15 1.96,-2.11 2.86,-3.28 1.01,-1.31 1.95,-1.78 3.03,-2.87 0.67,-0.68 0.97,-0.84 1.64,-1.42 0.62,-0.54 0.99,-0.86 1.7,-1.37 1.19,-0.85 2.51,-1.74 3.69,-2.45 0.68,-0.41 1.17,-0.71 1.96,-1.11 2.42,-1.23 3.22,-1.81 6.09,-2.88 7.41,-2.75 11.54,-3.1 19.56,-3.1 2.45,0 8.37,1.9 9.96,-3.26 0.57,-1.85 0.29,-4.05 -1.06,-5.4 -1.57,-1.56 -3.01,-1.48 -5.31,-1.77 -5.36,-0.68 -12.2,-0.1 -17.33,0.93 -12.24,2.44 -22.16,8.57 -30.8,17.11 -9.71,9.6 -16.58,25.94 -16.58,40.78z"/>
   <path class="fil0" d="M154.84 62.89c-0.98,-1.46 -5.73,-5.7 -7.5,-7.61l-2.48 -2.72c-1.75,-1.75 -3.33,-3.33 -5.07,-5.07 -2.37,-2.37 -5.45,-6.54 -9.83,-2.64 -4.92,4.38 1.76,9.43 3.7,11.37 2.05,2.05 17.13,17.44 18.53,18.29 1.98,1.2 3.27,1.06 5.18,0.11 1.5,-0.75 4.27,-3.54 5.56,-4.83 1.23,-1.23 2.31,-2.08 3.54,-3.3l10.62 -10.15c0.67,-0.62 1.08,-0.83 1.78,-1.53l12.51 -11.8c1.18,-1.09 2.2,-2.41 3.46,-3.38 1.41,-1.09 2.39,-2.22 3.62,-3.46l10.63 -9.91c2.07,-1.91 2.65,-2.65 2.65,-5.37 0,-3.53 -3.99,-6.11 -7.72,-4.18 -0.91,0.47 -1.03,0.87 -1.82,1.49l-3.5 3.35c-0.75,0.75 -1.13,0.99 -1.89,1.65 -1.15,1.01 -2.19,2.21 -3.3,3.31l-3.55 3.3c-1.23,1.23 -2.31,2.08 -3.54,3.3 -0.61,0.61 -1.05,1.04 -1.65,1.65l-15.81 14.87c-1.23,1.08 -2.2,2.34 -3.43,3.42l-7.08 6.61c-1.28,1.28 -2.09,2.24 -3.6,3.25z"/>
  </g>
 </g>
</svg>
