<?xml version="1.0" encoding="UTF-8"?>
<!DOCTYPE svg PUBLIC "-//W3C//DTD SVG 1.1//EN" "http://www.w3.org/Graphics/SVG/1.1/DTD/svg11.dtd">
<!-- Creator: CorelDRAW 2017 -->
<svg xmlns="http://www.w3.org/2000/svg" xml:space="preserve" width="250px" height="250px" version="1.1" style="shape-rendering:geometricPrecision; text-rendering:geometricPrecision; image-rendering:optimizeQuality; fill-rule:evenodd; clip-rule:evenodd"
viewBox="0 0 34.99 34.99"
 xmlns:xlink="http://www.w3.org/1999/xlink">
 <defs>
  <style type="text/css">
   <![CDATA[
    .fil0 {fill:white}
   ]]>
  </style>
 </defs>
 <g id="Layer_x0020_1">
  <metadata id="CorelCorpID_0Corel-Layer"/>
  <g id="_2175063169776">
   <path class="fil0" d="M16.74 2.97c1.99,0 2.48,-0.05 4.5,0.46 1.17,0.29 2.28,0.75 3.31,1.35 0.11,0.06 0.19,0.09 0.31,0.16l2.23 1.61 1.3 1.28c1.3,1.56 1.94,2.62 2.75,4.59 0.44,1.08 0.88,3.09 0.88,4.32 0,1.99 0.05,2.48 -0.46,4.5 -0.1,0.43 -0.24,0.9 -0.4,1.29 -0.69,1.69 -1.06,2.38 -2.15,3.85 -0.56,0.76 -0.99,1.14 -1.64,1.8 -0.4,0.4 -0.99,0.84 -1.45,1.18 -0.72,0.52 -1.36,0.87 -2.16,1.28 -0.4,0.19 -0.79,0.34 -1.19,0.5 -1.08,0.44 -3.09,0.88 -4.32,0.88 -1.97,0 -2.54,0.05 -4.55,-0.47 -1.41,-0.36 -3.05,-1.12 -4.25,-1.92 -0.2,-0.13 -0.34,-0.25 -0.55,-0.39 -0.18,-0.12 -0.32,-0.25 -0.49,-0.38 -0.38,-0.28 -1.56,-1.39 -1.83,-1.73 -0.09,-0.11 -0.07,-0.12 -0.18,-0.23 -0.11,-0.11 -0.13,-0.12 -0.22,-0.25 -0.06,-0.09 -0.11,-0.14 -0.17,-0.23l-0.58 -0.77c-0.71,-1.07 -1.34,-2.34 -1.75,-3.55 -0.46,-1.38 -0.77,-3.09 -0.73,-4.59 0.06,-2.3 0.28,-3.66 1.21,-5.83 0.31,-0.72 0.93,-1.9 1.42,-2.54 0.58,-0.74 0.68,-0.97 1.43,-1.72 0.73,-0.73 0.81,-0.84 1.6,-1.44 0.5,-0.37 0.7,-0.55 1.31,-0.9 1.95,-1.16 4.47,-2.11 6.82,-2.11zm-16.74 13.83l0 0.1 0 0.09 0 0.1 0 0.1 0 0.09c0,1.81 0.03,2.6 0.52,4.59 0.2,0.79 0.73,2.34 1.11,3.09 0.53,1.06 1.07,2 1.78,2.95 0.08,0.11 0.14,0.21 0.22,0.3 0.05,0.06 0.07,0.06 0.11,0.12l0.85 1.02c0.5,0.49 1.19,1.22 1.74,1.64 0.09,0.07 0.08,0.07 0.16,0.14l0.29 0.23c1.37,1.15 3.09,1.96 4.74,2.6 1.44,0.57 3.65,1.03 5.28,1.03l0.1 0 0.09 0 0.1 0 0.1 0 0.09 0c1.81,0 2.6,-0.03 4.59,-0.52 0.55,-0.14 1.08,-0.3 1.6,-0.51 0.28,-0.11 0.48,-0.18 0.76,-0.29 0.83,-0.33 2.01,-0.95 2.75,-1.44 0.23,-0.16 0.4,-0.27 0.63,-0.42l1.18 -0.92c0.57,-0.47 1.63,-1.53 2.1,-2.1 0.08,-0.09 0.04,-0.05 0.1,-0.13l0.82 -1.05c0.15,-0.23 0.26,-0.4 0.42,-0.63l1.13 -2.02c0.06,-0.13 0.08,-0.22 0.15,-0.37 0.82,-1.64 1.48,-4.56 1.48,-6.39l0 -0.11 0 -0.09 0 -0.1 0 -0.09 0 -0.1c0,-1.81 -0.03,-2.6 -0.52,-4.59 -0.37,-1.45 -1.07,-3.18 -1.85,-4.45 -0.52,-0.86 -1.08,-1.7 -1.73,-2.47 -0.33,-0.39 -1.49,-1.6 -1.82,-1.85 -0.38,-0.28 -0.85,-0.75 -1.46,-1.17 -0.23,-0.15 -0.4,-0.26 -0.63,-0.42 -0.56,-0.37 -1.43,-0.83 -2.02,-1.13 -1.79,-0.9 -4.78,-1.63 -6.76,-1.63l-0.11 0 -0.09 0 -0.1 0 -0.09 0 -0.1 0c-1.81,0 -2.6,0.03 -4.59,0.52 -0.85,0.22 -1.56,0.48 -2.36,0.8 -0.72,0.28 -1.44,0.65 -2.09,1.05 -0.86,0.52 -1.7,1.08 -2.47,1.73 -0.57,0.47 -1.08,1.02 -1.61,1.54 -0.13,0.13 -0.13,0.13 -0.24,0.29 -0.1,0.13 -0.16,0.15 -0.25,0.27l-1.34 1.81c-0.49,0.74 -1.11,1.92 -1.44,2.75 -0.11,0.28 -0.18,0.48 -0.29,0.76 -0.57,1.44 -1.03,3.65 -1.03,5.28z"/>
   <path class="fil0" d="M9.56 26.36l5.89 0 0 -5.89 4.09 0 0 5.89 5.77 0c0.13,0 0.18,-0.04 0.18,-0.18l0 -10.03c-0.32,-0.16 -2.38,-0.71 -2.91,-0.88l-5.17 -1.48c-1.12,-0.28 -2.6,-0.81 -3.76,-1.08l0 -3.73c0,-0.22 0.05,-0.41 -0.18,-0.41l-3.91 0 0 17.79z"/>
  </g>
 </g>
</svg>
