<?xml version="1.0" encoding="UTF-8"?>
<!DOCTYPE svg PUBLIC "-//W3C//DTD SVG 1.1//EN" "http://www.w3.org/Graphics/SVG/1.1/DTD/svg11.dtd">
<!-- Creator: CorelDRAW 2017 -->
<svg xmlns="http://www.w3.org/2000/svg" xml:space="preserve" width="300px" height="300px" version="1.1" style="shape-rendering:geometricPrecision; text-rendering:geometricPrecision; image-rendering:optimizeQuality; fill-rule:evenodd; clip-rule:evenodd"
viewBox="0 0 60.6 60.53"
 xmlns:xlink="http://www.w3.org/1999/xlink">
 <defs>
  <style type="text/css">
   <![CDATA[
    .fil0 {fill:#689AA1}
   ]]>
  </style>
 </defs>
 <g id="Layer_x0020_1">
  <metadata id="CorelCorpID_0Corel-Layer"/>
  <g id="_1667960946064">
   <path class="fil0" d="M36.76 52.22l0 -10.57c0,-2.87 2.11,-4.96 4.96,-4.96l10.58 0c2.03,0 3.76,1.04 4.51,2.72 0.2,0.45 0.44,1.36 0.44,1.97l0 11.25c0,2.4 -2.15,4.55 -4.55,4.55l-11.38 0c-2.62,0 -4.56,-2.28 -4.56,-4.96zm-3.34 -11.51l0 12.18c0,3.92 3.64,7.64 7.5,7.64l12.18 0c3.8,0 7.5,-3.7 7.5,-7.5l0 -11.92c0,-1.72 -0.51,-3.01 -1.36,-4.26 -0.43,-0.63 -0.82,-1.12 -1.39,-1.56 -1.45,-1.11 -2.86,-1.95 -4.88,-1.95l-11.92 0c-2.34,0 -4.21,1.24 -5.66,2.78 -1.08,1.15 -1.97,3.07 -1.97,4.59z"/>
   <path class="fil0" d="M18.42 23.84l-9.78 0c-1.64,0 -2.7,-0.44 -3.64,-1.18 -0.84,-0.67 -1.58,-2.16 -1.58,-3.38l0 -11.38c0,-2.55 2.2,-4.55 4.82,-4.55l10.85 0c1.31,0 2.77,0.57 3.5,1.45 0.82,0.97 1.32,2.02 1.32,3.77l0 10.04c0,3.26 -2.01,5.23 -5.49,5.23zm-10.71 3.34l11.78 0c4.09,0 7.77,-3.91 7.77,-7.5l0 -11.91c0,-1.06 -0.39,-2.38 -0.76,-3.13 -0.23,-0.48 -0.37,-0.79 -0.67,-1.2 -1.45,-1.94 -3.45,-3.44 -6.34,-3.44l-11.92 0c-3.96,0 -7.81,3.91 -7.51,8.17 0.12,1.72 0.02,8.32 0.01,10.58 0,3.09 1.11,5.57 3.59,7.12 1.04,0.66 2.41,1.31 4.05,1.31z"/>
   <path class="fil0" d="M19.36 57.18l-11.39 0c-2.4,0 -4.55,-2.15 -4.55,-4.55l0 -11.39c0,-2.61 2.28,-4.55 4.96,-4.55l10.57 0c3.02,0 4.96,2.16 4.96,5.49l0 10.04c0,2.66 -1.97,4.96 -4.55,4.96zm-12.06 3.35l12.46 0c1.8,0 3.41,-0.82 4.66,-1.91 1.13,-0.99 1.29,-1.16 2.03,-2.65 0.43,-0.84 0.81,-1.82 0.81,-3.08l0 -11.78c0,-1.01 -0.38,-2.31 -0.72,-3.04 -0.45,-0.98 -0.87,-1.57 -1.59,-2.28 -1.36,-1.35 -3.18,-2.45 -5.33,-2.45l-11.91 0c-1.62,0 -2.91,0.62 -3.97,1.26 -0.51,0.32 -1.11,0.77 -1.49,1.18l-1.15 1.54c-0.52,0.93 -1.22,2.67 -1.08,3.98 0.15,1.55 0.05,8.4 0.05,10.52 0,3.25 0.77,5.36 3.33,7.26 0.82,0.6 2.53,1.45 3.9,1.45z"/>
   <path class="fil0" d="M36.76 18.61l0 -10.31c0,-2.88 2.05,-4.95 4.83,-4.95l10.84 0c2.78,0 4.82,2.04 4.82,4.82l0 11.11c0,2.58 -2.17,4.56 -5.22,4.56 -2.37,0 -10.61,0.28 -12.23,-0.36l-1.28 -0.73c-0.62,-0.54 -1.02,-1.11 -1.36,-1.86 -0.26,-0.58 -0.4,-1.42 -0.4,-2.28zm-3.34 -11.24l0 12.31c0,1.91 1.16,3.91 2.37,5.13 0.76,0.75 1.2,1.08 2.18,1.57 0.79,0.4 1.89,0.8 3.08,0.8l11.92 0c2.15,0 3.74,-0.98 5.22,-2.27 1.08,-0.94 2.41,-3.2 2.41,-5.23l0 -11.91c0,-4.12 -3.6,-7.77 -7.5,-7.77l-11.92 0c-1.19,0 -2.25,0.3 -3.08,0.67 -1.67,0.74 -2.94,2.08 -3.82,3.67 -0.35,0.62 -0.86,2.14 -0.86,3.03z"/>
  </g>
 </g>
</svg>
