<?xml version="1.0" encoding="UTF-8"?>
<!DOCTYPE svg PUBLIC "-//W3C//DTD SVG 1.1//EN" "http://www.w3.org/Graphics/SVG/1.1/DTD/svg11.dtd">
<!-- Creator: CorelDRAW 2017 -->
<svg xmlns="http://www.w3.org/2000/svg" xml:space="preserve" width="106px" height="180px" version="1.1" style="shape-rendering:geometricPrecision; text-rendering:geometricPrecision; image-rendering:optimizeQuality; fill-rule:evenodd; clip-rule:evenodd"
viewBox="0 0 14.49 24.67"
 xmlns:xlink="http://www.w3.org/1999/xlink">
 <defs>
  <style type="text/css">
   <![CDATA[
    .fil0 {fill:#689AA1}
   ]]>
  </style>
 </defs>
 <g id="Layer_x0020_1">
  <metadata id="CorelCorpID_0Corel-Layer"/>
  <path class="fil0" d="M2.28 0c-1.81,0 -2.62,1.79 -1.9,3.09 0.19,0.33 1.48,1.55 1.79,1.86 0.82,0.83 1.6,1.61 2.42,2.43 0.83,0.82 1.61,1.6 2.43,2.42 0.38,0.38 2.27,2.22 2.44,2.47 -0.21,0.31 -7.77,7.8 -8.64,8.67 -0.44,0.44 -0.82,0.88 -0.82,1.69 0,1.66 2.02,2.64 3.36,1.63l10.01 -10c0.56,-0.56 1.12,-1.06 1.12,-1.99 0,-0.9 -0.63,-1.49 -1.09,-1.96l-9.16 -9.16c-0.49,-0.48 -1.03,-1.15 -1.96,-1.15z"/>
 </g>
</svg>
