<?xml version="1.0" encoding="UTF-8"?>
<!DOCTYPE svg PUBLIC "-//W3C//DTD SVG 1.1//EN" "http://www.w3.org/Graphics/SVG/1.1/DTD/svg11.dtd">
<!-- Creator: CorelDRAW 2017 -->
<svg xmlns="http://www.w3.org/2000/svg" xml:space="preserve" width="106px" height="180px" version="1.1" style="shape-rendering:geometricPrecision; text-rendering:geometricPrecision; image-rendering:optimizeQuality; fill-rule:evenodd; clip-rule:evenodd"
viewBox="0 0 10.08 17.16"
 xmlns:xlink="http://www.w3.org/1999/xlink">
 <defs>
  <style type="text/css">
   <![CDATA[
    .fil0 {fill:#689AA1}
   ]]>
  </style>
 </defs>
 <g id="Layer_x0020_1">
  <metadata id="CorelCorpID_0Corel-Layer"/>
  <path class="fil0" d="M8.49 17.16c1.26,0 1.83,-1.25 1.32,-2.15 -0.13,-0.23 -1.02,-1.08 -1.24,-1.3 -0.58,-0.57 -1.12,-1.11 -1.69,-1.69 -0.57,-0.57 -1.11,-1.11 -1.69,-1.68 -0.26,-0.26 -1.58,-1.55 -1.69,-1.72 0.14,-0.21 5.4,-5.42 6,-6.03 0.31,-0.31 0.58,-0.61 0.58,-1.17 0,-1.15 -1.41,-1.84 -2.34,-1.13l-6.96 6.95c-0.39,0.39 -0.78,0.74 -0.78,1.38 0,0.63 0.43,1.04 0.76,1.36l6.37 6.38c0.34,0.33 0.72,0.8 1.36,0.8z"/>
 </g>
</svg>
