<?xml version="1.0" encoding="UTF-8"?>
<!DOCTYPE svg PUBLIC "-//W3C//DTD SVG 1.1//EN" "http://www.w3.org/Graphics/SVG/1.1/DTD/svg11.dtd">
<!-- Creator: CorelDRAW 2017 -->
<svg xmlns="http://www.w3.org/2000/svg" xml:space="preserve" width="300px" height="300px" version="1.1" style="shape-rendering:geometricPrecision; text-rendering:geometricPrecision; image-rendering:optimizeQuality; fill-rule:evenodd; clip-rule:evenodd"
viewBox="0 0 71.21 71.21"
 xmlns:xlink="http://www.w3.org/1999/xlink">
 <defs>
  <style type="text/css">
   <![CDATA[
    .fil0 {fill:#689AA1}
   ]]>
  </style>
 </defs>
 <g id="Layer_x0020_1">
  <metadata id="CorelCorpID_0Corel-Layer"/>
  <g id="_1667963276272">
   <path class="fil0" d="M3.91 61l0 -11.59c0,-1.98 0.47,-3.2 1.36,-4.31 0.7,-0.86 2.29,-1.87 3.8,-1.87l13.87 0c2.55,0 5.04,2.62 5.04,5.17l0 13.74c0,1.91 -1.27,3.56 -2.86,4.45 -0.4,0.22 -1.37,0.59 -1.93,0.59l-14.24 0c-2.91,0 -5.04,-2.74 -5.04,-6.18zm-3.91 -12.98l0 14.12c0,1.78 0.75,3.67 1.66,5.01 0.27,0.4 0.68,0.92 1.01,1.26 1.2,1.22 3.79,2.8 6.15,2.8l14.12 0c4.79,0 9.07,-4.34 9.07,-9.83l0 -11.97c0,-2.73 -0.77,-5.39 -2.61,-7.22 -1.66,-1.65 -3.72,-2.99 -6.97,-2.99l-12.85 0c-3.59,0 -7,2.03 -8.57,5.16 -0.46,0.92 -1.01,2.3 -1.01,3.66z"/>
   <path class="fil0" d="M3.91 21.55l0 -11.59c0,-3.27 2.2,-5.93 5.29,-5.93l13.74 0c0.67,0 1.59,0.28 2.02,0.5 0.36,0.18 1.16,0.77 1.46,1.07 0.02,0.02 0.09,0.1 0.12,0.13 0.16,0.18 0.08,0.09 0.17,0.2 0.64,0.76 1.27,2.12 1.27,3.14l0 13.87c0,2.51 -2.73,5.04 -4.92,5.04l-13.99 0c-1.58,0 -3.12,-1.01 -3.83,-1.96 -0.99,-1.31 -1.33,-2.25 -1.33,-4.47zm-3.91 -12.85l0 14.36c0,1.85 0.88,3.71 1.84,5.1 0.85,1.23 2.51,2.46 3.96,3.1 1.09,0.47 2.46,0.75 4.03,0.75l12.1 0c1.75,0 2.96,-0.24 4.18,-0.73 0.62,-0.25 1.01,-0.49 1.57,-0.83 2.5,-1.52 4.33,-4.64 4.33,-8.14l0 -12.1c0,-2.76 -0.68,-5.27 -2.55,-7.16 -0.94,-0.95 -1.47,-1.41 -2.72,-2.06 -1.03,-0.54 -2.41,-0.99 -3.93,-0.99l-13.48 0c-3.54,0 -6.78,2.08 -8.32,5.17 -0.44,0.86 -1.01,2.24 -1.01,3.53z"/>
   <polygon class="fil0" points="39.2,18.02 71.21,18.02 71.21,13.99 39.2,13.99 "/>
   <polygon class="fil0" points="39.2,47.14 71.21,47.14 71.21,43.1 39.2,43.1 "/>
   <polygon class="fil0" points="39.2,67.18 71.21,67.18 71.21,63.14 39.2,63.14 "/>
   <polygon class="fil0" points="39.2,7.94 71.21,7.94 71.21,4.03 39.2,4.03 "/>
   <polygon class="fil0" points="39.2,27.98 71.21,27.98 71.21,24.07 39.2,24.07 "/>
   <polygon class="fil0" points="39.2,57.09 71.21,57.09 71.21,53.19 39.2,53.19 "/>
  </g>
 </g>
</svg>
