<?xml version="1.0" encoding="UTF-8"?>
<!DOCTYPE svg PUBLIC "-//W3C//DTD SVG 1.1//EN" "http://www.w3.org/Graphics/SVG/1.1/DTD/svg11.dtd">
<!-- Creator: CorelDRAW 2017 -->
<svg xmlns="http://www.w3.org/2000/svg" xml:space="preserve" width="5.00002in" height="0.734898in" version="1.1" style="shape-rendering:geometricPrecision; text-rendering:geometricPrecision; image-rendering:optimizeQuality; fill-rule:evenodd; clip-rule:evenodd"
viewBox="0 0 4651.61 683.69"
 xmlns:xlink="http://www.w3.org/1999/xlink">
 <defs>
  <style type="text/css">
   <![CDATA[
    .fil1 {fill:#232B39}
    .fil0 {fill:#FEB101}
    .fil2 {fill:#232B39;fill-rule:nonzero}
   ]]>
  </style>
 </defs>
 <g id="Layer_x0020_1">
  <metadata id="CorelCorpID_0Corel-Layer"/>
  <g id="_2493135222272">
   <path class="fil0" d="M341.84 0c188.8,0 341.84,153.05 341.84,341.84 0,188.8 -153.05,341.84 -341.84,341.84 -188.8,0 -341.84,-153.05 -341.84,-341.84 0,-188.8 153.05,-341.84 341.84,-341.84zm0 124.22c120.19,0 217.62,97.43 217.62,217.62 0,120.19 -97.43,217.62 -217.62,217.62 -120.19,0 -217.62,-97.43 -217.62,-217.62 0,-120.19 97.43,-217.62 217.62,-217.62z"/>
   <path class="fil1" d="M523.78 52.16c43.67,27.52 80.68,64.64 108.07,108.42 -17.38,18.37 -59.73,60.4 -91.46,91.78 -21.74,-48.3 -60.59,-87.23 -108.82,-109.09 35.8,-35.92 73.18,-73.13 92.22,-91.11zm107.87 470.76c-27.53,43.9 -64.75,81.1 -108.67,108.59 -19.2,-17.82 -56.24,-55.17 -91.94,-91.37 48.29,-21.73 87.22,-60.55 109.09,-108.77l19.6 19.64c0.57,0.59 1.51,1.49 2.11,2.06l6.74 6.81c0.05,0.04 1.3,1.26 1.6,1.53l9.98 9.82c1.74,1.62 1.92,1.95 3.57,3.72l37.58 37.48c0.15,0.16 0.34,0.39 0.49,0.55 0.15,0.15 0.35,0.39 0.5,0.55l8.86 8.86 0.48 0.51zm-470.93 108.62c-43.81,-27.43 -80.96,-64.51 -108.47,-108.26 17.54,-18.68 55.06,-55.8 91.4,-91.66 21.9,48.13 60.82,86.88 109.07,108.57 -34.67,34.95 -73.71,74.07 -92,91.35zm-108.89 -470.96c27.36,-43.74 64.33,-80.84 107.96,-108.35l18.84 17.85c1.24,1.38 1.96,2.19 3.61,3.68l42.88 42.6c0.16,0.15 0.39,0.35 0.55,0.5l26.46 26.4c-48.04,21.76 -86.77,60.47 -108.57,108.49 -35.06,-34.85 -68.45,-67.84 -74.65,-74.04 -5.26,-5.26 -11.3,-10.88 -17.08,-17.13z"/>
   <path class="fil2" d="M951.92 530.44c38.08,0 75.01,-8.08 110.21,-23.66l-16.73 -45.58c-28.85,11.54 -60.58,19.62 -91.74,19.62 -88.86,0 -103.28,-66.35 -103.28,-140.79 0,-81.93 17.31,-143.67 106.74,-143.67 25.96,0 59.43,5.19 82.51,9.23l8.08 -47.89c-27.12,-5.77 -59.43,-10.38 -90.01,-10.38 -125.21,0 -164.44,78.47 -164.44,191.56 0,113.67 39.81,191.56 158.67,191.56zm141.94 -83.09c0,54.82 41.54,83.09 91.16,83.09 34.04,0 60.58,-13.27 79.05,-28.27l5.19 22.5 38.66 0 0 -181.18c0,-65.2 -40.97,-91.16 -103.86,-91.16 -32.31,0 -64.62,6.92 -89.44,13.27l9.23 44.43c21.93,-5.77 52.51,-11.54 76.74,-11.54 36.35,0 54.82,12.69 54.82,50.78l0 18.46c-16.16,-2.31 -34.62,-3.46 -49.04,-3.46 -70.39,0 -112.51,27.69 -112.51,83.08l0 0zm53.66 -1.73c0,-30 23.08,-42.7 59.43,-42.7 11.54,0 32.31,1.15 48.47,2.89l0 60.58c-15.58,12.12 -38.66,20.77 -61.16,20.77 -27.7,0 -46.74,-13.85 -46.74,-41.54l0 0zm238.88 66.35c28.28,9.81 65.2,18.46 102.7,18.46 83.67,0 118.86,-43.27 118.86,-137.9 0,-92.9 -34.04,-140.21 -102.13,-140.21 -26.54,0 -47.89,6.92 -66.93,17.31l0 -116.55 -52.51 0 0 358.89zm52.51 -32.89l0 -166.18c17.89,-9.81 36.93,-14.42 55.39,-14.42 43.85,0 60.01,27.12 60.01,94.05 0,62.89 -14.43,92.9 -65.2,92.9 -16.16,0 -34.62,-2.89 -50.2,-6.35zm235.99 -268.88l52.51 0 0 -57.12 -52.51 0 0 57.12zm0 314.46l52.51 0 0 -266.57 -52.51 0 0 266.57zm133.28 0l52.51 0 0 -205.41c16.73,-10.39 40.97,-20.77 65.2,-20.77 30.58,0 45.58,16.16 45.58,49.62l0 176.56 52.51 0 0 -182.91c0,-55.39 -30,-89.44 -86.55,-89.44 -33.47,0 -62.89,12.69 -85.97,28.85l-4.04 -23.08 -39.24 0 0 266.57zm275.81 -130.98c0,92.32 43.85,136.75 121.17,136.75 35.77,0 67.51,-9.81 93.47,-21.92l-16.15 -42.12c-21.93,9.23 -49.05,17.89 -75.59,17.89 -46.16,0 -65.78,-27.12 -69.24,-73.86l160.41 0c2.31,-11.54 3.46,-25.96 3.46,-39.23 0,-71.55 -35.19,-118.86 -104.44,-118.86 -72.12,0 -113.09,51.93 -113.09,141.36zm53.66 -24.81c2.89,-40.97 20.77,-70.39 58.86,-70.39 38.66,0 51.93,31.16 52.51,70.39l-111.36 0zm236.57 84.24c0,54.24 27.7,76.74 72.13,76.74 22.5,0 43.27,-5.77 59.43,-12.69l-12.69 -41.54c-13.84,5.19 -27.69,8.65 -39.23,8.65 -20.2,0 -27.12,-10.97 -27.12,-34.04l0 -148.29 72.13 0 0 -43.85 -72.13 0 0 -76.16 -46.16 0 -4.04 78.47 -41.55 2.31 0 39.23 39.23 0 0 151.17zm162.71 67.51c24.81,5.77 55.97,9.81 83.67,9.81 75.59,0 113.09,-30 113.09,-82.51 0,-46.74 -30.58,-63.47 -77.32,-79.63 -39.24,-13.27 -65.2,-17.31 -65.2,-40.39 0,-18.46 17.31,-29.43 51.93,-29.43 21.35,0 49.62,4.04 69.24,8.08l6.93 -45.58c-21.92,-5.19 -51.35,-8.65 -75.01,-8.65 -66.93,0 -106.74,28.85 -106.74,79.05 0,47.89 37.5,64.62 81.36,79.05 39.23,12.69 61.16,18.46 61.16,40.97 0,24.24 -24.24,32.89 -57.12,32.89 -25.39,0 -57.12,-5.19 -78.47,-9.81l-7.5 46.16zm260.8 1.73c35.77,4.61 80.2,8.08 111.94,8.08 92.32,0 147.13,-29.43 147.13,-109.63 0,-51.93 -23.08,-79.63 -65.78,-91.16l0 -2.31c31.74,-10.38 55.97,-34.62 55.97,-81.36 0,-68.66 -51.35,-98.67 -137.32,-98.67 -34.04,0 -77.32,4.61 -111.94,9.81l0 365.24zm55.39 -212.34l0 -110.21c19.04,-2.31 38.66,-3.46 55.39,-3.46 49.62,0 81.36,9.81 81.36,57.12 0,43.27 -26.54,56.54 -72.7,56.54l-64.05 0zm0 169.06l0 -124.05 65.77 0c51.93,0 80.78,15.58 80.78,63.47 0,53.08 -35.19,62.89 -93.47,62.89 -13.85,0 -31.16,-0.58 -53.08,-2.31zm250.99 -31.74c0,54.82 41.54,83.09 91.16,83.09 34.04,0 60.58,-13.27 79.05,-28.27l5.19 22.5 38.66 0 0 -181.18c0,-65.2 -40.97,-91.16 -103.86,-91.16 -32.31,0 -64.62,6.92 -89.44,13.27l9.23 44.43c21.93,-5.77 52.51,-11.54 76.74,-11.54 36.35,0 54.82,12.69 54.82,50.78l0 18.46c-16.16,-2.31 -34.62,-3.46 -49.04,-3.46 -70.39,0 -112.51,27.69 -112.51,83.08l0 0zm53.65 -1.73c0,-30 23.08,-42.7 59.43,-42.7 11.54,0 32.31,1.15 48.47,2.89l0 60.58c-15.58,12.12 -38.66,20.77 -61.16,20.77 -27.7,0 -46.74,-13.85 -46.74,-41.54l0 0zm289.65 79.05l21.35 0c-14.42,36.93 -28.27,72.13 -42.12,105.01l51.93 0c46.74,-107.9 93.47,-247.53 126.36,-371.59l-51.35 0c-19.04,70.97 -43.27,147.13 -69.24,219.84l-2.31 0c-24.23,-68.09 -45.58,-145.4 -62.89,-219.84l-53.08 0c19.62,85.4 55.97,209.45 81.36,266.57zm174.83 0l54.24 0 0 -57.12 -54.24 0 0 57.12zm239.45 5.77c32.31,0 64.05,-8.08 88.86,-18.46l-14.42 -43.27c-20.77,8.08 -49.05,15 -72.13,15 -53.66,0 -68.09,-36.35 -68.09,-92.32 0,-66.36 20.2,-92.9 73.85,-92.9 19.04,0 43.85,3.46 62.32,6.92l6.92 -44.43c-22.5,-5.19 -46.74,-8.65 -70.39,-8.65 -93.47,0 -126.36,53.66 -126.36,137.9 0,89.43 36.93,140.21 119.44,140.21zm244.07 0c87.13,0 120.02,-55.39 120.02,-139.05 0,-83.67 -32.89,-139.06 -120.02,-139.06 -87.7,0 -120.59,55.39 -120.59,139.06 0,83.66 32.89,139.05 120.59,139.05zm0 -46.16c-54.81,0 -66.93,-40.39 -66.93,-92.9 0,-52.51 12.12,-92.9 66.93,-92.9 54.24,0 66.36,40.39 66.36,92.9 0,52.5 -12.12,92.9 -66.36,92.9zm182.91 40.39l52.51 0 0 -205.99c18.46,-12.12 39.81,-20.19 58.85,-20.19 28.28,0 43.85,17.31 43.85,51.35l0 174.83 52.51 0 0 -180.6c0,-8.08 -0.58,-16.16 -1.73,-23.66 20.77,-14.42 41.54,-21.92 60.01,-21.92 28.85,0 44.43,17.31 44.43,51.35l0 174.83 52.5 0 0 -180.6c0,-55.39 -29.43,-91.74 -84.24,-91.74 -34.04,0 -60.01,13.27 -87.12,32.89 -13.85,-21.35 -36.93,-32.89 -67.51,-32.89 -34.62,0 -61.74,15 -80.78,28.85l-4.04 -23.08 -39.24 0 0 266.57z"/>
  </g>
 </g>
</svg>
