<?xml version="1.0" encoding="UTF-8"?>
<!DOCTYPE svg PUBLIC "-//W3C//DTD SVG 1.1//EN" "http://www.w3.org/Graphics/SVG/1.1/DTD/svg11.dtd">
<!-- Creator: CorelDRAW 2017 -->
<svg xmlns="http://www.w3.org/2000/svg" xml:space="preserve" width="598px" height="600px" version="1.1" style="shape-rendering:geometricPrecision; text-rendering:geometricPrecision; image-rendering:optimizeQuality; fill-rule:evenodd; clip-rule:evenodd"
viewBox="0 0 171.7 172.4"
 xmlns:xlink="http://www.w3.org/1999/xlink">
 <defs>
  <style type="text/css">
   <![CDATA[
    .fil0 {fill:#ffffff}
   ]]>
  </style>
 </defs>
 <g id="Layer_x0020_1">
  <metadata id="CorelCorpID_0Corel-Layer"/>
  <path class="fil0" d="M163 146.91c0,4.08 -3.82,5.58 -6.38,7.19l-4.32 2.46c-5.18,2.72 -8.66,4.69 -14.44,6.13 -9.2,2.28 -18.89,2.16 -27.79,-0.83 -5.13,-1.73 -7.6,-2.93 -12.13,-5.95l-4.18 -3.06 -69.17 -68.96c-1.06,-1.06 -2.76,-2.54 -3.61,-3.63 -1.83,-2.34 -2.78,-2.98 -4.63,-6.22 -0.27,-0.48 -0.42,-0.67 -0.71,-1.1l-1.4 -2.44c-0.21,-0.41 -0.36,-0.74 -0.6,-1.21 -2.98,-5.96 -5.05,-13.84 -5.05,-20.5 0,-6.43 0.1,-8.97 1.9,-15.28 0.14,-0.51 0.22,-0.75 0.36,-1.22 0.78,-2.78 2.32,-5.8 3.7,-8.29l2.4 -4.37c1.17,-2.02 2.49,-4.42 3.91,-6.27 2.21,-2.88 2.85,-4.13 7.4,-4.13 2.7,0 4.39,2.25 5.93,3.79 1.71,1.7 4.35,4.52 6.09,5.89 1.39,1.08 9.92,10.13 12.33,12.31 3.9,3.52 7.35,7.12 11.09,10.85 3.25,3.26 3.67,3.23 3.67,8.08 0,3.56 -7.5,6.71 -9.63,9.58 -1.84,2.49 -3.14,4.51 -3.66,7.88 -0.69,4.49 0.99,9.13 3.07,11.75l16.83 17.76c0.33,0.32 0.62,0.57 0.89,0.91 0.42,0.54 0.39,0.6 0.92,1.12l13.11 13.79c1.99,1.98 3.71,3.95 6.27,5.26 3.72,1.9 8.22,2.21 12.47,0.71 6.76,-2.38 8.57,-9.08 11.9,-11.16 1.48,-0.93 4.28,-1.29 6.14,-0.61 1.08,0.4 1.54,0.7 2.33,1.51l5.77 5.76c2.75,2.75 9.8,10.07 12.43,12.44 0.52,0.47 0.69,0.38 1.14,0.9 1.69,1.92 3.66,4.36 5.7,5.82l6.73 6.62c1.81,1.51 3.22,4.02 3.22,6.72zm-163 -99.93c0,4.19 0.54,8.25 1.26,11.85 1.13,5.57 2.75,9.7 5.15,14.53 0.42,0.86 0.71,1.19 1.13,2.03 0.39,0.81 0.77,1.44 1.23,2.16l4.75 6.55c2.09,2.65 5.4,5.05 7.28,7.65 1.55,2.14 3.93,3.62 5.71,5.59 1.02,1.12 1.98,2.39 3.16,3.39l12.43 12.44c0.67,0.67 1.13,0.88 1.81,1.58 0.58,0.59 1.01,0.99 1.59,1.58l3.16 3.4c1.05,1.06 2.44,1.97 3.38,3.17 1.14,1.47 2.61,2.94 4.07,4.07 0.35,0.27 0.59,0.56 0.92,0.89 1.86,1.88 3.55,4.04 5.64,5.67 2.17,1.7 3.6,4.26 5.79,5.96l1.79 1.6c0.3,0.29 0.53,0.49 0.78,0.8 1.68,2.15 3.85,3.84 5.78,5.75 1.59,1.59 2.96,3.59 4.8,4.92 0.66,0.48 1.17,1.02 1.76,1.64 0.61,0.63 0.73,1.09 1.47,1.69 0.43,0.37 0.45,0.27 0.9,0.68 6.95,6.27 12.78,10 21.79,13.03 11.63,3.92 31.48,4.36 42.26,-2.89 0.5,-0.33 0.63,-0.37 1.14,-0.68l3.03 -1.71c0.5,-0.25 0.71,-0.43 1.13,-0.68 3.1,-1.79 9.53,-5.34 11.92,-7.74 0.4,-0.39 0.44,-0.44 0.74,-0.85 0.76,-1.06 1.49,-1.84 2.11,-3.09 1.54,-3.09 2.37,-7.1 1.46,-10.66 -0.56,-2.2 -0.84,-2.81 -1.91,-4.64 -0.35,-0.59 -0.92,-1.33 -1.38,-1.79 -0.33,-0.34 -0.47,-0.54 -0.75,-0.83l-0.48 -0.43c-0.76,-0.66 -3.72,-4.15 -5.22,-5.41 -0.43,-0.36 -0.45,-0.27 -0.9,-0.67 -0.4,-0.36 -0.57,-0.58 -0.85,-0.97 -0.93,-1.29 -3.57,-3.96 -4.97,-4.97l-4.92 -5.03c-0.28,-0.29 -0.49,-0.54 -0.79,-0.79 -0.43,-0.37 -0.45,-0.27 -0.91,-0.68l-1.58 -1.81c-1.9,-2.27 -3.97,-3.65 -5.76,-5.53 -0.46,-0.48 -0.4,-0.56 -0.79,-1.02 -0.94,-1.13 -7.05,-7.01 -8.46,-7.82 -6.73,-3.86 -14.35,-2.97 -19.69,2.61 -0.38,0.39 -0.56,0.7 -0.9,1.14 -1.3,1.71 -2.47,3.55 -3.91,5.13l-0.23 0.22c-1.41,1.33 -3.46,1.6 -5.41,1.6 -2.57,0 -4.55,-2.4 -5.94,-3.79l-24.75 -24.75c-1.72,-1.72 -3.26,-3.26 -4.98,-4.98 -2.72,-2.72 -3.67,-3.54 -3.67,-7.85 0,-1.25 0.62,-2.22 1.12,-2.95 0.94,-1.34 4.19,-3.34 5.7,-4.48 5.68,-4.27 7.92,-11.11 5.64,-17.92 -0.47,-1.4 -1.1,-2.72 -2.02,-3.86l-2.81 -3.07c-3.74,-3.74 -31.14,-31.52 -32.81,-32.75 -7.25,-5.32 -16.67,-3.92 -21.98,3.4l-1.85 2.67c-1.27,1.89 -2.52,3.62 -3.59,5.67 -0.6,1.14 -1.11,2 -1.66,3.1 -4.81,9.64 -7.91,17.21 -7.91,28.93z"/>
 </g>
</svg>
