<?xml version="1.0" encoding="UTF-8"?>
<!DOCTYPE svg PUBLIC "-//W3C//DTD SVG 1.1//EN" "http://www.w3.org/Graphics/SVG/1.1/DTD/svg11.dtd">
<!-- Creator: CorelDRAW 2017 -->
<svg xmlns="http://www.w3.org/2000/svg" xml:space="preserve" width="250px" height="250px" version="1.1" style="shape-rendering:geometricPrecision; text-rendering:geometricPrecision; image-rendering:optimizeQuality; fill-rule:evenodd; clip-rule:evenodd"
viewBox="0 0 67.03 67.03"
 xmlns:xlink="http://www.w3.org/1999/xlink">
 <defs>
  <style type="text/css">
   <![CDATA[
    .fil0 {fill:white}
   ]]>
  </style>
 </defs>
 <g id="Layer_x0020_1">
  <metadata id="CorelCorpID_0Corel-Layer"/>
  <path class="fil0" d="M33.51 5.59c15.4,0 27.93,12.52 27.93,27.92 0,15.4 -12.53,27.93 -27.93,27.93 -15.4,0 -27.92,-12.53 -27.92,-27.93 0,-15.4 12.52,-27.92 27.92,-27.92zm0 -5.59c-18.5,0 -33.51,15.01 -33.51,33.51 0,18.51 15.01,33.52 33.51,33.52 18.51,0 33.52,-15.01 33.52,-33.52 0,-18.5 -15.01,-33.51 -33.52,-33.51zm0 16.76c-9.25,0 -16.75,7.5 -16.75,16.75 0,7.1 4.41,13.16 10.64,15.61 -0.14,-1.33 -0.28,-3.36 0.06,-4.81 0.31,-1.31 1.97,-8.33 1.97,-8.33 0,0 -0.51,-1 -0.51,-2.49 0,-2.33 1.36,-4.06 3.04,-4.06 1.43,0 2.12,1.07 2.12,2.36 0,1.44 -0.92,3.58 -1.39,5.57 -0.4,1.67 0.84,3.03 2.48,3.03 2.98,0 5.27,-3.14 5.27,-7.67 0,-4.01 -2.88,-6.82 -7,-6.82 -4.77,0 -7.57,3.58 -7.57,7.28 0,1.44 0.56,2.98 1.25,3.82 0.14,0.17 0.16,0.31 0.11,0.48l-0.46 1.9c-0.07,0.31 -0.24,0.37 -0.56,0.23 -2.09,-0.98 -3.4,-4.04 -3.4,-6.5 0,-5.29 3.84,-10.14 11.07,-10.14 5.81,0 10.33,4.14 10.33,9.68 0,5.78 -3.64,10.42 -8.7,10.42 -1.69,0 -3.29,-0.88 -3.84,-1.92l-1.04 3.98c-0.38,1.46 -1.4,3.28 -2.08,4.4 1.57,0.48 3.24,0.74 4.96,0.74 9.25,0 16.76,-7.5 16.76,-16.76 0,-9.25 -7.51,-16.75 -16.76,-16.75l0 0z"/>
 </g>
</svg>
