<?xml version="1.0" encoding="UTF-8"?>
<!DOCTYPE svg PUBLIC "-//W3C//DTD SVG 1.1//EN" "http://www.w3.org/Graphics/SVG/1.1/DTD/svg11.dtd">
<!-- Creator: CorelDRAW 2017 -->
<svg xmlns:xlink="http://www.w3.org/1999/xlink" xmlns="http://www.w3.org/2000/svg" xml:space="preserve" width="1.53372in" height="1.53334in" version="1.1"
style="shape-rendering:geometricPrecision; text-rendering:geometricPrecision; image-rendering:optimizeQuality; fill-rule:evenodd; clip-rule:evenodd"
 viewBox="0 0 279.03 278.96">
 <defs>
  <style type="text/css">
   <![CDATA[
    .fil0 {fill:#699BA6}
   ]]>
  </style>
 </defs>
 <g id="Layer_x0020_1">
  <metadata id="CorelCorpID_0Corel-Layer"/>
  <path class="fil0" d="M134.87 139.06c0,3.27 3.96,7.85 8.79,2.97l4.64 -4.67c0.75,-0.73 2.41,-0.99 3.72,-1.23 0.73,-0.13 0.75,-0.34 1.12,0.24l0.36 3.15c0,7.53 -6.15,13.74 -13.97,13.74 -7.74,0 -13.74,-6.05 -13.74,-14.44 0,-6.88 6.1,-13.27 13.97,-13.27 0.57,0 2.4,0.14 2.76,0.29 1.19,0.5 -0.48,4.54 -0.49,4.54 -0.28,0.39 -1.22,1.22 -1.63,1.63l-4.61 4.71c-0.29,0.41 -0.92,1.69 -0.92,2.34zm17.7 -12.58c0.56,-2.39 1.01,-4.82 1.49,-7.36 0.57,-2.99 1.66,-2.9 3.67,-5.42l8.58 -9.58c0.33,1.42 2.44,3.96 3.43,4.95 1.61,1.61 2.89,2.58 4.95,3.67 -0.54,0.8 -1.37,1.59 -2.19,2.23l-9.51 8.43c-1.33,1.19 -0.65,1.13 -2.87,1.55l-7.55 1.53zm-7.69 -9.78c-4.09,-0.34 -5.07,-1.44 -11.41,0.23 -6.05,1.59 -11.69,6.11 -14.44,11.65 -0.78,1.57 -1.34,2.75 -1.89,4.63 -2.69,9.09 1.3,19.5 7.98,24.45 0.97,0.72 1.72,1.28 2.77,1.89 12.47,7.17 27.74,1.61 33.13,-10.87 1.1,-2.56 1.46,-4.21 1.84,-7.48 0.63,-5.5 -1.5,-6.87 0.36,-7.31 4.43,-1.04 2.54,-0.53 5.95,-3.38l18.38 -16.32c0.61,-0.56 0.5,-0.76 1.34,-0.98 0.48,2.08 4.3,7.44 5.86,18.36 0.13,0.9 0.21,2.17 0.42,3.07 -2.94,0 -14.1,-0.54 -16.27,0.73 -2.87,1.69 -2.82,6.22 -0.18,8.03 1.3,0.88 2.95,0.79 5.03,0.79 3.8,-0 7.61,0 11.41,0 -0.81,3.5 -0.38,4.91 -2.01,10.56 -1.33,4.58 -3.39,9.38 -5.77,13.33 -1.76,2.93 -4.42,6.62 -6.83,9 -0.33,0.32 -0.51,0.49 -0.79,0.84l-4.02 3.9c-1.25,0.98 -2.23,1.86 -3.54,2.75 -0.7,0.48 -1.11,0.83 -1.77,1.26 -0.68,0.45 -1.36,0.81 -2.04,1.22 -5.48,3.28 -11.82,5.87 -18.31,7.07 -1.85,0.34 -4.02,0.44 -5.69,0.83 0,-2.95 0.54,-14.08 -0.73,-16.27 -1.6,-2.74 -6.15,-2.92 -8.03,-0.18 -0.89,1.3 -0.79,2.95 -0.79,5.03 0,3.8 0,7.61 0,11.41 -3.29,-0.77 -5.82,-0.46 -10.57,-2.01 -8.68,-2.84 -13.35,-5.1 -20.68,-11l-7.75 -8.08c-2.84,-3.79 -3.93,-5.38 -6.18,-9.88 -2.21,-4.41 -3.8,-8.99 -4.76,-14.11 -0.35,-1.85 -0.44,-4.01 -0.83,-5.69 3.88,0 7.76,-0.01 11.65,0 3.28,0 6.75,-0.35 6.75,-4.89 0,-2.82 -2.13,-4.66 -5.12,-4.66l-13.28 0c0,-2.5 1.24,-8.09 1.96,-10.62 1.81,-6.34 4.57,-11.83 8.29,-17.1 3.48,-4.93 7.83,-9.16 12.71,-12.68 2.4,-1.73 5.22,-3.56 7.99,-4.82 4.79,-2.19 8.67,-3.71 14.14,-4.73 1.85,-0.34 4.02,-0.44 5.69,-0.83 0,2.67 -0.47,14.41 0.69,16.31 1.75,2.83 6.4,2.75 8.07,0.14 0.83,-1.29 0.79,-3.02 0.79,-5.03 -0,-3.8 0,-7.61 0,-11.41 4.23,0.35 7.67,1.23 11.46,2.28 3.88,1.07 9.05,3.8 9.96,4.01 -0.21,0.77 -0.67,1 -1.16,1.63 -0.5,0.65 -0.85,0.96 -1.46,1.57l-5.58 6.3c-0.68,0.68 -0.81,0.9 -1.41,1.62l-9.82 10.91c-1.03,1.5 -1.08,2.62 -1.53,4.53zm65.21 -61.72c1.68,0.39 3.54,1.14 5.28,1.71 2.06,0.67 4.04,3.32 5.61,4.86 0.88,0.87 0.93,0.78 1.37,2.12 0.57,1.74 1.32,3.6 1.71,5.28l-10.07 8.79c-0.54,0.48 -0.85,0.92 -1.41,1.39 -1.07,0.9 -1.82,1.57 -2.89,2.47l-20.15 18.04c-0.51,0.45 -0.78,0.83 -1.31,1.26l-4.42 3.97c-1.92,1.6 -6.02,-1 -7.33,-2.31 -0.91,-0.91 -1.52,-2 -2.11,-3.24 -0.35,-0.74 -0.44,-1.16 -0.61,-1.97 -0.43,-1.98 0.18,-1.8 1.57,-3.29 2.58,-2.78 9.39,-10.84 11.64,-13.04l11.52 -12.93c0.64,-0.64 0.76,-0.8 1.31,-1.49 1.38,-1.72 6.35,-6.78 7.72,-8.58 1.05,-1.38 1.23,-1.04 2.56,-3.03zm-75.22 5.36l0 14.21c-7.87,0 -17.16,2.96 -23.91,6.37 -8.95,4.51 -16.43,10.4 -22.43,18.09 -5.08,6.51 -9.19,13.84 -11.41,21.89 -0.55,1.99 -1.03,3.76 -1.46,6 -0.43,2.23 -0.87,5.21 -0.87,7.75l-13.74 0c-6.68,0 -6.86,9.55 -0.47,9.55l14.21 0c0,7.89 2.95,17.1 6.29,23.76 2.44,4.86 5.19,9.53 8.8,13.56 8.65,9.68 19.29,17.17 32.01,20.63 3.53,0.96 8.7,2.14 13,2.14l0 13.74c0,6.77 9.55,6.89 9.55,0l0 -13.74c4.21,0 9.3,-1.2 12.76,-2.14 10.17,-2.78 16.37,-6.73 24.5,-12.99l4.02 -3.67c3.78,-3.78 7.06,-7.96 9.8,-12.56 1.01,-1.7 1.86,-3.2 2.72,-4.96 0.39,-0.78 0.8,-1.77 1.16,-2.57 0.39,-0.86 0.74,-1.67 1.08,-2.64 2.07,-5.86 4.05,-11.77 4.05,-18.54l13.74 0c6.74,0 6.9,-9.55 0,-9.55l-13.74 0c0,-4.81 -1.63,-11.47 -2.88,-15.29 -1.1,-3.37 -2.41,-6.47 -3.95,-9.56 -0.42,-0.85 -1.39,-2.39 -1.55,-3.11 0.7,-1.04 2.6,-2.61 3.67,-3.55 3.18,-2.8 15.16,-13.81 17.06,-15.08 1.11,0.81 5.05,8.23 5.98,10.09 1.83,3.67 3.41,7.46 4.77,11.54 3.75,11.24 4.86,19.55 4.86,32.63 0,3.34 -0.39,7.49 -0.86,10.32 -1.49,8.97 -3.7,17.98 -7.75,26.01 -5.17,10.25 -10.57,18.37 -18.57,26.37l-4.31 4.08c-1.4,1.39 -3.06,2.6 -4.6,3.78 -5.46,4.17 -11.28,7.67 -17.46,10.72 -5.57,2.74 -10.66,4.09 -16.51,5.85 -8.02,2.4 -16.85,2.77 -25.41,2.77 -6.9,0 -14.03,-1.23 -19.7,-2.66 -3.17,-0.79 -5.69,-1.56 -8.63,-2.55l-13.67 -6.12c-0.75,-0.38 -1.1,-0.65 -1.78,-1.01 -4.77,-2.58 -9,-6.02 -13.28,-9.32 -3.15,-2.43 -5.85,-5.53 -8.68,-8.33l-8.66 -10.91 -3.21 -5.18c-7.61,-12.69 -12.53,-29.02 -12.53,-44.06 0,-9.56 0.32,-17.16 2.89,-26.22 2.02,-7.1 4.34,-13.7 7.89,-20.05 0.74,-1.33 1.21,-2.34 1.98,-3.61 2.43,-4.04 5.01,-7.95 8.03,-11.53 0.46,-0.55 0.82,-1.01 1.27,-1.52l3.95 -4.43c3.21,-3.33 6.77,-6.31 10.41,-9.15 14.74,-11.51 35.08,-18.96 53.7,-18.96 11.07,0 18.95,0.87 29.25,3.82 1.09,0.31 2.15,0.6 3.22,0.97 3.97,1.38 7.81,2.99 11.32,4.75 2.05,1.03 9.09,4.48 10.25,6.05 -0.9,1.35 -2.29,2.65 -3.33,3.89 -0.46,0.55 -0.76,0.73 -1.23,1.33 -0.83,1.08 -1.55,1.55 -2.33,2.56l-6.91 7.76c-0.56,0.55 -0.61,0.69 -1.07,1.26 -0.82,1.03 -2.83,3.3 -3.76,3.92l-6.13 -2.95c-6.1,-2.93 -14.61,-5.43 -21.81,-5.43l0 -13.74c0,-6.7 -9.55,-6.77 -9.55,-0.47zm113.65 -1.86l-18.86 -2.1c0.27,-0.99 4.2,-4.55 5.18,-5.53 2.14,-2.14 15.38,-15.63 16.48,-16.36 1.17,0.27 2.43,1 3.63,1.5 1.26,0.52 2.44,1.01 3.6,1.52 1.15,0.51 6.63,2.97 7.45,3.03 -0.29,1.07 -7.74,8.09 -8.67,9.02 -1.53,1.53 -2.89,2.89 -4.43,4.43 -1.13,1.13 -3.61,3.35 -4.37,4.48zm-211.23 79.18c0,15.33 2.66,30.43 8.93,43.47 1.72,3.57 3.4,7 5.41,10.42 1.97,3.36 4.13,6.5 6.45,9.62l4.3 5.25c4.08,4.36 3.05,3.64 7.92,8.15 0.67,0.62 0.97,1.03 1.69,1.58 2.94,2.24 5.12,4.53 8.99,7.08 1.35,0.89 2.32,1.7 3.74,2.54l4.08 2.44c2.71,1.63 5.62,2.97 8.5,4.31 20.26,9.44 42.2,11.39 65.03,6.66 5.12,-1.06 9.77,-2.79 14.6,-4.49l4.59 -1.93c2.93,-1.41 5.67,-2.61 8.35,-4.23 0.68,-0.41 1.21,-0.68 1.92,-1.11 4.6,-2.77 9.22,-5.77 13.23,-9.36l3.38 -2.91c1.61,-1.59 3.42,-2.93 4.88,-4.67 3.8,-4.55 6.42,-7.12 10.08,-12.28 11.87,-16.71 18.63,-37.34 18.63,-58.22 0,-12.46 -1.94,-21.5 -5.27,-32.92 -0.35,-1.21 -0.83,-2.34 -1.22,-3.44l-2.82 -6.72c-2.15,-4.22 -4.16,-8.59 -6.8,-12.53 -0.55,-0.81 -1.6,-2.15 -1.82,-3.07 2.19,-1.47 6.79,-5.76 8.8,-7.74 0.81,-0.8 0.87,-0.93 1.19,-2.09 0.57,-2.06 -0.47,-3.49 -0.9,-5.31 1.86,0.43 12.62,1.63 15.14,1.63 0.65,1.22 1.47,2.35 2.23,3.59 0.8,1.3 1.38,2.39 2.15,3.67 10.81,17.98 17.05,42.64 17.05,64.7 0,12.88 -2.02,26.85 -5.91,38.34 -0.38,1.14 -0.59,2.07 -0.98,3.21 -2.65,7.61 -5.89,15.4 -10.06,22.31 -1.03,1.71 -2.01,3.46 -3.07,5.08l-6.59 9.48c-4.06,5.41 -8.65,10.24 -13.38,15.03l-8.58 7.49c-5.4,4.24 -11,7.98 -16.88,11.53 -3.29,1.98 -7.05,3.94 -10.77,5.54 -1.89,0.82 -3.63,1.64 -5.52,2.4 -6.04,2.4 -12.27,4.28 -18.58,5.87 -18.56,4.69 -40.9,4.31 -59.53,0.05 -10.18,-2.33 -20.31,-5.88 -29.44,-10.85 -7.96,-4.34 -14.86,-8.56 -21.91,-14.19 -5.22,-4.17 -12.72,-10.92 -16.6,-15.77 -7.1,-8.89 -8.74,-10.49 -15.15,-21.18 -1.06,-1.77 -1.87,-3.42 -2.83,-5.33 -4.72,-9.44 -8.69,-19.09 -10.93,-29.6 -0.43,-2.04 -0.92,-4.32 -1.36,-6.56 -3.4,-17.03 -2.47,-37.8 1.61,-54.1 1.13,-4.5 2.3,-8.18 3.68,-12.38 0.68,-2.05 1.44,-3.85 2.18,-5.73l3.73 -8.38c0.47,-0.93 0.89,-1.71 1.39,-2.57 2.09,-3.6 3.18,-6.17 5.88,-10.19 3.97,-5.92 8.1,-11.85 13.06,-16.98 0.5,-0.52 0.51,-0.64 0.94,-1.16 2.29,-2.74 5.69,-5.45 8.14,-7.93 8.2,-8.26 24,-18.08 34.01,-22.35 18.23,-7.79 34.05,-11.48 54.43,-11.48 14.54,0 28.49,2.86 39.39,6.49 5.93,1.98 11.13,3.98 16.43,6.63 3.89,1.95 7.5,3.82 11.16,6.08 1.24,0.77 2.37,1.58 3.59,2.23 0,1.37 0.15,2.51 0.33,3.86l0.82 7.56c0.1,1.19 0.23,2.68 0.47,3.72 -4.1,-0.96 -5.58,-2.45 -8.98,1.96 -0.63,0.82 -0.93,1 -1.55,1.71 -0.62,0.7 -0.8,1.04 -1.52,1.74 -0.96,0.94 -2.5,2.56 -3.08,3.67l-11.96 -6.91c-10.27,-5.09 -21.02,-8.37 -32.36,-10.02 -1.41,-0.2 -3.02,-0.45 -4.36,-0.53 -3.03,-0.17 -5.86,-0.47 -9.08,-0.47 -7.94,0 -16.47,0.99 -22.87,2.51 -10.48,2.49 -22.39,6.84 -31.39,12.85l-7.58 5.23c-1.28,0.96 -2.29,1.77 -3.52,2.77 -0.62,0.5 -1.07,0.84 -1.64,1.38 -0.67,0.64 -1.08,0.83 -1.75,1.51 -2.13,2.15 -4.52,4 -6.42,6.38 -0.48,0.6 -0.94,0.96 -1.49,1.53l-7.11 8.96c-7.45,10.93 -12.74,21.87 -15.98,34.79 -1.62,6.46 -2.93,14.8 -2.93,22.68zm185.38 -88.27l-0.97 -9.51c-0.32,-2.92 -0.88,-6.38 -1.12,-9.36 2.65,-1.77 16.42,-17.06 17.93,-17.47 0.11,1.28 5.66,12.96 6.06,14.67 -0.68,1.02 -9.17,9.28 -10.77,10.89 -1.01,1.01 -10.01,10.47 -11.12,10.77zm56.36 94.32l0 -8.15c0,-4.95 -0.53,-11.39 -1.33,-16.14 -0.31,-1.85 -0.5,-3.39 -0.87,-5.19 -2.2,-10.88 -5.17,-21.26 -9.68,-31.31 -2.4,-5.34 -5.02,-10.5 -8.02,-15.5 -0.56,-0.93 -2,-2.99 -2.23,-3.83 0.68,-1.02 1.82,-1.94 2.74,-2.85l2.84 -2.98c0.44,-0.44 0.95,-0.77 1.47,-1.32l12.92 -13.16c1.57,-1.57 2.15,-2.08 2.15,-4.6 0,-2.94 -2.62,-3.76 -4.81,-4.74l-13.36 -5.74c-7.74,-3.39 -6.32,-1.08 -9.81,-9.52 -0.93,-2.25 -1.92,-4.5 -2.93,-6.85 -0.98,-2.29 -1.88,-4.44 -2.87,-6.68 -1.32,-3.02 -2.08,-5.13 -5.82,-5.13 -1.85,0 -3.27,1.49 -4.32,2.66 -1.49,1.65 -4.21,3.94 -5.13,5.12 -0.91,1.18 -1.91,1.82 -2.95,2.87l-2.03 2.16c-0.25,0.25 -0.46,0.48 -0.69,0.7 -2.22,2.12 -6.93,7.32 -8.86,8.61 -1.31,-0.69 -2.4,-1.37 -3.68,-2.14 -1.28,-0.77 -2.35,-1.36 -3.67,-2.15 -3.07,-1.82 -6.31,-3.36 -9.57,-4.87l-6.1 -2.75c-9.02,-3.66 -17.53,-5.99 -27.42,-7.98 -1.72,-0.35 -3.24,-0.61 -4.98,-0.85 -1.61,-0.22 -3.48,-0.57 -5.14,-0.68 -3.73,-0.25 -7.11,-0.71 -11.17,-0.71 -4.78,0 -9.7,-0.12 -14.43,0.25 -15.89,1.24 -32.29,5.07 -46.52,11.71 -14.14,6.59 -27.65,14.93 -38.79,25.95 -0.64,0.63 -1.01,0.78 -1.64,1.39l-8.63 9.31c-0.32,0.39 -0.43,0.44 -0.76,0.87 -0.56,0.71 -0.92,1.13 -1.46,1.8 -0.51,0.62 -0.84,0.96 -1.36,1.66 -0.54,0.73 -0.91,1.13 -1.43,1.83 -4.71,6.3 -9.15,12.84 -12.68,19.92 -0.76,1.53 -1.58,2.71 -2.22,4.3 -0.61,1.5 -1.34,2.95 -2.05,4.47 -1.41,3.01 -2.42,6.02 -3.6,9.2 -3.06,8.2 -5.04,17.11 -6.52,25.85 -0.67,3.98 -0.67,7.75 -1.19,11.62l-0.4 6.12c-0.12,2.19 0.22,6.68 0.23,9.56 0,3.11 1,11.59 1.47,14.83 2.93,19.97 10.53,39.14 21.68,55.87 3.04,4.56 6.44,8.74 9.79,13.04l14.41 14.7c1.25,1.05 2.27,1.95 3.56,2.96 15.13,11.9 27.08,18.77 45.95,25.08 3.14,1.05 6.68,2.08 10.22,2.82 9.25,1.95 19,3.68 28.47,3.67 1.2,-0 2.03,-0.02 3.13,0.14 1.24,0.19 12.89,-0.62 15.28,-0.82 9.99,-0.84 22.65,-3.62 31.75,-7.14 3.23,-1.25 6.26,-2.18 9.37,-3.67l4.34 -1.95c3.01,-1.28 5.67,-3.01 8.55,-4.49 2.71,-1.4 5.42,-3.15 7.97,-4.84 5.1,-3.4 12.14,-8.32 16.43,-12.68 0.68,-0.69 1.09,-0.87 1.75,-1.51 2.26,-2.17 4.3,-4.31 6.52,-6.53 1.18,-1.18 1.99,-2.21 3.15,-3.37l3.01 -3.51c2.97,-3.52 5.71,-7.22 8.27,-11.06 0.91,-1.38 1.66,-2.56 2.56,-3.96 0.89,-1.38 1.62,-2.64 2.47,-4.05 0.87,-1.43 1.46,-2.72 2.3,-4.22 3.18,-5.68 5.94,-11.57 8.02,-17.83 2.19,-6.61 4.31,-13.16 5.7,-20.15 1.39,-7.04 2.66,-15.19 2.66,-23.43z"/>
 </g>
</svg>
