<?xml version="1.0" encoding="UTF-8"?>
<!DOCTYPE svg PUBLIC "-//W3C//DTD SVG 1.1//EN" "http://www.w3.org/Graphics/SVG/1.1/DTD/svg11.dtd">
<!-- Creator: CorelDRAW 2017 -->
<svg xmlns="http://www.w3.org/2000/svg" xml:space="preserve" width="895px" height="900px" version="1.1" style="shape-rendering:geometricPrecision; text-rendering:geometricPrecision; image-rendering:optimizeQuality; fill-rule:evenodd; clip-rule:evenodd"
viewBox="0 0 250.5 251.76"
 xmlns:xlink="http://www.w3.org/1999/xlink">
 <defs>
  <style type="text/css">
   <![CDATA[
    .fil0 {fill:#232A3A}
    .fil1 {fill:#FEB101}
   ]]>
  </style>
 </defs>
 <g id="Layer_x0020_1">
  <metadata id="CorelCorpID_0Corel-Layer"/>
  <path class="fil0" d="M0 228.46c0,6.56 2.31,13.6 7.53,17.39 9.39,6.84 18.99,6.24 27.24,-0.25l29.82 -29.76c2.35,-2.35 57.14,-57.79 60.03,-59.73 2.48,1.66 21.04,20.73 24.78,24.47l61.7 61.71c7.98,7.98 16.72,12.57 28.03,7.05 7.11,-3.47 11.33,-11.08 11.33,-19.67 0,-9.02 -6.69,-14.9 -11.4,-19.6 -5.31,-5.32 -10.18,-10.19 -15.5,-15.51l-78.12 -78.11c-9.66,-9.67 -17.5,-15.8 -31.35,-8.56 -2.8,1.46 -2.43,1.28 -4.51,3.39l-105.44 105.51c-1.99,2.5 -4.14,7.32 -4.14,11.67z"/>
  <path class="fil1" d="M0 123.9c0,3.53 0.32,6.93 1.83,9.72l1.82 3.04c5.23,8.54 18.16,12 27.73,6.46 4.42,-2.55 70.87,-70.1 80.63,-79.87 3.13,-3.13 9.51,-10.23 12.61,-12.3 3.13,2.09 79.15,78.83 88,87.69 6.95,6.95 15.23,11.22 25.49,6.34 12.74,-6.05 15.97,-21.85 8.22,-32.16l-23.38 -23.42c-9.39,-9.4 -80.5,-81.3 -86.33,-85.72 -8.6,-6.52 -20.83,-3.74 -27.96,3.33l-96.96 96.98c-4.92,4.92 -11.7,10.43 -11.7,19.91z"/>
 </g>
</svg>
