<?xml version="1.0" encoding="UTF-8"?>
<!DOCTYPE svg PUBLIC "-//W3C//DTD SVG 1.1//EN" "http://www.w3.org/Graphics/SVG/1.1/DTD/svg11.dtd">
<!-- Creator: CorelDRAW 2017 -->
<svg xmlns="http://www.w3.org/2000/svg" xml:space="preserve" width="250px" height="250px" version="1.1" style="shape-rendering:geometricPrecision; text-rendering:geometricPrecision; image-rendering:optimizeQuality; fill-rule:evenodd; clip-rule:evenodd"
viewBox="0 0 28.39 28.39"
 xmlns:xlink="http://www.w3.org/1999/xlink">
 <defs>
  <style type="text/css">
   <![CDATA[
    .fil0 {fill:white}
   ]]>
  </style>
 </defs>
 <g id="Layer_x0020_1">
  <metadata id="CorelCorpID_0Corel-Layer"/>
  <path class="fil0" d="M2.65 27.02c-0.26,0 -0.37,-0.01 -0.62,-0.12 -0.07,-0.03 -0.27,-0.16 -0.32,-0.23 -0.38,-0.49 -0.46,-1.29 -0.01,-1.78 0.22,-0.24 0.44,-0.53 0.75,-0.77 0.2,-0.14 1.03,-1.05 1.28,-1.3l0.31 -0.31c0.3,-0.23 1.23,-1.23 1.61,-1.61l0.24 -0.2c0.17,-0.15 0.26,-0.3 0.45,-0.43 0.69,-0.45 1.95,-0.13 1.95,1.14 0,0.5 -0.18,0.71 -0.43,0.97l-0.52 0.51c-0.07,0.09 -0.07,0.12 -0.16,0.21 -0.07,0.06 -0.1,0.1 -0.17,0.16l-0.55 0.52c-0.24,0.24 -0.49,0.44 -0.69,0.71l-1.41 1.39c-0.38,0.38 -0.58,0.74 -1.11,1 -0.17,0.09 -0.36,0.14 -0.6,0.14zm15.6 -7.34l-1.29 -0.04c-0.18,-0.01 -0.33,-0.02 -0.51,-0.05 -1.3,-0.23 -2.49,-0.69 -3.58,-1.4 -0.12,-0.07 -0.2,-0.15 -0.32,-0.23l-0.61 -0.49c-0.37,-0.28 -1.03,-1.01 -1.33,-1.41l-0.45 -0.65c-0.24,-0.43 -0.35,-0.58 -0.58,-1.08 -0.58,-1.28 -0.81,-2.52 -0.81,-3.99 0,-0.86 0.23,-2.04 0.51,-2.84 0.1,-0.28 0.23,-0.56 0.33,-0.82 0.16,-0.38 0.37,-0.73 0.58,-1.08l0.97 -1.28 0.85 -0.85c0.07,-0.07 0.07,-0.05 0.14,-0.11 0.07,-0.06 0.1,-0.08 0.17,-0.13 2.37,-1.88 5.5,-2.38 8.43,-1.41 0.41,0.14 0.82,0.3 1.18,0.52 0.35,0.2 0.7,0.35 1.06,0.63 0.29,0.23 0.68,0.49 0.94,0.76 0.13,0.12 0.33,0.26 0.44,0.41 0.07,0.07 0.06,0.08 0.14,0.16l0.64 0.76c0.68,0.86 1.26,2.21 1.52,3.31 0.33,1.43 0.32,2.81 0.01,4.24 -0.11,0.5 -0.34,1.24 -0.55,1.67 -0.35,0.67 -0.39,0.82 -0.8,1.41 -0.39,0.54 -1.03,1.4 -1.55,1.77 -0.07,0.05 -0.07,0.06 -0.14,0.12l-0.3 0.26c-1.18,0.94 -2.59,1.47 -4.08,1.74 -0.31,0.05 -0.68,0.1 -1.01,0.1zm-10.95 -9.26c0,2.17 0.4,3.51 1.35,5.32 0.08,0.15 0.12,0.24 0.21,0.38 0.08,0.13 0.14,0.23 0.23,0.36l0.79 1.02 -1.45 1.47c-1.07,-0.56 -2.45,-0.4 -3.3,0.46 -0.16,0.15 -0.29,0.28 -0.44,0.44 -0.73,0.73 -3.88,3.77 -4.28,4.39 -0.66,0.99 -0.51,2.5 0.33,3.34 0.94,0.93 2.28,1.02 3.41,0.36l0.5 -0.35c0.27,-0.21 3.95,-3.93 4.54,-4.57 0.43,-0.48 0.58,-1.17 0.58,-1.82 0,-0.5 -0.16,-0.88 -0.34,-1.21l1.47 -1.49c0.09,0.07 0.09,0.09 0.17,0.15 0.06,0.06 0.09,0.07 0.16,0.13 0.11,0.09 0.22,0.17 0.34,0.25 0.06,0.05 0.11,0.08 0.17,0.12 0.08,0.06 0.09,0.08 0.17,0.13 0.61,0.4 1.25,0.75 1.93,1.02 2.2,0.9 4.98,1.07 7.32,0.28 1.08,-0.36 2.03,-0.91 2.97,-1.54l1.37 -1.24c0.13,-0.14 0.2,-0.18 0.32,-0.34 0.06,-0.08 0.08,-0.09 0.14,-0.16 0.48,-0.51 0.82,-1.14 1.17,-1.74 0.74,-1.26 1.26,-3.19 1.26,-4.61l0 -1.04c-0.01,-0.16 -0.04,-0.12 -0.04,-0.29 -0.03,-0.96 -0.28,-1.94 -0.64,-2.83l-0.28 -0.71c-0.19,-0.41 -0.42,-0.85 -0.67,-1.22l-0.39 -0.57c-0.06,-0.1 -0.08,-0.09 -0.14,-0.18 -0.36,-0.47 -0.75,-0.96 -1.21,-1.34l-0.34 -0.28c-0.08,-0.06 -0.09,-0.09 -0.16,-0.14l-1.12 -0.8c-0.08,-0.06 -0.13,-0.07 -0.21,-0.12 -0.91,-0.53 -1.67,-0.81 -2.72,-1.12 -1.49,-0.45 -3.74,-0.43 -5.26,0l-0.48 0.15c-0.18,0.06 -0.32,0.1 -0.5,0.16 -0.07,0.03 -0.13,0.05 -0.21,0.08 -0.09,0.04 -0.16,0.05 -0.25,0.09 -0.3,0.13 -0.6,0.23 -0.88,0.41 -0.68,0.43 -1.08,0.63 -1.73,1.15 -0.35,0.27 -0.71,0.58 -0.98,0.93l-0.46 0.5c-0.26,0.27 -0.45,0.61 -0.68,0.91 -0.06,0.07 -0.08,0.12 -0.13,0.2l-0.46 0.83c-0.04,0.09 -0.06,0.14 -0.11,0.22 -0.07,0.11 -0.06,0.1 -0.11,0.22 -0.06,0.15 -0.14,0.31 -0.19,0.44 -0.46,1.25 -0.74,2.39 -0.74,3.8z"/>
 </g>
</svg>
