<?xml version="1.0" encoding="UTF-8"?>
<!DOCTYPE svg PUBLIC "-//W3C//DTD SVG 1.1//EN" "http://www.w3.org/Graphics/SVG/1.1/DTD/svg11.dtd">
<!-- Creator: CorelDRAW 2017 -->
<svg xmlns="http://www.w3.org/2000/svg" xml:space="preserve" width="326px" height="340px" version="1.1" style="shape-rendering:geometricPrecision; text-rendering:geometricPrecision; image-rendering:optimizeQuality; fill-rule:evenodd; clip-rule:evenodd"
viewBox="0 0 46.17 48.12"
 xmlns:xlink="http://www.w3.org/1999/xlink">
 <defs>
  <style type="text/css">
   <![CDATA[
    .fil0 {fill:#232A3A}
   ]]>
  </style>
 </defs>
 <g id="Layer_x0020_1">
  <metadata id="CorelCorpID_0Corel-Layer"/>
  <path class="fil0" d="M9.5 11.69c4.64,0 9.08,-0.06 13.71,-0.06 6.55,0 12.92,0.06 19.49,0.06l-6.28 18.09 -23.14 0c-0.61,-2.61 -1.34,-6.24 -1.9,-9l-1.88 -9.09zm5.18 31.8c0,-1.56 2.02,-2.82 3.46,-1.39 1.21,1.21 0.41,2.84 -0.56,3.25 -1.6,0.69 -2.9,-0.58 -2.9,-1.86zm-2.38 -0.12c0,1.43 0.33,2.49 1.33,3.49 0.74,0.74 2.05,1.28 3.12,1.26 0.54,-0.01 1.23,-0.2 1.72,-0.41 0.4,-0.17 0.69,-0.38 1.01,-0.64 0.12,-0.11 0.18,-0.13 0.3,-0.24 1.33,-1.24 1.74,-3.41 0.93,-5.05 -0.39,-0.78 -0.82,-1.32 -1.55,-1.8 -1.19,-0.8 -2.89,-1.01 -4.26,-0.35 -0.96,0.46 -1.67,1.09 -2.15,2.05 -0.2,0.4 -0.45,1.13 -0.45,1.69zm25.89 2.19c-1.09,0 -2.07,-0.91 -2.07,-2.07 0,-1.07 0.94,-2.01 2.01,-2.01 1.74,0 2.75,2.11 1.48,3.43 -0.3,0.31 -0.84,0.65 -1.42,0.65zm-4.45 -2.13c0,1.5 0.37,2.51 1.39,3.49 0.11,0.1 0.15,0.13 0.27,0.22 0.41,0.32 0.48,0.37 1.02,0.61 0.23,0.1 0.55,0.21 0.84,0.26 1.01,0.2 1.79,0.08 2.7,-0.32 0.71,-0.32 1.3,-0.86 1.75,-1.47 0.95,-1.26 1.15,-2.98 0.46,-4.4 -0.22,-0.45 -0.34,-0.65 -0.64,-1 -0.92,-1.05 -2.01,-1.59 -3.52,-1.59 -2.09,0 -4.27,1.93 -4.27,4.2zm-33.74 -41.05l5.06 0c0.24,0 0.18,0.29 0.3,0.79 0.43,1.78 0.96,4.67 1.34,6.57 1.25,6.21 2.65,12.53 3.87,18.73 0.08,0.38 0.68,3.46 0.82,3.75l25.28 0c0.28,0 0.57,0 0.85,0 0.77,0.01 0.37,-0.18 0.67,-0.18l1.7 0c1.84,0 1.9,2.8 -0.12,2.8l-27.47 0 0 2.38 27.72 0c1.52,0 2.81,-1.15 3.3,-2.55 0.21,-0.57 0.22,-1.07 0.16,-1.71 -0.09,-1.05 -0.79,-2 -1.44,-2.52 -0.82,-0.65 -1.66,-0.84 -3.12,-0.84l1.83 -5.05c0.32,-0.81 0.6,-1.7 0.9,-2.51l2.04 -5.69c0.09,-0.24 0.14,-0.43 0.22,-0.64 0.45,-1.1 0.93,-2.66 1.37,-3.81l0.68 -1.88c0.08,-0.2 0.19,-0.49 0.21,-0.7l-37.16 0 -1.64 -8.16c-0.07,-0.33 -0.21,-0.81 -0.24,-1.16l-7.13 0 0 2.38z"/>
 </g>
</svg>
