<?xml version="1.0" encoding="UTF-8"?>
<!DOCTYPE svg PUBLIC "-//W3C//DTD SVG 1.1//EN" "http://www.w3.org/Graphics/SVG/1.1/DTD/svg11.dtd">
<!-- Creator: CorelDRAW 2017 -->
<svg xmlns="http://www.w3.org/2000/svg" xml:space="preserve" width="99px" height="100px" version="1.1" style="shape-rendering:geometricPrecision; text-rendering:geometricPrecision; image-rendering:optimizeQuality; fill-rule:evenodd; clip-rule:evenodd"
viewBox="0 0 4.37 4.39"
 xmlns:xlink="http://www.w3.org/1999/xlink">
 <defs>
  <style type="text/css">
   <![CDATA[
    .fil0 {fill:#232A3A}
   ]]>
  </style>
 </defs>
 <g id="Layer_x0020_1">
  <metadata id="CorelCorpID_0Corel-Layer"/>
  <g id="_1667963230672">
   <path class="fil0" d="M4.37 0.41c0,-0.16 -0.08,-0.3 -0.22,-0.36 -0.29,-0.13 -0.47,0.14 -0.65,0.32 -0.13,0.13 -1.25,1.26 -1.31,1.3 -0.05,-0.04 -1.35,-1.35 -1.5,-1.5 -0.14,-0.14 -0.29,-0.22 -0.49,-0.13 -0.13,0.06 -0.2,0.2 -0.2,0.34 0,0.16 0.12,0.26 0.2,0.35l1.63 1.63c0.11,0.1 0.24,0.24 0.45,0.19 0.15,-0.04 0.39,-0.31 0.51,-0.44 0.15,-0.15 1.44,-1.43 1.5,-1.5 0.04,-0.04 0.08,-0.13 0.08,-0.2z"/>
   <path class="fil0" d="M4.37 2.23c0,-0.32 -0.32,-0.47 -0.55,-0.34 -0.06,0.04 -0.28,0.26 -0.33,0.32 -0.15,0.15 -0.29,0.28 -0.43,0.43 -0.15,0.14 -0.28,0.28 -0.43,0.43 -0.07,0.06 -0.39,0.4 -0.44,0.43 -0.05,-0.04 -1.38,-1.37 -1.53,-1.53 -0.08,-0.08 -0.16,-0.14 -0.3,-0.14 -0.29,0 -0.47,0.35 -0.29,0.59l1.77 1.77c0.1,0.1 0.19,0.2 0.35,0.2 0.16,0 0.27,-0.11 0.35,-0.19l1.62 -1.62c0.09,-0.09 0.21,-0.19 0.21,-0.35z"/>
  </g>
 </g>
</svg>
