<?xml version="1.0" encoding="UTF-8"?>
<!DOCTYPE svg PUBLIC "-//W3C//DTD SVG 1.1//EN" "http://www.w3.org/Graphics/SVG/1.1/DTD/svg11.dtd">
<!-- Creator: CorelDRAW 2017 -->
<svg xmlns:xlink="http://www.w3.org/1999/xlink" xmlns="http://www.w3.org/2000/svg" xml:space="preserve" width="2.17678in" height="1.53333in" version="1.1"
style="shape-rendering:geometricPrecision; text-rendering:geometricPrecision; image-rendering:optimizeQuality; fill-rule:evenodd; clip-rule:evenodd"
 viewBox="0 0 348.19 245.27">
 <defs>
  <style type="text/css">
   <![CDATA[
    .fil0 {fill:#699BA6}
   ]]>
  </style>
 </defs>
 <g id="Layer_x0020_1">
  <metadata id="CorelCorpID_0Corel-Layer"/>
  <g id="_2178410194640">
   <path class="fil0" d="M86.91 234.5c-3.61,0 -6.64,-0.88 -9.16,-1.89 -7.45,-2.99 -13.77,-11.5 -13.77,-19.65 0,-4.39 0.25,-6.97 2.11,-10.87 1,-2.1 1.77,-3.17 3.2,-4.81 2.25,-2.58 4.31,-4.39 7.57,-5.96 13,-6.24 28.76,1.59 31.8,15.63 3.11,14.35 -8.74,27.56 -21.76,27.56zm195 0c-12.13,0 -22.65,-10.66 -22.65,-20.99l0 -3.04c0,-8.12 5.81,-15.62 12.51,-18.97 11.33,-5.67 25.21,-0.97 30.85,11.52 1.02,2.27 2.06,6.15 1.78,9.23 -0.36,3.94 -0.79,5.98 -2.14,8.91 -3.39,7.34 -11.31,13.35 -20.35,13.35zm-32.87 -29.28l-15.47 0 0 -136.72 25.96 0 0 59.94c0,4.8 1.91,7.46 6.91,7.46l70.98 0 0 69.33 -22.92 0c-0.54,-6.46 -7.3,-16.54 -13.03,-20.39 -0.84,-0.57 -1.44,-0.97 -2.32,-1.55 -1.59,-1.05 -3.08,-1.75 -4.93,-2.53 -1.97,-0.83 -3.52,-1.26 -5.68,-1.78 -4.66,-1.13 -6.23,-0.7 -9.95,-0.54 -9.79,0.41 -20.52,7.26 -25.4,15.75 -1.63,2.84 -3.88,7.77 -4.15,11.04zm-195.27 0l-15.74 0 0 -36.46 184.5 0 0 36.46 -103.3 0c-0.12,-5.32 -6.46,-15.16 -11.01,-18.82 -6.12,-4.93 -13.56,-8.12 -21.59,-8.26l-6.7 0.77c-6.24,1.19 -12.63,4.71 -16.99,8.97 -4.83,4.72 -7.65,10.78 -9.18,17.34zm216.82 -136.72l19.06 0c1.14,0 5.06,4.84 6.14,6.01l14.92 15.74c4.8,4.8 10.2,11.07 15.05,15.88l8.84 9.39c3.57,3.57 2.83,2.52 2.83,9.05l-66.84 0 0 -56.07zm-244.16 -40.88l0 13.81 11.05 0c0,-9.62 -1.15,-17.82 4.5,-24.5 2.44,-2.89 7.38,-5.88 12.62,-5.88l151.36 0c3.69,0 7.47,1.72 10.16,3.93 3.56,2.93 6.42,7.36 6.42,12.37l0 130.37 -184.5 0 0 -39.5 -11.6 0 0 92.8c0,1.8 1.01,2.89 1.99,3.81 1.32,1.24 2.24,1.18 4.64,1.16l17.41 -0.01c3.49,-0.05 2.47,-0.21 3.05,2.75 0.62,3.15 1.8,5.87 3.11,8.49 1.43,2.87 2.74,4.55 4.82,6.78 2.91,3.12 2.35,2.71 6.1,5.5 5.51,4.1 12.57,5.76 19.65,5.76 9.06,0 16.71,-4.03 22.34,-9.42l0.28 -0.28c4.8,-5.01 8.31,-10.54 9.29,-17.78 0.28,-2.07 -0.48,-1.81 4,-1.8l125.12 0c1.43,6.14 0.82,5.45 3.77,11.42 0.98,1.98 1.75,3.04 3.01,4.72 0.69,0.92 1.15,1.26 1.78,2.09 1.7,2.21 3.87,3.68 6.03,5.29 9.41,7.03 24.75,7.66 34.79,1.56 4.44,-2.69 7.17,-4.77 10.43,-8.9 2.5,-3.17 5.15,-8.25 6.07,-12.98 0.86,-4.38 -2.02,-3.2 16.14,-3.2 3.13,0 6.26,0 9.39,0 4.32,0 5.3,0.27 7.39,-2.28 1.41,-1.72 0.9,-5.81 0.9,-8.77l-0.01 -86.74c0,-1.65 0.61,-3 0.02,-4.14l-4.64 -5.03c-3.08,-3.05 -8.18,-9.05 -11.74,-12.57l-9.16 -9.9c-0.72,-0.93 -1.48,-1.58 -2.3,-2.39 -0.98,-0.97 -1.44,-1.71 -2.34,-2.63 -0.83,-0.83 -1.57,-1.48 -2.36,-2.34l-16.29 -17.68c-1.1,-1.25 -3.57,-4.08 -5.59,-4.08l-60.21 0 0 -25.13c0,-5.28 -0.52,-9.74 -1.89,-13.57 -1.33,-3.69 -3.53,-6.84 -6.05,-9.7 -5.24,-5.96 -14.01,-9.05 -22.44,-9.05l-146.39 0c-9.76,0 -14.41,2.46 -21.03,7.69 -0.9,0.72 -0.99,1.05 -1.7,1.89 -0.68,0.8 -0.98,1.02 -1.65,1.94 -3.31,4.45 -5.72,9.81 -5.72,16.1z"/>
   <path class="fil0" d="M5.43 62.15l42.54 0c2,0 4.97,-2.67 4.97,-5.52 0,-2.54 -2.61,-5.25 -5.25,-5.25l-42.54 0c-2.7,0 -5.26,2.87 -5.15,5.49 0.11,2.59 2.51,5.28 5.43,5.28z"/>
   <path class="fil0" d="M0.46 81.2c0,3.56 1.99,6.08 4.97,6.08l43.09 0c5.04,0 8.28,-10.5 -2.76,-10.5l-39.5 0c-1.57,0 -2.98,0.46 -3.88,1.09 -0.8,0.55 -1.92,2.07 -1.92,3.33z"/>
   <path class="fil0" d="M27.53 110.2l19.06 0c5.73,0 8.14,-6.77 3.65,-10 -2.43,-1.75 -16.1,-1.05 -20.22,-1.05 -11.78,0 -8.6,11.05 -2.49,11.05z"/>
  </g>
 </g>
</svg>
