<?xml version="1.0" encoding="UTF-8"?>
<!DOCTYPE svg PUBLIC "-//W3C//DTD SVG 1.1//EN" "http://www.w3.org/Graphics/SVG/1.1/DTD/svg11.dtd">
<!-- Creator: CorelDRAW 2017 -->
<svg xmlns="http://www.w3.org/2000/svg" xml:space="preserve" width="250px" height="250px" version="1.1" style="shape-rendering:geometricPrecision; text-rendering:geometricPrecision; image-rendering:optimizeQuality; fill-rule:evenodd; clip-rule:evenodd"
viewBox="0 0 1145.83 1145.83"
 xmlns:xlink="http://www.w3.org/1999/xlink">
 <defs>
  <style type="text/css">
   <![CDATA[
    .fil0 {fill:white}
   ]]>
  </style>
 </defs>
 <g id="Layer_x0020_1">
  <metadata id="CorelCorpID_0Corel-Layer"/>
  <path class="fil0" d="M572.92 95.49c263.25,0 477.42,214.17 477.42,477.42 0,263.25 -214.17,477.42 -477.42,477.42 -263.25,0 -477.42,-214.17 -477.42,-477.42 0,-263.25 214.17,-477.42 477.42,-477.42zm0 -95.49c-316.4,0 -572.92,256.52 -572.92,572.91 0,316.4 256.52,572.92 572.92,572.92 316.39,0 572.91,-256.52 572.91,-572.92 0,-316.39 -256.52,-572.91 -572.91,-572.91zm310.33 419.08c-21.06,9.37 -43.74,15.67 -67.5,18.54 24.3,-14.57 42.87,-37.57 51.69,-65.04 -22.72,13.46 -47.89,23.26 -74.67,28.51 -21.38,-22.86 -51.98,-37.13 -85.75,-37.13 -75.91,0 -131.67,70.8 -114.52,144.32 -97.64,-4.93 -184.29,-51.7 -242.25,-122.79 -30.8,52.79 -15.95,121.92 36.38,156.93 -19.24,-0.62 -37.34,-5.92 -53.18,-14.71 -1.28,54.42 37.77,105.36 94.3,116.73 -16.51,4.49 -34.66,5.54 -53.09,2 14.95,46.7 58.45,80.65 109.8,81.6 -49.51,38.76 -111.71,56.1 -174.11,48.74 52.04,33.36 113.77,52.8 180.14,52.8 218.29,0 341.55,-184.34 334.11,-349.67 23.01,-16.51 42.93,-37.24 58.68,-60.83l-0.03 0z"/>
 </g>
</svg>
